<svg xmlns="http://www.w3.org/2000/svg" xmlns:xlink="http://www.w3.org/1999/xlink" xmlns:lucid="lucid" width="1760" height="1360"><g transform="translate(0 0)" lucid:page-tab-id="0_0"><path d="M183.6 84.8a10.67 10.67 0 0 1 12.8 0l67.2 50.4a6 6 0 0 1 0 9.6l-67.2 50.4a10.67 10.67 0 0 1-12.8 0l-67.2-50.4a6 6 0 0 1 0-9.6z" stroke="#333" fill="#fff"/><use xlink:href="#a" transform="matrix(1,0,0,1,115,85) translate(13.294135802469164 59.04444444444445)"/><use xlink:href="#b" transform="matrix(1,0,0,1,115,85) translate(62.6138888888889 59.04444444444445)"/><path d="M183.6 264.8a10.67 10.67 0 0 1 12.8 0l67.2 50.4a6 6 0 0 1 0 9.6l-67.2 50.4a10.67 10.67 0 0 1-12.8 0l-67.2-50.4a6 6 0 0 1 0-9.6z" stroke="#333" fill="#fff"/><use xlink:href="#c" transform="matrix(1,0,0,1,115,265) translate(15.569135802469162 59.04444444444445)"/><use xlink:href="#d" transform="matrix(1,0,0,1,115,265) translate(66.01234567901236 59.04444444444445)"/><use xlink:href="#e" transform="matrix(1,0,0,1,115,265) translate(110.89444444444443 59.04444444444445)"/><path d="M370 288a8 8 0 0 1 8-8h124a8 8 0 0 1 8 8v64a8 8 0 0 1-8 8H378a8 8 0 0 1-8-8z" stroke="#333" fill="#c7e8ac"/><use xlink:href="#f" transform="matrix(1,0,0,1,382,292) translate(29.969753086419765 20.411111111111115)"/><use xlink:href="#g" transform="matrix(1,0,0,1,382,292) translate(27.722839506172853 44.67777777777778)"/><path d="M190.5 245.78h-1v-3.65h1zm0-27.9h-1v-19.55h1z" stroke="#333" stroke-width=".05" fill="#333"/><path d="M190 197.83l.5-.03v.55h-1v-.55z" fill="#333"/><path d="M190 197.8l.53-.03v.6h-1.06v-.6zm-.47.52h.94v-.5l-.47.04-.47-.03z" stroke="#333" stroke-width=".05" fill="#333"/><path d="M190 260.55l-4.63-14.27h9.26z" fill="#333"/><path d="M190 262.17l-5.32-16.4h10.64zm-3.95-15.4l3.95 12.16 3.95-12.15z" stroke="#333" stroke-width=".05" fill="#333"/><use xlink:href="#h" transform="matrix(1,0,0,1,183.25925925925927,217.86666666666667) translate(0.004999999999999893 16.177777777777774)"/><path d="M311.26 320.5H267v-1h44.26zm41.86 0h-28.38v-1h28.38z" stroke="#333" stroke-width=".05" fill="#333"/><path d="M267 320.5h-.54l.04-.5-.04-.5h.56z" fill="#333"/><path d="M267.04 320.52h-.6l.04-.52-.05-.52h.6zm-.56-1l.05.48-.05.48h.5v-.96z" stroke="#333" stroke-width=".05" fill="#333"/><path d="M367.88 320l-14.26 4.63v-9.26z" fill="#333"/><path d="M369.5 320l-16.38 5.32v-10.64zm-15.38 3.95l12.14-3.95-12.14-3.95z" stroke="#333" stroke-width=".05" fill="#333"/><use xlink:href="#h" transform="matrix(1,0,0,1,311.2603416928381,307.8666666666667) translate(0.004999999999999893 16.177777777777774)"/><path d="M184.2 425.5a8.43 8.43 0 0 1 11.6 0l78.4 74.36a7.6 7.6 0 0 1 0 11l-78.4 74.37a8.43 8.43 0 0 1-11.6 0l-78.4-74.36a7.6 7.6 0 0 1 0-11z" stroke="#333" fill="#fff"/><use xlink:href="#i" transform="matrix(1,0,0,1,131.5,451.5000000000001) translate(22.60555555555557 21.64444444444445)"/><use xlink:href="#j" transform="matrix(1,0,0,1,131.5,451.5000000000001) translate(41.70432098765433 21.64444444444445)"/><use xlink:href="#k" transform="matrix(1,0,0,1,131.5,451.5000000000001) translate(-8.795061728395027 45.91111111111111)"/><use xlink:href="#l" transform="matrix(1,0,0,1,131.5,451.5000000000001) translate(19.235185185185202 70.17777777777776)"/><use xlink:href="#m" transform="matrix(1,0,0,1,131.5,451.5000000000001) translate(69.6783950617284 70.17777777777776)"/><use xlink:href="#n" transform="matrix(1,0,0,1,131.5,451.5000000000001) translate(11.511419753086443 94.44444444444443)"/><path d="M190.5 388.13h-1v-9.8h1z" stroke="#333" stroke-width=".05" fill="#333"/><path d="M190 377.83l.5-.03v.55h-1v-.55z" fill="#333"/><path d="M190 377.8l.53-.03v.6h-1.06v-.6zm-.47.52h.94v-.5l-.47.04-.47-.03z" stroke="#333" stroke-width=".05" fill="#333"/><path d="M190 421.07l-2.82-8.68h5.64z" fill="#333"/><path d="M190 422.7l-3.34-10.3h1.05l2.3 7.05 2.3-7.06h1.04z" stroke="#333" stroke-width=".05" fill="#333"/><use xlink:href="#o" transform="matrix(1,0,0,1,182.7256172839506,388.12842765931003) translate(0.004999999999999893 16.177777777777774)"/><path d="M370 473.37a8 8 0 0 1 8-8h124a8 8 0 0 1 8 8v64a8 8 0 0 1-8 8H378a8 8 0 0 1-8-8z" stroke="#333" fill="#ffbbb1"/><use xlink:href="#p" transform="matrix(1,0,0,1,382,477.36666666666673) translate(29.408024691358037 32.544444444444444)"/><path d="M316.54 505.87h-38.98v-1h38.98zm36.57 0h-23.08v-1h23.1z" stroke="#333" stroke-width=".05" fill="#333"/><path d="M277.58 505.87h-.56l.04-.5-.04-.5h.56z" fill="#333"/><path d="M277.6 505.9h-.6l.04-.53-.04-.53h.6zm-.55-1l.04.47-.05.47h.5v-.95z" stroke="#333" stroke-width=".05" fill="#333"/><path d="M367.88 505.37L353.62 510v-9.27z" fill="#333"/><path d="M369.5 505.37l-16.38 5.32v-10.66zm-15.38 3.94l12.14-3.93-12.14-3.95z" stroke="#333" stroke-width=".05" fill="#333"/><use xlink:href="#h" transform="matrix(1,0,0,1,316.5410020582183,493.2333333333334) translate(0.004999999999999893 16.177777777777774)"/><path d="M183.4 644.54a11.62 11.62 0 0 1 13.2 0l76.8 52.87a5.5 5.5 0 0 1 0 9.1l-76.8 52.86a11.62 11.62 0 0 1-13.2 0l-76.8-52.87a5.5 5.5 0 0 1 0-9.1z" stroke="#333" fill="#fff"/><use xlink:href="#c" transform="matrix(1,0,0,1,131.5,671.5) translate(4.658333333333353 16.177777777777774)"/><use xlink:href="#q" transform="matrix(1,0,0,1,131.5,671.5) translate(55.101543209876546 16.177777777777774)"/><use xlink:href="#r" transform="matrix(1,0,0,1,131.5,671.5) translate(94.42253086419751 16.177777777777774)"/><use xlink:href="#d" transform="matrix(1,0,0,1,131.5,671.5) translate(19.20709876543212 40.44444444444443)"/><use xlink:href="#s" transform="matrix(1,0,0,1,131.5,671.5) translate(64.0891975308642 40.44444444444443)"/><use xlink:href="#t" transform="matrix(1,0,0,1,131.5,671.5) translate(22.745987654321006 64.7111111111111)"/><path d="M370 669.95a8 8 0 0 1 8-8h124a8 8 0 0 1 8 8v64a8 8 0 0 1-8 8H378a8 8 0 0 1-8-8z" stroke="#333" fill="#c7e8ac"/><use xlink:href="#f" transform="matrix(1,0,0,1,382,673.95) translate(29.969753086419765 20.411111111111115)"/><use xlink:href="#g" transform="matrix(1,0,0,1,382,673.95) translate(27.722839506172853 44.67777777777778)"/><path d="M120 868a8 8 0 0 1 8-8h124a8 8 0 0 1 8 8v64a8 8 0 0 1-8 8H128a8 8 0 0 1-8-8z" stroke="#333" fill="#ffbbb1"/><use xlink:href="#p" transform="matrix(1,0,0,1,132,872) translate(29.408024691358037 32.544444444444444)"/><path d="M190.5 602.88h-1v-14.34h1z" stroke="#333" stroke-width=".05" fill="#333"/><path d="M190 588.04l.5-.03v.56h-1V588z" fill="#333"/><path d="M190 588.02l.53-.04v.6h-1.06v-.6zm-.47.5h.94v-.5l-.47.05-.47-.04z" stroke="#333" stroke-width=".05" fill="#333"/><path d="M190 640.37l-4.3-13.22h8.6z" fill="#333"/><path d="M190 642l-4.82-14.85h1.05l3.77 11.6 3.77-11.6h1.05z" stroke="#333" stroke-width=".05" fill="#333"/><use xlink:href="#o" transform="matrix(1,0,0,1,182.7256172839506,602.8819006252504) translate(0.004999999999999893 16.177777777777774)"/><path d="M316.16 702.45H276.8v-1h39.36zm36.96-1.95h-23.48v-1h23.48z" stroke="#333" stroke-width=".05" fill="#333"/><path d="M276.8 702.45h-.55l.05-.5-.05-.5h.56z" fill="#333"/><path d="M276.83 702.48h-.6l.04-.53-.05-.53h.6zm-.55-1l.04.47-.04.47h.5v-.94z" stroke="#333" stroke-width=".05" fill="#333"/><path d="M367.88 700l-14.26 4.63v-9.26z" fill="#333"/><path d="M369.5 700l-16.38 5.32v-10.64zm-15.38 3.95l12.14-3.95-12.14-3.95z" stroke="#333" stroke-width=".05" fill="#333"/><use xlink:href="#h" transform="matrix(1,0,0,1,316.1577574561715,688.8416673160185) translate(0.004999999999999893 16.177777777777774)"/><path d="M190.5 843.12h-1v-20.28h1zm0-44.55h-1V762.4h1z" stroke="#333" stroke-width=".05" fill="#333"/><path d="M190 761.9l.5-.02v.55h-1v-.55z" fill="#333"/><path d="M190 761.9l.53-.04v.6h-1.06v-.6zm-.47.5h.94v-.5l-.47.04-.47-.03z" stroke="#333" stroke-width=".05" fill="#333"/><path d="M190 857.88l-4.63-14.26h9.26z" fill="#333"/><path d="M190 859.5l-5.32-16.38h10.64zm-3.95-15.38l3.95 12.14 3.95-12.14z" stroke="#333" stroke-width=".05" fill="#333"/><use xlink:href="#o" transform="matrix(1,0,0,1,182.7256172839506,798.5735379123915) translate(0.004999999999999893 16.177777777777774)"/><path d="M667.56 73.45a8.9 8.9 0 0 1 11.9 0l68.1 61.2a7.2 7.2 0 0 1 0 10.7l-68.1 61.2a8.9 8.9 0 0 1-11.9 0l-68.1-61.2a7.2 7.2 0 0 1 0-10.7z" stroke="#333" fill="#fff"/><use xlink:href="#u" transform="matrix(1,0,0,1,625.013690163074,99.60000000000001) translate(22.154938271604948 20.277777777777782)"/><use xlink:href="#v" transform="matrix(1,0,0,1,625.013690163074,99.60000000000001) translate(19.87993827160495 44.54444444444444)"/><use xlink:href="#d" transform="matrix(1,0,0,1,625.013690163074,99.60000000000001) translate(14.290740740740759 68.8111111111111)"/><use xlink:href="#e" transform="matrix(1,0,0,1,625.013690163074,99.60000000000001) translate(59.172839506172835 68.8111111111111)"/><path d="M424.27 140.5H267v-1h157.27zm155.92 0H438.8v-1h141.4z" stroke="#333" stroke-width=".05" fill="#333"/><path d="M267 140.5h-.54l.04-.5-.04-.5h.56z" fill="#333"/><path d="M267.04 140.53h-.6l.04-.53-.05-.53h.6zm-.56-1l.05.47-.05.47h.5v-.94z" stroke="#333" stroke-width=".05" fill="#333"/><path d="M594.96 140l-14.27 4.63v-9.26z" fill="#333"/><path d="M596.58 140l-16.4 5.32v-10.64zm-15.4 3.95l12.16-3.95-12.15-3.95z" stroke="#333" stroke-width=".05" fill="#333"/><use xlink:href="#o" transform="matrix(1,0,0,1,424.2657613813251,127.86666666666667) translate(0.004999999999999893 16.177777777777774)"/><path d="M833.5 108a8 8 0 0 1 8-8h124a8 8 0 0 1 8 8v64a8 8 0 0 1-8 8h-124a8 8 0 0 1-8-8z" stroke="#333" fill="#ffbbb1"/><use xlink:href="#p" transform="matrix(1,0,0,1,845.513690163074,111.99999999999999) translate(29.408024691358037 32.544444444444444)"/><path d="M785 140.5h-34.05v-1H785zm31.63 0h-18.16v-1h18.16z" stroke="#333" stroke-width=".05" fill="#333"/><path d="M750.96 140.5h-.55l.05-.5-.04-.5h.56z" fill="#333"/><path d="M751 140.53h-.62l.04-.53-.04-.53h.6zm-.57-1l.04.47-.04.47h.5v-.94z" stroke="#333" stroke-width=".05" fill="#333"/><path d="M831.4 140l-14.27 4.63v-9.26z" fill="#333"/><path d="M833 140l-16.37 5.32v-10.64zm-15.37 3.95l12.15-3.95-12.15-3.95z" stroke="#333" stroke-width=".05" fill="#333"/><use xlink:href="#h" transform="matrix(1,0,0,1,784.9907328400747,127.86666666666667) translate(0.004999999999999893 16.177777777777774)"/><path d="M667.43 262.38a9.37 9.37 0 0 1 12.17 0l87.83 74.98a6.83 6.83 0 0 1 0 10.38l-87.83 74.98a9.37 9.37 0 0 1-12.17 0l-87.83-74.98a6.83 6.83 0 0 1 0-10.38z" stroke="#333" fill="#fff"/><use xlink:href="#c" transform="matrix(1,0,0,1,605.013690163074,288.6833333333333) translate(17.46697530864199 21.64444444444445)"/><use xlink:href="#w" transform="matrix(1,0,0,1,605.013690163074,288.6833333333333) translate(67.91018518518518 21.64444444444445)"/><use xlink:href="#r" transform="matrix(1,0,0,1,605.013690163074,288.6833333333333) translate(101.61388888888888 21.64444444444445)"/><use xlink:href="#x" transform="matrix(1,0,0,1,605.013690163074,288.6833333333333) translate(11.849691358024714 45.91111111111111)"/><use xlink:href="#v" transform="matrix(1,0,0,1,605.013690163074,288.6833333333333) translate(67.91018518518518 45.91111111111111)"/><use xlink:href="#d" transform="matrix(1,0,0,1,605.013690163074,288.6833333333333) translate(15.753703703703735 70.17777777777776)"/><use xlink:href="#y" transform="matrix(1,0,0,1,605.013690163074,288.6833333333333) translate(60.63580246913581 70.17777777777776)"/><use xlink:href="#s" transform="matrix(1,0,0,1,605.013690163074,288.6833333333333) translate(87.54259259259258 70.17777777777776)"/><use xlink:href="#t" transform="matrix(1,0,0,1,605.013690163074,288.6833333333333) translate(32.745987654321006 94.44444444444443)"/><path d="M674 222.35h-1v-12.5h1z" stroke="#333" stroke-width=".05" fill="#333"/><path d="M673.5 209.34l.5-.04v.55h-1v-.55z" fill="#333"/><path d="M673.5 209.3l.54-.03v.6H673v-.6zm-.46.52h.95v-.5l-.5.04-.46-.04z" stroke="#333" stroke-width=".05" fill="#333"/><path d="M673.5 258l-3.7-11.38h7.42z" fill="#333"/><path d="M673.5 259.63l-4.22-13h1.06l3.17 9.77 3.2-9.78h1.04z" stroke="#333" stroke-width=".05" fill="#333"/><g><use xlink:href="#o" transform="matrix(1,0,0,1,666.2393074470247,222.35015385712396) translate(0.004999999999999893 16.177777777777774)"/></g><path d="M833.5 310.55a8 8 0 0 1 8-8h124a8 8 0 0 1 8 8v64a8 8 0 0 1-8 8h-124a8 8 0 0 1-8-8z" stroke="#333" fill="#c7e8ac"/><g><use xlink:href="#f" transform="matrix(1,0,0,1,845.513690163074,314.54999999999995) translate(29.969753086419765 20.411111111111115)"/><use xlink:href="#g" transform="matrix(1,0,0,1,845.513690163074,314.54999999999995) translate(27.722839506172853 44.67777777777778)"/></g><path d="M603.5 508a8 8 0 0 1 8-8h124a8 8 0 0 1 8 8v64a8 8 0 0 1-8 8h-124a8 8 0 0 1-8-8z" stroke="#333" fill="#ffbbb1"/><g><use xlink:href="#p" transform="matrix(1,0,0,1,615.513690163074,512) translate(29.408024691358037 32.544444444444444)"/></g><path d="M794.93 343.05h-24.1v-1h24.1zm21.7 0h-8.22v-1h8.23z" stroke="#333" stroke-width=".05" fill="#333"/><path d="M770.84 343.05h-.56l.05-.5-.05-.5h.56z" fill="#333"/><path d="M770.86 343.07h-.6l.04-.52-.04-.53h.6zm-.55-1l.05.48-.04.47h.5v-.94z" stroke="#333" stroke-width=".05" fill="#333"/><path d="M831.4 342.55l-14.27 4.63v-9.26z" fill="#333"/><path d="M833 342.55l-16.37 5.32v-10.64zm-15.37 3.95l12.15-3.95-12.15-3.95z" stroke="#333" stroke-width=".05" fill="#333"/><g><use xlink:href="#h" transform="matrix(1,0,0,1,794.9292863513415,330.41666666666663) translate(0.004999999999999893 16.177777777777774)"/></g><path d="M674 483.12h-1v-8.5h1zm0-32.77h-1v-24.38h1z" stroke="#333" stroke-width=".05" fill="#333"/><path d="M673.5 425.47l.5-.04v.55h-1v-.55z" fill="#333"/><path d="M673.5 425.44l.54-.04v.6H673v-.6zm-.46.5h.95v-.48l-.5.03-.46-.04z" stroke="#333" stroke-width=".05" fill="#333"/><path d="M673.5 497.88l-4.62-14.26h9.27z" fill="#333"/><path d="M673.5 499.5l-5.3-16.38h10.64zm-3.93-15.38l3.94 12.14 3.96-12.14z" stroke="#333" stroke-width=".05" fill="#333"/><g><use xlink:href="#o" transform="matrix(1,0,0,1,666.2393074470247,450.3505043105202) translate(0.004999999999999893 16.177777777777774)"/></g><defs><path fill="#333" d="M240 0l2-218c-23 76-54 145-80 218h-23L58-218 59 0H30v-248h44l77 211c21-75 51-140 76-211h43V0h-30" id="z"/><path fill="#333" d="M141-36C126-15 110 5 73 4 37 3 15-17 15-53c-1-64 63-63 125-63 3-35-9-54-41-54-24 1-41 7-42 31l-33-3c5-37 33-52 76-52 45 0 72 20 72 64v82c-1 20 7 32 28 27v20c-31 9-61-2-59-35zM48-53c0 20 12 33 32 33 41-3 63-29 60-74-43 2-92-5-92 41" id="A"/><path fill="#333" d="M24 0v-261h32V0H24" id="B"/><path fill="#333" d="M100-194c63 0 86 42 84 106H49c0 40 14 67 53 68 26 1 43-12 49-29l28 8c-11 28-37 45-77 45C44 4 14-33 15-96c1-61 26-98 85-98zm52 81c6-60-76-77-97-28-3 7-6 17-6 28h103" id="C"/><g id="a"><use transform="matrix(0.056172839506172814,0,0,0.056172839506172814,0,0)" xlink:href="#z"/><use transform="matrix(0.056172839506172814,0,0,0.056172839506172814,16.795679012345673,0)" xlink:href="#A"/><use transform="matrix(0.056172839506172814,0,0,0.056172839506172814,28.030246913580235,0)" xlink:href="#B"/><use transform="matrix(0.056172839506172814,0,0,0.056172839506172814,32.46790123456789,0)" xlink:href="#C"/></g><path fill="#333" d="M115-194c55 1 70 41 70 98S169 2 115 4C84 4 66-9 55-30l1 105H24l-1-265h31l2 30c10-21 28-34 59-34zm-8 174c40 0 45-34 45-75s-6-73-45-74c-42 0-51 32-51 76 0 43 10 73 51 73" id="D"/><path fill="#333" d="M114-163C36-179 61-72 57 0H25l-1-190h30c1 12-1 29 2 39 6-27 23-49 58-41v29" id="E"/><path fill="#333" d="M100-194c62-1 85 37 85 99 1 63-27 99-86 99S16-35 15-95c0-66 28-99 85-99zM99-20c44 1 53-31 53-75 0-43-8-75-51-75s-53 32-53 75 10 74 51 75" id="F"/><path fill="#333" d="M115-194c53 0 69 39 70 98 0 66-23 100-70 100C84 3 66-7 56-30L54 0H23l1-261h32v101c10-23 28-34 59-34zm-8 174c40 0 45-34 45-75 0-40-5-75-45-74-42 0-51 32-51 76 0 43 10 73 51 73" id="G"/><path fill="#333" d="M117-194c89-4 53 116 60 194h-32v-121c0-31-8-49-39-48C34-167 62-67 57 0H25l-1-190h30c1 10-1 24 2 32 11-22 29-35 61-36" id="H"/><path fill="#333" d="M85-194c31 0 48 13 60 33l-1-100h32l1 261h-30c-2-10 0-23-3-31C134-8 116 4 85 4 32 4 16-35 15-94c0-66 23-100 70-100zm9 24c-40 0-46 34-46 75 0 40 6 74 45 74 42 0 51-32 51-76 0-42-9-74-50-73" id="I"/><g id="b"><use transform="matrix(0.056172839506172814,0,0,0.056172839506172814,0,0)" xlink:href="#D"/><use transform="matrix(0.056172839506172814,0,0,0.056172839506172814,11.234567901234563,0)" xlink:href="#E"/><use transform="matrix(0.056172839506172814,0,0,0.056172839506172814,17.91913580246913,0)" xlink:href="#F"/><use transform="matrix(0.056172839506172814,0,0,0.056172839506172814,29.15370370370369,0)" xlink:href="#G"/><use transform="matrix(0.056172839506172814,0,0,0.056172839506172814,40.388271604938254,0)" xlink:href="#A"/><use transform="matrix(0.056172839506172814,0,0,0.056172839506172814,51.62283950617282,0)" xlink:href="#H"/><use transform="matrix(0.056172839506172814,0,0,0.056172839506172814,62.85740740740738,0)" xlink:href="#I"/></g><path fill="#333" d="M84 4C-5 8 30-112 23-190h32v120c0 31 7 50 39 49 72-2 45-101 50-169h31l1 190h-30c-1-10 1-25-2-33-11 22-28 36-60 37" id="J"/><path fill="#333" d="M210-169c-67 3-38 105-44 169h-31v-121c0-29-5-50-35-48C34-165 62-65 56 0H25l-1-190h30c1 10-1 24 2 32 10-44 99-50 107 0 11-21 27-35 58-36 85-2 47 119 55 194h-31v-121c0-29-5-49-35-48" id="K"/><g id="c"><use transform="matrix(0.056172839506172814,0,0,0.056172839506172814,0,0)" xlink:href="#z"/><use transform="matrix(0.056172839506172814,0,0,0.056172839506172814,16.795679012345673,0)" xlink:href="#J"/><use transform="matrix(0.056172839506172814,0,0,0.056172839506172814,28.030246913580235,0)" xlink:href="#K"/></g><path fill="#333" d="M106-169C34-169 62-67 57 0H25v-261h32l-1 103c12-21 28-36 61-36 89 0 53 116 60 194h-32v-121c2-32-8-49-39-48" id="L"/><g id="d"><use transform="matrix(0.056172839506172814,0,0,0.056172839506172814,0,0)" xlink:href="#L"/><use transform="matrix(0.056172839506172814,0,0,0.056172839506172814,11.234567901234563,0)" xlink:href="#F"/><use transform="matrix(0.056172839506172814,0,0,0.056172839506172814,22.469135802469125,0)" xlink:href="#K"/></g><path fill="#333" d="M101-234c-31-9-42 10-38 44h38v23H63V0H32v-167H5v-23h27c-7-52 17-82 69-68v24" id="M"/><g id="e"><use transform="matrix(0.056172839506172814,0,0,0.056172839506172814,0,0)" xlink:href="#E"/><use transform="matrix(0.056172839506172814,0,0,0.056172839506172814,6.684567901234565,0)" xlink:href="#C"/><use transform="matrix(0.056172839506172814,0,0,0.056172839506172814,17.91913580246913,0)" xlink:href="#M"/></g><path fill="#333" d="M185-189c-5-48-123-54-124 2 14 75 158 14 163 119 3 78-121 87-175 55-17-10-28-26-33-46l33-7c5 56 141 63 141-1 0-78-155-14-162-118-5-82 145-84 179-34 5 7 8 16 11 25" id="N"/><path fill="#333" d="M24-231v-30h32v30H24zM24 0v-190h32V0H24" id="O"/><path fill="#333" d="M177-190C167-65 218 103 67 71c-23-6-38-20-44-43l32-5c15 47 100 32 89-28v-30C133-14 115 1 83 1 29 1 15-40 15-95c0-56 16-97 71-98 29-1 48 16 59 35 1-10 0-23 2-32h30zM94-22c36 0 50-32 50-73 0-42-14-75-50-75-39 0-46 34-46 75s6 73 46 73" id="P"/><g id="f"><use transform="matrix(0.056172839506172814,0,0,0.056172839506172814,0,0)" xlink:href="#N"/><use transform="matrix(0.056172839506172814,0,0,0.056172839506172814,13.481481481481476,0)" xlink:href="#O"/><use transform="matrix(0.056172839506172814,0,0,0.056172839506172814,17.91913580246913,0)" xlink:href="#H"/><use transform="matrix(0.056172839506172814,0,0,0.056172839506172814,29.15370370370369,0)" xlink:href="#P"/><use transform="matrix(0.056172839506172814,0,0,0.056172839506172814,40.388271604938254,0)" xlink:href="#B"/><use transform="matrix(0.056172839506172814,0,0,0.056172839506172814,44.82592592592591,0)" xlink:href="#C"/></g><path fill="#333" d="M108 0H70L1-190h34L89-25l56-165h34" id="Q"/><path fill="#333" d="M59-47c-2 24 18 29 38 22v24C64 9 27 4 27-40v-127H5v-23h24l9-43h21v43h35v23H59v120" id="R"/><g id="g"><use transform="matrix(0.056172839506172814,0,0,0.056172839506172814,0,0)" xlink:href="#Q"/><use transform="matrix(0.056172839506172814,0,0,0.056172839506172814,10.111111111111107,0)" xlink:href="#A"/><use transform="matrix(0.056172839506172814,0,0,0.056172839506172814,21.34567901234567,0)" xlink:href="#E"/><use transform="matrix(0.056172839506172814,0,0,0.056172839506172814,28.030246913580235,0)" xlink:href="#O"/><use transform="matrix(0.056172839506172814,0,0,0.056172839506172814,32.46790123456789,0)" xlink:href="#A"/><use transform="matrix(0.056172839506172814,0,0,0.056172839506172814,43.70246913580245,0)" xlink:href="#H"/><use transform="matrix(0.056172839506172814,0,0,0.056172839506172814,54.937037037037015,0)" xlink:href="#R"/></g><path fill="#333" d="M137-103V0h-34v-103L8-248h37l75 118 75-118h37" id="S"/><use transform="matrix(0.056172839506172814,0,0,0.056172839506172814,0,0)" xlink:href="#S" id="h"/><path fill="#333" d="M195 0l-74-108L45 0H8l94-129-87-119h37l69 98 67-98h37l-84 118L233 0h-38" id="T"/><use transform="matrix(0.056172839506172814,0,0,0.056172839506172814,0,0)" xlink:href="#T" id="i"/><path fill="#333" d="M143 0L79-87 56-68V0H24v-261h32v163l83-92h37l-77 82L181 0h-38" id="U"/><g id="j"><use transform="matrix(0.056172839506172814,0,0,0.056172839506172814,0,0)" xlink:href="#B"/><use transform="matrix(0.056172839506172814,0,0,0.056172839506172814,4.437654320987653,0)" xlink:href="#O"/><use transform="matrix(0.056172839506172814,0,0,0.056172839506172814,8.875308641975305,0)" xlink:href="#H"/><use transform="matrix(0.056172839506172814,0,0,0.056172839506172814,20.109876543209868,0)" xlink:href="#U"/><use transform="matrix(0.056172839506172814,0,0,0.056172839506172814,30.220987654320975,0)" xlink:href="#C"/><use transform="matrix(0.056172839506172814,0,0,0.056172839506172814,41.455555555555534,0)" xlink:href="#I"/></g><path fill="#333" d="M16-82v-28h88v28H16" id="V"/><path fill="#333" d="M68-38c1 34 0 65-14 84H32c9-13 17-26 17-46H33v-38h35" id="W"/><g id="k"><use transform="matrix(0.056172839506172814,0,0,0.056172839506172814,0,0)" xlink:href="#F"/><use transform="matrix(0.056172839506172814,0,0,0.056172839506172814,11.234567901234563,0)" xlink:href="#Q"/><use transform="matrix(0.056172839506172814,0,0,0.056172839506172814,21.34567901234567,0)" xlink:href="#C"/><use transform="matrix(0.056172839506172814,0,0,0.056172839506172814,32.58024691358023,0)" xlink:href="#E"/><use transform="matrix(0.056172839506172814,0,0,0.056172839506172814,39.2648148148148,0)" xlink:href="#V"/><use transform="matrix(0.056172839506172814,0,0,0.056172839506172814,45.949382716049364,0)" xlink:href="#I"/><use transform="matrix(0.056172839506172814,0,0,0.056172839506172814,57.18395061728393,0)" xlink:href="#F"/><use transform="matrix(0.056172839506172814,0,0,0.056172839506172814,68.41851851851848,0)" xlink:href="#K"/><use transform="matrix(0.056172839506172814,0,0,0.056172839506172814,85.21419753086415,0)" xlink:href="#O"/><use transform="matrix(0.056172839506172814,0,0,0.056172839506172814,89.6518518518518,0)" xlink:href="#H"/><use transform="matrix(0.056172839506172814,0,0,0.056172839506172814,100.88641975308636,0)" xlink:href="#A"/><use transform="matrix(0.056172839506172814,0,0,0.056172839506172814,112.12098765432091,0)" xlink:href="#H"/><use transform="matrix(0.056172839506172814,0,0,0.056172839506172814,123.35555555555547,0)" xlink:href="#R"/><use transform="matrix(0.056172839506172814,0,0,0.056172839506172814,128.97283950617276,0)" xlink:href="#W"/></g><g id="l"><use transform="matrix(0.056172839506172814,0,0,0.056172839506172814,0,0)" xlink:href="#K"/><use transform="matrix(0.056172839506172814,0,0,0.056172839506172814,16.795679012345673,0)" xlink:href="#J"/><use transform="matrix(0.056172839506172814,0,0,0.056172839506172814,28.030246913580235,0)" xlink:href="#K"/></g><g id="m"><use transform="matrix(0.056172839506172814,0,0,0.056172839506172814,0,0)" xlink:href="#L"/><use transform="matrix(0.056172839506172814,0,0,0.056172839506172814,11.234567901234563,0)" xlink:href="#C"/><use transform="matrix(0.056172839506172814,0,0,0.056172839506172814,22.469135802469125,0)" xlink:href="#R"/></g><path fill="#333" d="M96-169c-40 0-48 33-48 73s9 75 48 75c24 0 41-14 43-38l32 2c-6 37-31 61-74 61-59 0-76-41-82-99-10-93 101-131 147-64 4 7 5 14 7 22l-32 3c-4-21-16-35-41-35" id="X"/><g id="n"><use transform="matrix(0.056172839506172814,0,0,0.056172839506172814,0,0)" xlink:href="#J"/><use transform="matrix(0.056172839506172814,0,0,0.056172839506172814,11.234567901234563,0)" xlink:href="#H"/><use transform="matrix(0.056172839506172814,0,0,0.056172839506172814,22.469135802469125,0)" xlink:href="#A"/><use transform="matrix(0.056172839506172814,0,0,0.056172839506172814,33.70370370370369,0)" xlink:href="#M"/><use transform="matrix(0.056172839506172814,0,0,0.056172839506172814,38.92777777777776,0)" xlink:href="#M"/><use transform="matrix(0.056172839506172814,0,0,0.056172839506172814,44.54506172839504,0)" xlink:href="#C"/><use transform="matrix(0.056172839506172814,0,0,0.056172839506172814,55.7796296296296,0)" xlink:href="#X"/><use transform="matrix(0.056172839506172814,0,0,0.056172839506172814,65.89074074074071,0)" xlink:href="#R"/><use transform="matrix(0.056172839506172814,0,0,0.056172839506172814,71.50802469135799,0)" xlink:href="#C"/><use transform="matrix(0.056172839506172814,0,0,0.056172839506172814,82.74259259259256,0)" xlink:href="#I"/></g><path fill="#333" d="M190 0L58-211 59 0H30v-248h39L202-35l-2-213h31V0h-41" id="Y"/><use transform="matrix(0.056172839506172814,0,0,0.056172839506172814,0,0)" xlink:href="#Y" id="o"/><path fill="#333" d="M233-177c-1 41-23 64-60 70L243 0h-38l-65-103H63V0H30v-248c88 3 205-21 203 71zM63-129c60-2 137 13 137-47 0-61-80-42-137-45v92" id="Z"/><path fill="#333" d="M24-231v-30h32v30H24zM-9 49c24 4 33-6 33-30v-209h32V24c2 40-23 58-65 49V49" id="aa"/><g id="p"><use transform="matrix(0.056172839506172814,0,0,0.056172839506172814,0,0)" xlink:href="#Z"/><use transform="matrix(0.056172839506172814,0,0,0.056172839506172814,14.548765432098758,0)" xlink:href="#C"/><use transform="matrix(0.056172839506172814,0,0,0.056172839506172814,25.78333333333332,0)" xlink:href="#aa"/><use transform="matrix(0.056172839506172814,0,0,0.056172839506172814,30.220987654320975,0)" xlink:href="#C"/><use transform="matrix(0.056172839506172814,0,0,0.056172839506172814,41.455555555555534,0)" xlink:href="#X"/><use transform="matrix(0.056172839506172814,0,0,0.056172839506172814,51.56666666666664,0)" xlink:href="#R"/></g><g id="q"><use transform="matrix(0.056172839506172814,0,0,0.056172839506172814,0,0)" xlink:href="#L"/><use transform="matrix(0.056172839506172814,0,0,0.056172839506172814,11.234567901234563,0)" xlink:href="#C"/><use transform="matrix(0.056172839506172814,0,0,0.056172839506172814,22.469135802469125,0)" xlink:href="#R"/><use transform="matrix(0.056172839506172814,0,0,0.056172839506172814,28.086419753086407,0)" xlink:href="#W"/></g><g id="r"><use transform="matrix(0.056172839506172814,0,0,0.056172839506172814,0,0)" xlink:href="#F"/><use transform="matrix(0.056172839506172814,0,0,0.056172839506172814,11.234567901234563,0)" xlink:href="#E"/></g><g id="s"><use transform="matrix(0.056172839506172814,0,0,0.056172839506172814,0,0)" xlink:href="#A"/><use transform="matrix(0.056172839506172814,0,0,0.056172839506172814,11.234567901234563,0)" xlink:href="#H"/><use transform="matrix(0.056172839506172814,0,0,0.056172839506172814,22.469135802469125,0)" xlink:href="#I"/></g><g id="t"><use transform="matrix(0.056172839506172814,0,0,0.056172839506172814,0,0)" xlink:href="#A"/><use transform="matrix(0.056172839506172814,0,0,0.056172839506172814,11.234567901234563,0)" xlink:href="#M"/><use transform="matrix(0.056172839506172814,0,0,0.056172839506172814,16.458641975308634,0)" xlink:href="#M"/><use transform="matrix(0.056172839506172814,0,0,0.056172839506172814,22.075925925925915,0)" xlink:href="#C"/><use transform="matrix(0.056172839506172814,0,0,0.056172839506172814,33.31049382716048,0)" xlink:href="#X"/><use transform="matrix(0.056172839506172814,0,0,0.056172839506172814,43.421604938271585,0)" xlink:href="#R"/><use transform="matrix(0.056172839506172814,0,0,0.056172839506172814,49.03888888888886,0)" xlink:href="#C"/><use transform="matrix(0.056172839506172814,0,0,0.056172839506172814,60.27345679012343,0)" xlink:href="#I"/></g><path fill="#333" d="M30 0v-248h187v28H63v79h144v27H63v87h162V0H30" id="ab"/><g id="u"><use transform="matrix(0.056172839506172814,0,0,0.056172839506172814,0,0)" xlink:href="#ab"/><use transform="matrix(0.056172839506172814,0,0,0.056172839506172814,13.481481481481476,0)" xlink:href="#O"/><use transform="matrix(0.056172839506172814,0,0,0.056172839506172814,17.91913580246913,0)" xlink:href="#R"/><use transform="matrix(0.056172839506172814,0,0,0.056172839506172814,23.53641975308641,0)" xlink:href="#L"/><use transform="matrix(0.056172839506172814,0,0,0.056172839506172814,34.770987654320976,0)" xlink:href="#C"/><use transform="matrix(0.056172839506172814,0,0,0.056172839506172814,46.00555555555554,0)" xlink:href="#E"/></g><g id="v"><use transform="matrix(0.056172839506172814,0,0,0.056172839506172814,0,0)" xlink:href="#D"/><use transform="matrix(0.056172839506172814,0,0,0.056172839506172814,11.234567901234563,0)" xlink:href="#A"/><use transform="matrix(0.056172839506172814,0,0,0.056172839506172814,22.469135802469125,0)" xlink:href="#E"/><use transform="matrix(0.056172839506172814,0,0,0.056172839506172814,29.15370370370369,0)" xlink:href="#C"/><use transform="matrix(0.056172839506172814,0,0,0.056172839506172814,40.388271604938254,0)" xlink:href="#H"/><use transform="matrix(0.056172839506172814,0,0,0.056172839506172814,51.62283950617282,0)" xlink:href="#R"/></g><g id="w"><use transform="matrix(0.056172839506172814,0,0,0.056172839506172814,0,0)" xlink:href="#L"/><use transform="matrix(0.056172839506172814,0,0,0.056172839506172814,11.234567901234563,0)" xlink:href="#C"/><use transform="matrix(0.056172839506172814,0,0,0.056172839506172814,22.469135802469125,0)" xlink:href="#R"/></g><g id="x"><use transform="matrix(0.056172839506172814,0,0,0.056172839506172814,0,0)" xlink:href="#C"/><use transform="matrix(0.056172839506172814,0,0,0.056172839506172814,11.234567901234563,0)" xlink:href="#O"/><use transform="matrix(0.056172839506172814,0,0,0.056172839506172814,15.672222222222215,0)" xlink:href="#R"/><use transform="matrix(0.056172839506172814,0,0,0.056172839506172814,21.289506172839495,0)" xlink:href="#L"/><use transform="matrix(0.056172839506172814,0,0,0.056172839506172814,32.52407407407406,0)" xlink:href="#C"/><use transform="matrix(0.056172839506172814,0,0,0.056172839506172814,43.75864197530862,0)" xlink:href="#E"/></g><g id="y"><use transform="matrix(0.056172839506172814,0,0,0.056172839506172814,0,0)" xlink:href="#A"/><use transform="matrix(0.056172839506172814,0,0,0.056172839506172814,11.234567901234563,0)" xlink:href="#B"/><use transform="matrix(0.056172839506172814,0,0,0.056172839506172814,15.672222222222215,0)" xlink:href="#R"/></g></defs></g></svg>