<svg xmlns="http://www.w3.org/2000/svg" xmlns:xlink="http://www.w3.org/1999/xlink" xmlns:lucid="lucid" width="1760" height="1360"><g transform="translate(0 0)" lucid:page-tab-id="0_0"><path d="M593.6 208.7a10.67 10.67 0 0 1 12.8 0l67.2 50.4a6 6 0 0 1 0 9.6l-67.2 50.4a10.67 10.67 0 0 1-12.8 0l-67.2-50.4a6 6 0 0 1 0-9.6z" stroke="#333" fill="#fff"/><use xlink:href="#a" transform="matrix(1,0,0,1,551.5,235.39999999999998) translate(28.58055555555556 19.522222222222222)"/><use xlink:href="#b" transform="matrix(1,0,0,1,551.5,235.39999999999998) translate(11.123765432098779 46.45555555555555)"/><path d="M1020 211.9a8 8 0 0 1 8-8h144a8 8 0 0 1 8 8v104a8 8 0 0 1-8 8h-144a8 8 0 0 1-8-8z" stroke="#333" fill="#ffbbb1"/><use xlink:href="#c" transform="matrix(1,0,0,1,1032,215.89999999999998) translate(36.266049382716055 52.48888888888888)"/><path d="M520 28a8 8 0 0 1 8-8h144a8 8 0 0 1 8 8v104a8 8 0 0 1-8 8H528a8 8 0 0 1-8-8z" stroke="#333" fill="#fff"/><use xlink:href="#d" transform="matrix(1,0,0,1,532,32) translate(35.6425925925926 39.022222222222226)"/><use xlink:href="#e" transform="matrix(1,0,0,1,532,32) translate(81.65370370370371 39.022222222222226)"/><use xlink:href="#f" transform="matrix(1,0,0,1,532,32) translate(28.78456790123458 65.95555555555555)"/><path d="M600 141v48.68" stroke="#333" fill="none"/><path d="M600.5 141h-1v-.5h1z" stroke="#333" stroke-width=".05" fill="#333"/><path d="M600 204.45l-4.63-14.27h9.26z" stroke="#333" fill="#333"/><path d="M721.93 264.4H677v-1h44.93zm45.18 0h-29.03v-1h29.04z" stroke="#333" stroke-width=".05" fill="#333"/><path d="M677 264.4h-.54l.04-.5-.04-.5h.55z" fill="#333"/><path d="M677.04 264.43h-.6l.04-.53-.05-.52h.6zm-.56-1l.05.47-.05.48h.5v-.95z" stroke="#333" stroke-width=".05" fill="#333"/><path d="M781.88 263.9l-14.27 4.64v-9.28z" fill="#333"/><path d="M783.5 263.9l-16.4 5.32v-10.64zm-15.4 3.95l12.16-3.95-12.15-3.95z" stroke="#333" stroke-width=".05" fill="#333"/><use xlink:href="#g" transform="matrix(1,0,0,1,721.9262345679012,250.43333333333337) translate(0.005000000000000782 17.955555555555552)"/><path d="M963.6 264.4H937v-1h26.6zm39.5 0h-24.54v-1h24.56z" stroke="#333" stroke-width=".05" fill="#333"/><path d="M937 264.4h-.54l.04-.5-.04-.5h.55z" fill="#333"/><path d="M937.04 264.43h-.6l.04-.53-.05-.52h.6zm-.56-1l.05.47-.05.48h.5v-.95z" stroke="#333" stroke-width=".05" fill="#333"/><path d="M1017.88 263.9l-14.26 4.64v-9.28z" fill="#333"/><path d="M1019.5 263.9l-16.38 5.32v-10.64zm-15.38 3.95l12.14-3.95-12.14-3.95z" stroke="#333" stroke-width=".05" fill="#333"/><use xlink:href="#h" transform="matrix(1,0,0,1,963.6012882743127,250.4333333333333) translate(0.004999999999999893 17.955555555555552)"/><path d="M853.6 208.7a10.67 10.67 0 0 1 12.8 0l67.2 50.4a6 6 0 0 1 0 9.6l-67.2 50.4a10.67 10.67 0 0 1-12.8 0l-67.2-50.4a6 6 0 0 1 0-9.6z" stroke="#333" fill="#fff"/><use xlink:href="#i" transform="matrix(1,0,0,1,811.5,235.39999999999998) translate(25.432098765432105 19.522222222222222)"/><use xlink:href="#j" transform="matrix(1,0,0,1,811.5,235.39999999999998) translate(1.1796296296296447 46.45555555555555)"/><path d="M780 408a8 8 0 0 1 8-8h144a8 8 0 0 1 8 8v104a8 8 0 0 1-8 8H788a8 8 0 0 1-8-8z" stroke="#333" fill="#c7e8ac"/><use xlink:href="#k" transform="matrix(1,0,0,1,792,412) translate(43.061728395061735 52.48888888888888)"/><path d="M860.5 383.12h-1v-9.04h1zm0-35.97h-1v-24.92h1z" stroke="#333" stroke-width=".05" fill="#333"/><path d="M860 321.73l.5-.03v.55h-1v-.55z" fill="#333"/><path d="M860 321.7l.52-.02v.6h-1.04v-.6zm-.48.52h.96v-.5l-.48.04-.48-.03z" stroke="#333" stroke-width=".05" fill="#333"/><path d="M860 397.88l-4.63-14.26h9.26z" fill="#333"/><path d="M860 399.5l-5.32-16.38h10.64zm-3.95-15.38l3.95 12.14 3.95-12.14z" stroke="#333" stroke-width=".05" fill="#333"/><use xlink:href="#g" transform="matrix(1,0,0,1,851.9262345679012,347.15053303028526) translate(0.005000000000000782 17.955555555555552)"/><path d="M593.6 404.8a10.67 10.67 0 0 1 12.8 0l67.2 50.4a6 6 0 0 1 0 9.6l-67.2 50.4a10.67 10.67 0 0 1-12.8 0l-67.2-50.4a6 6 0 0 1 0-9.6z" stroke="#333" fill="#fff"/><use xlink:href="#l" transform="matrix(1,0,0,1,525,405) translate(67.51851851851852 46.022222222222226)"/><use xlink:href="#m" transform="matrix(1,0,0,1,525,405) translate(10.25401234567903 72.95555555555555)"/><path d="M344.06 365.95a8.85 8.85 0 0 1 11.88 0l98.13 88.7a7.23 7.23 0 0 1 0 10.7l-98.13 88.7a8.85 8.85 0 0 1-11.88 0l-98.13-88.7a7.23 7.23 0 0 1 0-10.7z" stroke="#333" fill="#fff"/><use xlink:href="#n" transform="matrix(1,0,0,1,271.5,392.08333333333337) translate(5.680246913580277 45.55555555555556)"/><use xlink:href="#o" transform="matrix(1,0,0,1,271.5,392.08333333333337) translate(70.39506172839508 45.55555555555556)"/><use xlink:href="#p" transform="matrix(1,0,0,1,271.5,392.08333333333337) translate(19.365123456790137 72.4888888888889)"/><use xlink:href="#q" transform="matrix(1,0,0,1,271.5,392.08333333333337) translate(92.80833333333334 72.4888888888889)"/><use xlink:href="#r" transform="matrix(1,0,0,1,271.5,392.08333333333337) translate(122.6719135802469 72.4888888888889)"/><use xlink:href="#s" transform="matrix(1,0,0,1,271.5,392.08333333333337) translate(10.761419753086443 99.42222222222222)"/><use xlink:href="#t" transform="matrix(1,0,0,1,271.5,392.08333333333337) translate(54.4033950617284 99.42222222222222)"/><path d="M0 408a8 8 0 0 1 8-8h144a8 8 0 0 1 8 8v104a8 8 0 0 1-8 8H8a8 8 0 0 1-8-8z" stroke="#333" fill="#ffbbb1"/><use xlink:href="#c" transform="matrix(1,0,0,1,12,412) translate(36.266049382716055 52.48888888888888)"/><path d="M482.74 460.5h-9.4v-1h9.4zm40.26 0h-25.3v-1H523z" stroke="#333" stroke-width=".05" fill="#333"/><path d="M523.5 460l.04.5H523v-1h.54z" fill="#333"/><path d="M523.52 460l.05.52h-.6v-1.04h.6zm-.5-.48v.96h.5l-.05-.48.05-.48z" stroke="#333" stroke-width=".05" fill="#333"/><path d="M472.83 464.63L458.57 460l14.26-4.63z" fill="#333"/><path d="M473.33 465.32L456.95 460l16.38-5.32zM460.2 460l12.13 3.95v-7.9z" stroke="#333" stroke-width=".05" fill="#333"/><use xlink:href="#h" transform="matrix(1,0,0,1,482.74187415527905,446.53333333333336) translate(0.004999999999999893 17.955555555555552)"/><path d="M194.3 460.5h-17.42v-1h17.4zm48.25 0h-33.3v-1h33.3z" stroke="#333" stroke-width=".05" fill="#333"/><path d="M243.05 460l.04.5h-.56v-1h.55z" fill="#333"/><path d="M243.08 460l.04.52h-.6v-1.04h.6zm-.52-.48v.96h.5l-.03-.48.04-.48z" stroke="#333" stroke-width=".05" fill="#333"/><path d="M176.38 464.63L162.12 460l14.26-4.63z" fill="#333"/><path d="M176.88 465.32L160.5 460l16.38-5.32zM163.74 460l12.14 3.95v-7.9z" stroke="#333" stroke-width=".05" fill="#333"/><use xlink:href="#h" transform="matrix(1,0,0,1,194.29408043421358,446.53333333333336) translate(0.004999999999999893 17.955555555555552)"/><path d="M600.5 385.78h-1v-10.36h1zm0-37.3h-1v-26.25h1z" stroke="#333" stroke-width=".05" fill="#333"/><path d="M600 321.73l.5-.03v.55h-1v-.55z" fill="#333"/><path d="M600 321.7l.52-.02v.6h-1.04v-.6zm-.48.52h.96v-.5l-.48.04-.48-.03z" stroke="#333" stroke-width=".05" fill="#333"/><path d="M600 400.55l-4.63-14.27h9.26z" fill="#333"/><path d="M600 402.17l-5.32-16.4h10.64zm-3.95-15.4l3.95 12.16 3.95-12.15z" stroke="#333" stroke-width=".05" fill="#333"/><use xlink:href="#h" transform="matrix(1,0,0,1,592.5185185185185,348.48333333333335) translate(0.004999999999999893 17.955555555555552)"/><path d="M594.63 586.5a7.24 7.24 0 0 1 10.74 0l79.26 87.57a8.84 8.84 0 0 1 0 11.86l-79.26 87.56a7.24 7.24 0 0 1-10.74 0l-79.26-87.57a8.84 8.84 0 0 1 0-11.86z" stroke="#333" fill="#fff"/><use xlink:href="#u" transform="matrix(1,0,0,1,541.5,612.0833333333331) translate(18.629938271604942 32.0888888888889)"/><use xlink:href="#v" transform="matrix(1,0,0,1,541.5,612.0833333333331) translate(67.25956790123456 32.0888888888889)"/><use xlink:href="#w" transform="matrix(1,0,0,1,541.5,612.0833333333331) translate(15.575000000000003 59.022222222222226)"/><use xlink:href="#x" transform="matrix(1,0,0,1,541.5,612.0833333333331) translate(8.685802469135815 85.95555555555555)"/><use xlink:href="#y" transform="matrix(1,0,0,1,541.5,612.0833333333331) translate(59.684567901234566 85.95555555555555)"/><use xlink:href="#z" transform="matrix(1,0,0,1,541.5,612.0833333333331) translate(26.734876543209886 112.88888888888889)"/><path d="M600.5 567.25h-1v-3.05h1zm0-29.98h-1v-18.94h1z" stroke="#333" stroke-width=".05" fill="#333"/><path d="M600 517.83l.5-.03v.55h-1v-.55z" fill="#333"/><path d="M600 517.8l.52-.02v.6h-1.04v-.6zm-.48.52h.96v-.5l-.48.04-.48-.03z" stroke="#333" stroke-width=".05" fill="#333"/><path d="M600 582l-4.63-14.25h9.26z" fill="#333"/><path d="M600 583.63l-5.32-16.38h10.64zm-3.95-15.38L600 580.4l3.95-12.15z" stroke="#333" stroke-width=".05" fill="#333"/><use xlink:href="#g" transform="matrix(1,0,0,1,591.9262345679012,537.2657978342968) translate(0.005000000000000782 17.955555555555552)"/><path d="M496.2 679.5v1H377.78v-1zm-145.7-11.52l.14 1.82.42 1.75.7 1.67.94 1.54 1.17 1.37 1.37 1.17 1.54.95 1.67.7 1.75.4 1.44.12v1l-1.6-.12-1.9-.46-1.82-.76-1.67-1.03-1.5-1.26-1.26-1.5-1.04-1.66-.75-1.82-.45-1.9-.15-1.94V557.34h1z" stroke="#333" stroke-width=".05" fill="#333"/><path d="M350 556.84l.5-.04v.55h-1v-.55z" fill="#333"/><path d="M350 556.8l.52-.02v.6h-1.04v-.6zm-.48.53h.96v-.5l-.48.03-.48-.03z" stroke="#333" stroke-width=".05" fill="#333"/><path d="M510.96 680l-14.26 4.63v-9.26z" fill="#333"/><path d="M512.58 680l-16.38 5.32v-10.64zm-15.38 3.95l12.15-3.95-12.15-3.95z" stroke="#333" stroke-width=".05" fill="#333"/><use xlink:href="#g" transform="matrix(1,0,0,1,361.63645223507496,666.5333333333332) translate(0.005000000000000782 17.955555555555552)"/><path d="M780 628a8 8 0 0 1 8-8h144a8 8 0 0 1 8 8v104a8 8 0 0 1-8 8H788a8 8 0 0 1-8-8z" stroke="#333" fill="#c7e8ac"/><use xlink:href="#k" transform="matrix(1,0,0,1,792,632) translate(43.061728395061735 52.48888888888888)"/><path d="M725.98 680.5h-38.06v-1h38.06zm37.13 0h-22.16v-1h22.17z" stroke="#333" stroke-width=".05" fill="#333"/><path d="M687.93 680.5h-.55l.04-.5-.04-.5h.55z" fill="#333"/><path d="M687.96 680.52h-.6l.03-.52-.05-.52h.6zm-.55-1l.04.48-.03.48h.5v-.96z" stroke="#333" stroke-width=".05" fill="#333"/><path d="M777.88 680l-14.26 4.63v-9.26z" fill="#333"/><path d="M779.5 680l-16.38 5.32v-10.64zm-15.38 3.95l12.14-3.95-12.14-3.95z" stroke="#333" stroke-width=".05" fill="#333"/><use xlink:href="#h" transform="matrix(1,0,0,1,725.9775836187191,666.5333333333332) translate(0.004999999999999893 17.955555555555552)"/><path d="M594.05 853.16a8.9 8.9 0 0 1 11.9 0l68.1 61.2a7.2 7.2 0 0 1 0 10.7l-68.1 61.2a8.9 8.9 0 0 1-11.9 0l-68.1-61.2a7.2 7.2 0 0 1 0-10.7z" stroke="#333" fill="#fff"/><use xlink:href="#A" transform="matrix(1,0,0,1,551.5,879.3083333333333) translate(27.302469135802475 18.05555555555556)"/><use xlink:href="#B" transform="matrix(1,0,0,1,551.5,879.3083333333333) translate(2.457716049382718 44.988888888888894)"/><use xlink:href="#C" transform="matrix(1,0,0,1,551.5,879.3083333333333) translate(1.210802469135814 71.92222222222222)"/><use xlink:href="#D" transform="matrix(1,0,0,1,551.5,879.3083333333333) translate(44.852777777777774 71.92222222222222)"/><path d="M600.5 834h-1v-7.16h1zm0-34.1h-1v-23.03h1z" stroke="#333" stroke-width=".05" fill="#333"/><path d="M600 776.37l.5-.04v.55h-1v-.55z" fill="#333"/><path d="M600 776.34l.52-.04v.6h-1.04v-.6zm-.48.52h.96v-.5l-.48.03-.48-.04z" stroke="#333" stroke-width=".05" fill="#333"/><path d="M600 848.76l-4.63-14.27h9.26z" fill="#333"/><path d="M600 850.37L594.68 834h10.64zM596.05 835l3.95 12.14 3.95-12.15z" stroke="#333" stroke-width=".05" fill="#333"/><g><use xlink:href="#g" transform="matrix(1,0,0,1,591.9262345679012,799.9049110456558) translate(0.005000000000000782 17.955555555555552)"/></g><path d="M780 867.7a8 8 0 0 1 8-8h144a8 8 0 0 1 8 8v104a8 8 0 0 1-8 8H788a8 8 0 0 1-8-8z" stroke="#333" fill="#c7e8ac"/><g><use xlink:href="#k" transform="matrix(1,0,0,1,792,871.7083333333333) translate(43.061728395061735 52.48888888888888)"/></g><path d="M720.74 920.2h-43.3v-1h43.3zm42.38 0H735.7v-1h27.42z" stroke="#333" stroke-width=".05" fill="#333"/><path d="M677.45 920.2h-.56l.04-.5-.05-.5h.55z" fill="#333"/><path d="M677.47 920.23h-.6l.04-.52-.03-.52h.6zm-.55-1l.04.48-.04.48h.5v-.95z" stroke="#333" stroke-width=".05" fill="#333"/><path d="M777.88 919.7l-14.26 4.64v-9.27z" fill="#333"/><path d="M779.5 919.7l-16.38 5.33V914.4zm-15.38 3.95l12.14-3.94-12.14-3.94z" stroke="#333" stroke-width=".05" fill="#333"/><g><use xlink:href="#h" transform="matrix(1,0,0,1,720.73630193626,906.2416666666666) translate(0.004999999999999893 17.955555555555552)"/></g><path d="M520 1068a8 8 0 0 1 8-8h144a8 8 0 0 1 8 8v104a8 8 0 0 1-8 8H528a8 8 0 0 1-8-8z" stroke="#333" fill="#ffbbb1"/><g><use xlink:href="#c" transform="matrix(1,0,0,1,532,1072) translate(36.266049382716055 52.48888888888888)"/></g><path d="M600.5 1043.12h-1v-5.38h1zm0-32.3l-1-.02v-21.26h1z" stroke="#333" stroke-width=".05" fill="#333"/><path d="M600 989.04l.5-.03v.56h-1V989z" fill="#333"/><path d="M600 989.02l.52-.04v.6h-1.04v-.6zm-.48.5h.96v-.5l-.48.05-.48-.04z" stroke="#333" stroke-width=".05" fill="#333"/><path d="M600 1057.88l-4.63-14.26h9.26z" fill="#333"/><path d="M600 1059.5l-5.32-16.38h10.64zm-3.95-15.38l3.95 12.14 3.95-12.14z" stroke="#333" stroke-width=".05" fill="#333"/><g><use xlink:href="#g" transform="matrix(1,0,0,1,591.9262345679012,1010.8048245009775) translate(0.005000000000000782 17.955555555555552)"/></g><defs><path fill="#333" d="M197 0v-115H63V0H30v-248h33v105h134v-105h34V0h-34" id="E"/><path fill="#333" d="M141-36C126-15 110 5 73 4 37 3 15-17 15-53c-1-64 63-63 125-63 3-35-9-54-41-54-24 1-41 7-42 31l-33-3c5-37 33-52 76-52 45 0 72 20 72 64v82c-1 20 7 32 28 27v20c-31 9-61-2-59-35zM48-53c0 20 12 33 32 33 41-3 63-29 60-74-43 2-92-5-92 41" id="F"/><path fill="#333" d="M135-143c-3-34-86-38-87 0 15 53 115 12 119 90S17 21 10-45l28-5c4 36 97 45 98 0-10-56-113-15-118-90-4-57 82-63 122-42 12 7 21 19 24 35" id="G"/><g id="a"><use transform="matrix(0.06234567901234567,0,0,0.06234567901234567,0,0)" xlink:href="#E"/><use transform="matrix(0.06234567901234567,0,0,0.06234567901234567,16.147530864197527,0)" xlink:href="#F"/><use transform="matrix(0.06234567901234567,0,0,0.06234567901234567,28.61666666666666,0)" xlink:href="#G"/></g><path fill="#333" d="M115-194c55 1 70 41 70 98S169 2 115 4C84 4 66-9 55-30l1 105H24l-1-265h31l2 30c10-21 28-34 59-34zm-8 174c40 0 45-34 45-75s-6-73-45-74c-42 0-51 32-51 76 0 43 10 73 51 73" id="H"/><path fill="#333" d="M114-163C36-179 61-72 57 0H25l-1-190h30c1 12-1 29 2 39 6-27 23-49 58-41v29" id="I"/><path fill="#333" d="M100-194c63 0 86 42 84 106H49c0 40 14 67 53 68 26 1 43-12 49-29l28 8c-11 28-37 45-77 45C44 4 14-33 15-96c1-61 26-98 85-98zm52 81c6-60-76-77-97-28-3 7-6 17-6 28h103" id="J"/><path fill="#333" d="M117-194c89-4 53 116 60 194h-32v-121c0-31-8-49-39-48C34-167 62-67 57 0H25l-1-190h30c1 10-1 24 2 32 11-22 29-35 61-36" id="K"/><path fill="#333" d="M59-47c-2 24 18 29 38 22v24C64 9 27 4 27-40v-127H5v-23h24l9-43h21v43h35v23H59v120" id="L"/><g id="b"><use transform="matrix(0.06234567901234567,0,0,0.06234567901234567,0,0)" xlink:href="#H"/><use transform="matrix(0.06234567901234567,0,0,0.06234567901234567,12.469135802469133,0)" xlink:href="#F"/><use transform="matrix(0.06234567901234567,0,0,0.06234567901234567,24.938271604938265,0)" xlink:href="#I"/><use transform="matrix(0.06234567901234567,0,0,0.06234567901234567,32.3574074074074,0)" xlink:href="#J"/><use transform="matrix(0.06234567901234567,0,0,0.06234567901234567,44.82654320987653,0)" xlink:href="#K"/><use transform="matrix(0.06234567901234567,0,0,0.06234567901234567,57.295679012345666,0)" xlink:href="#L"/><use transform="matrix(0.06234567901234567,0,0,0.06234567901234567,63.53024691358023,0)" xlink:href="#G"/></g><path fill="#333" d="M233-177c-1 41-23 64-60 70L243 0h-38l-65-103H63V0H30v-248c88 3 205-21 203 71zM63-129c60-2 137 13 137-47 0-61-80-42-137-45v92" id="M"/><path fill="#333" d="M24-231v-30h32v30H24zM-9 49c24 4 33-6 33-30v-209h32V24c2 40-23 58-65 49V49" id="N"/><path fill="#333" d="M96-169c-40 0-48 33-48 73s9 75 48 75c24 0 41-14 43-38l32 2c-6 37-31 61-74 61-59 0-76-41-82-99-10-93 101-131 147-64 4 7 5 14 7 22l-32 3c-4-21-16-35-41-35" id="O"/><g id="c"><use transform="matrix(0.06234567901234567,0,0,0.06234567901234567,0,0)" xlink:href="#M"/><use transform="matrix(0.06234567901234567,0,0,0.06234567901234567,16.147530864197527,0)" xlink:href="#J"/><use transform="matrix(0.06234567901234567,0,0,0.06234567901234567,28.61666666666666,0)" xlink:href="#N"/><use transform="matrix(0.06234567901234567,0,0,0.06234567901234567,33.541975308641966,0)" xlink:href="#J"/><use transform="matrix(0.06234567901234567,0,0,0.06234567901234567,46.0111111111111,0)" xlink:href="#O"/><use transform="matrix(0.06234567901234567,0,0,0.06234567901234567,57.23333333333332,0)" xlink:href="#L"/></g><path fill="#333" d="M30-248c87 1 191-15 191 75 0 78-77 80-158 76V0H30v-248zm33 125c57 0 124 11 124-50 0-59-68-47-124-48v98" id="P"/><path fill="#333" d="M24-231v-30h32v30H24zM24 0v-190h32V0H24" id="Q"/><g id="d"><use transform="matrix(0.06234567901234567,0,0,0.06234567901234567,0,0)" xlink:href="#P"/><use transform="matrix(0.06234567901234567,0,0,0.06234567901234567,14.96296296296296,0)" xlink:href="#F"/><use transform="matrix(0.06234567901234567,0,0,0.06234567901234567,27.432098765432094,0)" xlink:href="#Q"/><use transform="matrix(0.06234567901234567,0,0,0.06234567901234567,32.3574074074074,0)" xlink:href="#I"/></g><path fill="#333" d="M100-194c62-1 85 37 85 99 1 63-27 99-86 99S16-35 15-95c0-66 28-99 85-99zM99-20c44 1 53-31 53-75 0-43-8-75-51-75s-53 32-53 75 10 74 51 75" id="R"/><path fill="#333" d="M101-234c-31-9-42 10-38 44h38v23H63V0H32v-167H5v-23h27c-7-52 17-82 69-68v24" id="S"/><g id="e"><use transform="matrix(0.06234567901234567,0,0,0.06234567901234567,0,0)" xlink:href="#R"/><use transform="matrix(0.06234567901234567,0,0,0.06234567901234567,12.469135802469133,0)" xlink:href="#S"/></g><path fill="#333" d="M108 0H70L1-190h34L89-25l56-165h34" id="T"/><g id="f"><use transform="matrix(0.06234567901234567,0,0,0.06234567901234567,0,0)" xlink:href="#T"/><use transform="matrix(0.06234567901234567,0,0,0.06234567901234567,11.22222222222222,0)" xlink:href="#F"/><use transform="matrix(0.06234567901234567,0,0,0.06234567901234567,23.691358024691354,0)" xlink:href="#I"/><use transform="matrix(0.06234567901234567,0,0,0.06234567901234567,31.11049382716049,0)" xlink:href="#Q"/><use transform="matrix(0.06234567901234567,0,0,0.06234567901234567,36.035802469135795,0)" xlink:href="#F"/><use transform="matrix(0.06234567901234567,0,0,0.06234567901234567,48.50493827160493,0)" xlink:href="#K"/><use transform="matrix(0.06234567901234567,0,0,0.06234567901234567,60.97407407407406,0)" xlink:href="#L"/><use transform="matrix(0.06234567901234567,0,0,0.06234567901234567,67.20864197530862,0)" xlink:href="#G"/></g><path fill="#333" d="M190 0L58-211 59 0H30v-248h39L202-35l-2-213h31V0h-41" id="U"/><use transform="matrix(0.06234567901234567,0,0,0.06234567901234567,0,0)" xlink:href="#U" id="g"/><path fill="#333" d="M137-103V0h-34v-103L8-248h37l75 118 75-118h37" id="V"/><use transform="matrix(0.06234567901234567,0,0,0.06234567901234567,0,0)" xlink:href="#V" id="h"/><path fill="#333" d="M160-131c35 5 61 23 61 61C221 17 115-2 30 0v-248c76 3 177-17 177 60 0 33-19 50-47 57zm-97-11c50-1 110 9 110-42 0-47-63-36-110-37v79zm0 115c55-2 124 14 124-45 0-56-70-42-124-44v89" id="W"/><path fill="#333" d="M106-169C34-169 62-67 57 0H25v-261h32l-1 103c12-21 28-36 61-36 89 0 53 116 60 194h-32v-121c2-32-8-49-39-48" id="X"/><g id="i"><use transform="matrix(0.06234567901234567,0,0,0.06234567901234567,0,0)" xlink:href="#W"/><use transform="matrix(0.06234567901234567,0,0,0.06234567901234567,14.96296296296296,0)" xlink:href="#R"/><use transform="matrix(0.06234567901234567,0,0,0.06234567901234567,27.432098765432094,0)" xlink:href="#L"/><use transform="matrix(0.06234567901234567,0,0,0.06234567901234567,33.66666666666666,0)" xlink:href="#X"/></g><path fill="#333" d="M210-169c-67 3-38 105-44 169h-31v-121c0-29-5-50-35-48C34-165 62-65 56 0H25l-1-190h30c1 10-1 24 2 32 10-44 99-50 107 0 11-21 27-35 58-36 85-2 47 119 55 194h-31v-121c0-29-5-49-35-48" id="Y"/><g id="j"><use transform="matrix(0.06234567901234567,0,0,0.06234567901234567,0,0)" xlink:href="#Y"/><use transform="matrix(0.06234567901234567,0,0,0.06234567901234567,18.641358024691353,0)" xlink:href="#Q"/><use transform="matrix(0.06234567901234567,0,0,0.06234567901234567,23.566666666666663,0)" xlink:href="#G"/><use transform="matrix(0.06234567901234567,0,0,0.06234567901234567,34.788888888888884,0)" xlink:href="#G"/><use transform="matrix(0.06234567901234567,0,0,0.06234567901234567,46.011111111111106,0)" xlink:href="#J"/><use transform="matrix(0.06234567901234567,0,0,0.06234567901234567,58.48024691358024,0)" xlink:href="#K"/><use transform="matrix(0.06234567901234567,0,0,0.06234567901234567,70.94938271604937,0)" xlink:href="#G"/><use transform="matrix(0.06234567901234567,0,0,0.06234567901234567,82.17160493827159,0)" xlink:href="#J"/></g><g id="k"><use transform="matrix(0.06234567901234567,0,0,0.06234567901234567,0,0)" xlink:href="#P"/><use transform="matrix(0.06234567901234567,0,0,0.06234567901234567,14.96296296296296,0)" xlink:href="#F"/><use transform="matrix(0.06234567901234567,0,0,0.06234567901234567,27.432098765432094,0)" xlink:href="#G"/><use transform="matrix(0.06234567901234567,0,0,0.06234567901234567,38.654320987654316,0)" xlink:href="#G"/></g><path fill="#333" d="M195 0l-74-108L45 0H8l94-129-87-119h37l69 98 67-98h37l-84 118L233 0h-38" id="Z"/><use transform="matrix(0.06234567901234567,0,0,0.06234567901234567,0,0)" xlink:href="#Z" id="l"/><g id="m"><use transform="matrix(0.06234567901234567,0,0,0.06234567901234567,0,0)" xlink:href="#O"/><use transform="matrix(0.06234567901234567,0,0,0.06234567901234567,11.22222222222222,0)" xlink:href="#X"/><use transform="matrix(0.06234567901234567,0,0,0.06234567901234567,23.691358024691354,0)" xlink:href="#I"/><use transform="matrix(0.06234567901234567,0,0,0.06234567901234567,31.11049382716049,0)" xlink:href="#R"/><use transform="matrix(0.06234567901234567,0,0,0.06234567901234567,43.57962962962962,0)" xlink:href="#Y"/><use transform="matrix(0.06234567901234567,0,0,0.06234567901234567,62.22098765432098,0)" xlink:href="#R"/><use transform="matrix(0.06234567901234567,0,0,0.06234567901234567,74.6901234567901,0)" xlink:href="#G"/><use transform="matrix(0.06234567901234567,0,0,0.06234567901234567,85.91234567901232,0)" xlink:href="#R"/><use transform="matrix(0.06234567901234567,0,0,0.06234567901234567,98.38148148148144,0)" xlink:href="#Y"/><use transform="matrix(0.06234567901234567,0,0,0.06234567901234567,117.0228395061728,0)" xlink:href="#J"/></g><path fill="#333" d="M30 0v-248h187v28H63v79h144v27H63v87h162V0H30" id="aa"/><g id="n"><use transform="matrix(0.06234567901234567,0,0,0.06234567901234567,0,0)" xlink:href="#aa"/><use transform="matrix(0.06234567901234567,0,0,0.06234567901234567,14.96296296296296,0)" xlink:href="#Q"/><use transform="matrix(0.06234567901234567,0,0,0.06234567901234567,19.888271604938268,0)" xlink:href="#L"/><use transform="matrix(0.06234567901234567,0,0,0.06234567901234567,26.122839506172834,0)" xlink:href="#X"/><use transform="matrix(0.06234567901234567,0,0,0.06234567901234567,38.59197530864196,0)" xlink:href="#J"/><use transform="matrix(0.06234567901234567,0,0,0.06234567901234567,51.061111111111096,0)" xlink:href="#I"/></g><path fill="#333" d="M24 0v-261h32V0H24" id="ab"/><g id="o"><use transform="matrix(0.06234567901234567,0,0,0.06234567901234567,0,0)" xlink:href="#H"/><use transform="matrix(0.06234567901234567,0,0,0.06234567901234567,12.469135802469133,0)" xlink:href="#F"/><use transform="matrix(0.06234567901234567,0,0,0.06234567901234567,24.938271604938265,0)" xlink:href="#L"/><use transform="matrix(0.06234567901234567,0,0,0.06234567901234567,31.17283950617283,0)" xlink:href="#J"/><use transform="matrix(0.06234567901234567,0,0,0.06234567901234567,43.64197530864196,0)" xlink:href="#I"/><use transform="matrix(0.06234567901234567,0,0,0.06234567901234567,51.061111111111096,0)" xlink:href="#K"/><use transform="matrix(0.06234567901234567,0,0,0.06234567901234567,63.53024691358023,0)" xlink:href="#F"/><use transform="matrix(0.06234567901234567,0,0,0.06234567901234567,75.99938271604935,0)" xlink:href="#ab"/></g><g id="p"><use transform="matrix(0.06234567901234567,0,0,0.06234567901234567,0,0)" xlink:href="#T"/><use transform="matrix(0.06234567901234567,0,0,0.06234567901234567,11.22222222222222,0)" xlink:href="#F"/><use transform="matrix(0.06234567901234567,0,0,0.06234567901234567,23.691358024691354,0)" xlink:href="#I"/><use transform="matrix(0.06234567901234567,0,0,0.06234567901234567,31.11049382716049,0)" xlink:href="#Q"/><use transform="matrix(0.06234567901234567,0,0,0.06234567901234567,36.035802469135795,0)" xlink:href="#F"/><use transform="matrix(0.06234567901234567,0,0,0.06234567901234567,48.50493827160493,0)" xlink:href="#K"/><use transform="matrix(0.06234567901234567,0,0,0.06234567901234567,60.97407407407406,0)" xlink:href="#L"/></g><g id="q"><use transform="matrix(0.06234567901234567,0,0,0.06234567901234567,0,0)" xlink:href="#F"/><use transform="matrix(0.06234567901234567,0,0,0.06234567901234567,12.469135802469133,0)" xlink:href="#ab"/><use transform="matrix(0.06234567901234567,0,0,0.06234567901234567,17.39444444444444,0)" xlink:href="#L"/></g><path fill="#333" d="M234-2c-28 10-62 0-77-18C117 19 8 12 13-65c3-43 29-61 60-76-25-40-17-114 47-108 35 3 59 15 59 50 0 44-40 53-71 69 14 26 32 50 51 72 14-21 24-43 30-72l26 8c-9 33-21 57-38 82 13 13 33 22 57 15v23zM97-151c25-10 52-18 56-48-1-18-13-29-33-29-42 0-39 50-23 77zM42-66c-3 51 71 58 98 28-20-24-41-51-56-80-23 10-40 24-42 52" id="ac"/><use transform="matrix(0.06234567901234567,0,0,0.06234567901234567,0,0)" xlink:href="#ac" id="r"/><path fill="#333" d="M85-194c31 0 48 13 60 33l-1-100h32l1 261h-30c-2-10 0-23-3-31C134-8 116 4 85 4 32 4 16-35 15-94c0-66 23-100 70-100zm9 24c-40 0-46 34-46 75 0 40 6 74 45 74 42 0 51-32 51-76 0-42-9-74-50-73" id="ad"/><g id="s"><use transform="matrix(0.06234567901234567,0,0,0.06234567901234567,0,0)" xlink:href="#ad"/><use transform="matrix(0.06234567901234567,0,0,0.06234567901234567,12.469135802469133,0)" xlink:href="#F"/><use transform="matrix(0.06234567901234567,0,0,0.06234567901234567,24.938271604938265,0)" xlink:href="#ad"/></g><path fill="#333" d="M84 4C-5 8 30-112 23-190h32v120c0 31 7 50 39 49 72-2 45-101 50-169h31l1 190h-30c-1-10 1-25-2-33-11 22-28 36-60 37" id="ae"/><g id="t"><use transform="matrix(0.06234567901234567,0,0,0.06234567901234567,0,0)" xlink:href="#ae"/><use transform="matrix(0.06234567901234567,0,0,0.06234567901234567,12.469135802469133,0)" xlink:href="#K"/><use transform="matrix(0.06234567901234567,0,0,0.06234567901234567,24.938271604938265,0)" xlink:href="#F"/><use transform="matrix(0.06234567901234567,0,0,0.06234567901234567,37.4074074074074,0)" xlink:href="#S"/><use transform="matrix(0.06234567901234567,0,0,0.06234567901234567,43.20555555555555,0)" xlink:href="#S"/><use transform="matrix(0.06234567901234567,0,0,0.06234567901234567,49.44012345679012,0)" xlink:href="#O"/><use transform="matrix(0.06234567901234567,0,0,0.06234567901234567,60.66234567901234,0)" xlink:href="#L"/><use transform="matrix(0.06234567901234567,0,0,0.06234567901234567,66.8969135802469,0)" xlink:href="#J"/><use transform="matrix(0.06234567901234567,0,0,0.06234567901234567,79.36604938271603,0)" xlink:href="#ad"/></g><path fill="#333" d="M140-251c81 0 123 46 123 126C263-46 219 4 140 4 59 4 17-45 17-125s42-126 123-126zm0 227c63 0 89-41 89-101s-29-99-89-99c-61 0-89 39-89 99S79-25 140-24" id="af"/><g id="u"><use transform="matrix(0.06234567901234567,0,0,0.06234567901234567,0,0)" xlink:href="#af"/><use transform="matrix(0.06234567901234567,0,0,0.06234567901234567,17.456790123456788,0)" xlink:href="#K"/><use transform="matrix(0.06234567901234567,0,0,0.06234567901234567,29.92592592592592,0)" xlink:href="#J"/></g><g id="v"><use transform="matrix(0.06234567901234567,0,0,0.06234567901234567,0,0)" xlink:href="#T"/><use transform="matrix(0.06234567901234567,0,0,0.06234567901234567,11.22222222222222,0)" xlink:href="#F"/><use transform="matrix(0.06234567901234567,0,0,0.06234567901234567,23.691358024691354,0)" xlink:href="#I"/></g><g id="w"><use transform="matrix(0.06234567901234567,0,0,0.06234567901234567,0,0)" xlink:href="#Q"/><use transform="matrix(0.06234567901234567,0,0,0.06234567901234567,4.925308641975308,0)" xlink:href="#K"/><use transform="matrix(0.06234567901234567,0,0,0.06234567901234567,17.39444444444444,0)" xlink:href="#X"/><use transform="matrix(0.06234567901234567,0,0,0.06234567901234567,29.86358024691357,0)" xlink:href="#J"/><use transform="matrix(0.06234567901234567,0,0,0.06234567901234567,42.332716049382704,0)" xlink:href="#I"/><use transform="matrix(0.06234567901234567,0,0,0.06234567901234567,49.75185185185184,0)" xlink:href="#Q"/><use transform="matrix(0.06234567901234567,0,0,0.06234567901234567,54.677160493827145,0)" xlink:href="#L"/><use transform="matrix(0.06234567901234567,0,0,0.06234567901234567,60.911728395061715,0)" xlink:href="#J"/><use transform="matrix(0.06234567901234567,0,0,0.06234567901234567,73.38086419753085,0)" xlink:href="#ad"/></g><g id="x"><use transform="matrix(0.06234567901234567,0,0,0.06234567901234567,0,0)" xlink:href="#S"/><use transform="matrix(0.06234567901234567,0,0,0.06234567901234567,6.234567901234566,0)" xlink:href="#I"/><use transform="matrix(0.06234567901234567,0,0,0.06234567901234567,13.653703703703702,0)" xlink:href="#R"/><use transform="matrix(0.06234567901234567,0,0,0.06234567901234567,26.122839506172834,0)" xlink:href="#Y"/></g><g id="y"><use transform="matrix(0.06234567901234567,0,0,0.06234567901234567,0,0)" xlink:href="#J"/><use transform="matrix(0.06234567901234567,0,0,0.06234567901234567,12.469135802469133,0)" xlink:href="#F"/><use transform="matrix(0.06234567901234567,0,0,0.06234567901234567,24.938271604938265,0)" xlink:href="#O"/><use transform="matrix(0.06234567901234567,0,0,0.06234567901234567,36.16049382716049,0)" xlink:href="#X"/></g><g id="z"><use transform="matrix(0.06234567901234567,0,0,0.06234567901234567,0,0)" xlink:href="#H"/><use transform="matrix(0.06234567901234567,0,0,0.06234567901234567,12.469135802469133,0)" xlink:href="#F"/><use transform="matrix(0.06234567901234567,0,0,0.06234567901234567,24.938271604938265,0)" xlink:href="#I"/><use transform="matrix(0.06234567901234567,0,0,0.06234567901234567,32.3574074074074,0)" xlink:href="#J"/><use transform="matrix(0.06234567901234567,0,0,0.06234567901234567,44.82654320987653,0)" xlink:href="#K"/><use transform="matrix(0.06234567901234567,0,0,0.06234567901234567,57.295679012345666,0)" xlink:href="#L"/></g><g id="A"><use transform="matrix(0.06234567901234567,0,0,0.06234567901234567,0,0)" xlink:href="#af"/><use transform="matrix(0.06234567901234567,0,0,0.06234567901234567,17.456790123456788,0)" xlink:href="#K"/><use transform="matrix(0.06234567901234567,0,0,0.06234567901234567,29.92592592592592,0)" xlink:href="#J"/></g><path fill="#333" d="M68-38c1 34 0 65-14 84H32c9-13 17-26 17-46H33v-38h35" id="ag"/><g id="B"><use transform="matrix(0.06234567901234567,0,0,0.06234567901234567,0,0)" xlink:href="#Q"/><use transform="matrix(0.06234567901234567,0,0,0.06234567901234567,4.925308641975308,0)" xlink:href="#K"/><use transform="matrix(0.06234567901234567,0,0,0.06234567901234567,17.39444444444444,0)" xlink:href="#X"/><use transform="matrix(0.06234567901234567,0,0,0.06234567901234567,29.86358024691357,0)" xlink:href="#J"/><use transform="matrix(0.06234567901234567,0,0,0.06234567901234567,42.332716049382704,0)" xlink:href="#I"/><use transform="matrix(0.06234567901234567,0,0,0.06234567901234567,49.75185185185184,0)" xlink:href="#Q"/><use transform="matrix(0.06234567901234567,0,0,0.06234567901234567,54.677160493827145,0)" xlink:href="#L"/><use transform="matrix(0.06234567901234567,0,0,0.06234567901234567,60.911728395061715,0)" xlink:href="#J"/><use transform="matrix(0.06234567901234567,0,0,0.06234567901234567,73.38086419753085,0)" xlink:href="#ad"/><use transform="matrix(0.06234567901234567,0,0,0.06234567901234567,85.85,0)" xlink:href="#ag"/></g><g id="C"><use transform="matrix(0.06234567901234567,0,0,0.06234567901234567,0,0)" xlink:href="#R"/><use transform="matrix(0.06234567901234567,0,0,0.06234567901234567,12.469135802469133,0)" xlink:href="#K"/><use transform="matrix(0.06234567901234567,0,0,0.06234567901234567,24.938271604938265,0)" xlink:href="#J"/></g><path fill="#333" d="M30-248c118-7 216 8 213 122C240-48 200 0 122 0H30v-248zM63-27c89 8 146-16 146-99s-60-101-146-95v194" id="ah"/><path fill="#333" d="M240 0l2-218c-23 76-54 145-80 218h-23L58-218 59 0H30v-248h44l77 211c21-75 51-140 76-211h43V0h-30" id="ai"/><g id="D"><use transform="matrix(0.06234567901234567,0,0,0.06234567901234567,0,0)" xlink:href="#ah"/><use transform="matrix(0.06234567901234567,0,0,0.06234567901234567,16.147530864197527,0)" xlink:href="#U"/><use transform="matrix(0.06234567901234567,0,0,0.06234567901234567,32.295061728395055,0)" xlink:href="#ai"/></g></defs></g></svg>