<svg xmlns="http://www.w3.org/2000/svg" xmlns:xlink="http://www.w3.org/1999/xlink" xmlns:lucid="lucid" width="1760" height="1360"><g transform="translate(0 0)" lucid:page-tab-id="0_0"><path d="M634 88.36a9.04 9.04 0 0 1 12 0l88 77.87a7.08 7.08 0 0 1 0 10.6l-88 77.87a9.04 9.04 0 0 1-12 0l-88-77.87a7.08 7.08 0 0 1 0-10.6z" stroke="#333" fill="#fff"/><use xlink:href="#a" transform="matrix(1,0,0,1,571.5,114.56397682292231) translate(33.46975308641977 30.111111111111125)"/><use xlink:href="#b" transform="matrix(1,0,0,1,571.5,114.56397682292231) translate(0.6055555555556111 62.37777777777778)"/><use xlink:href="#c" transform="matrix(1,0,0,1,571.5,114.56397682292231) translate(84.18518518518518 62.37777777777778)"/><use xlink:href="#d" transform="matrix(1,0,0,1,571.5,114.56397682292231) translate(52.85216049382717 94.64444444444443)"/><path d="M789.8 172.03h-52.4v-1h52.4zm73.32 0h-55.4v-1h55.4z" stroke="#333" stroke-width=".05" fill="#333"/><path d="M737.4 172.03h-.54l.04-.5-.04-.5h.55z" fill="#333"/><path d="M737.44 172.06h-.6l.03-.53-.04-.52h.6zm-.56-1l.04.47-.04.48h.5v-.94z" stroke="#333" stroke-width=".05" fill="#333"/><path d="M877.88 171.53l-14.26 4.64v-9.27z" fill="#333"/><path d="M879.5 171.53l-16.38 5.32V166.2zm-15.38 3.95l12.14-3.95-12.14-3.94z" stroke="#333" stroke-width=".05" fill="#333"/><use xlink:href="#e" transform="matrix(1,0,0,1,789.7916967667041,155.39865507812783) translate(0.005000000000000782 21.511111111111102)"/><path d="M880 119.53a8 8 0 0 1 8-8h144a8 8 0 0 1 8 8v104a8 8 0 0 1-8 8H888a8 8 0 0 1-8-8z" stroke="#333" fill="#ffbbb1"/><use xlink:href="#f" transform="matrix(1,0,0,1,892,123.53198841146116) translate(29.98209876543212 53.37777777777778)"/><path d="M640.5 325.78h-1v-21.3h1zm0-53.58h-1v-14.23h1z" stroke="#333" stroke-width=".05" fill="#333"/><path d="M640 257.47l.5-.04v.55h-1v-.55z" fill="#333"/><path d="M640 257.44l.52-.03v.6h-1.04v-.6zm-.48.52h.96v-.5l-.48.04-.48-.04z" stroke="#333" stroke-width=".05" fill="#333"/><path d="M640 340.55l-4.63-14.27h9.26z" fill="#333"/><path d="M640 342.17l-5.32-16.4h10.64zm-3.95-15.4l3.95 12.16 3.95-12.15z" stroke="#333" stroke-width=".05" fill="#333"/><use xlink:href="#g" transform="matrix(1,0,0,1,630.3274691362661,272.20337082256583) translate(0.005000000000000782 21.511111111111102)"/><path d="M633.6 344.8a10.67 10.67 0 0 1 12.8 0l67.2 50.4a6 6 0 0 1 0 9.6l-67.2 50.4a10.67 10.67 0 0 1-12.8 0l-67.2-50.4a6 6 0 0 1 0-9.6z" stroke="#333" fill="#fff"/><use xlink:href="#h" transform="matrix(1,0,0,1,565,345) translate(29.62500000000003 60.37777777777778)"/><path d="M936.02 325.75a8 8 0 0 1 11.32 0l68.68 68.6a8 8 0 0 1 0 11.3l-68.68 68.6a8 8 0 0 1-11.32 0l-68.68-68.6a8 8 0 0 1 0-11.3z" stroke="#333" fill="#fff"/><use xlink:href="#i" transform="matrix(1,0,0,1,893.1795492973624,351.6) translate(20.86419753086421 21.611111111111125)"/><use xlink:href="#j" transform="matrix(1,0,0,1,893.1795492973624,351.6) translate(3.7225308641975587 53.87777777777778)"/><use xlink:href="#k" transform="matrix(1,0,0,1,893.1795492973624,351.6) translate(29.827160493827172 86.14444444444443)"/><path d="M781.53 400.5H717v-1h64.53zm66.58 0h-48.64v-1h48.65z" stroke="#333" stroke-width=".05" fill="#333"/><path d="M717 400.5h-.54l.04-.5-.04-.5h.55z" fill="#333"/><path d="M717.04 400.52h-.6l.04-.52-.05-.52h.6zm-.56-1l.05.48-.05.48h.5v-.96z" stroke="#333" stroke-width=".05" fill="#333"/><path d="M862.88 400l-14.27 4.63v-9.26z" fill="#333"/><path d="M864.5 400l-16.4 5.32v-10.64zm-15.4 3.95l12.16-3.95-12.15-3.95z" stroke="#333" stroke-width=".05" fill="#333"/><use xlink:href="#e" transform="matrix(1,0,0,1,781.535430021537,383.8666666666667) translate(0.005000000000000782 21.511111111111102)"/><path d="M1183.36 348a8 8 0 0 1 8-8h144a8 8 0 0 1 8 8v104a8 8 0 0 1-8 8h-144a8 8 0 0 1-8-8z" stroke="#333" fill="#c7e8ac"/><use xlink:href="#l" transform="matrix(1,0,0,1,1195.3590985947249,352) translate(30.72901234567903 37.244444444444454)"/><use xlink:href="#m" transform="matrix(1,0,0,1,1195.3590985947249,352) translate(27.74135802469138 69.5111111111111)"/><path d="M1091.9 400.5h-72.54v-1h72.54zm74.57 0h-56.64v-1h56.64z" stroke="#333" stroke-width=".05" fill="#333"/><path d="M1019.38 400.5h-.55l.03-.5-.03-.5h.55z" fill="#333"/><path d="M1019.4 400.52h-.6l.04-.52-.04-.52h.6zm-.55-1l.04.48-.05.48h.5v-.96z" stroke="#333" stroke-width=".05" fill="#333"/><path d="M1181.24 400l-14.27 4.63v-9.26z" fill="#333"/><path d="M1182.86 400l-16.38 5.32v-10.64zm-15.38 3.95l12.14-3.95-12.14-3.95z" stroke="#333" stroke-width=".05" fill="#333"/><use xlink:href="#e" transform="matrix(1,0,0,1,1091.8988250808409,383.8666666666667) translate(0.005000000000000782 21.511111111111102)"/><path d="M935.4 559.28a10.18 10.18 0 0 1 12.57 0l89.1 70a6.3 6.3 0 0 1 0 9.9l-89.1 70a10.18 10.18 0 0 1-12.58 0l-89.1-70a6.3 6.3 0 0 1 0-9.9z" stroke="#333" fill="#fff"/><use xlink:href="#n" transform="matrix(1,0,0,1,871.5,585.8340057942695) translate(19.747222222222256 21.611111111111125)"/><use xlink:href="#o" transform="matrix(1,0,0,1,871.5,585.8340057942695) translate(106.31450617283949 21.611111111111125)"/><use xlink:href="#p" transform="matrix(1,0,0,1,871.5,585.8340057942695) translate(26.506790123456817 53.87777777777778)"/><use xlink:href="#q" transform="matrix(1,0,0,1,871.5,585.8340057942695) translate(86.18518518518518 53.87777777777778)"/><use xlink:href="#r" transform="matrix(1,0,0,1,871.5,585.8340057942695) translate(22.958950617283975 86.14444444444443)"/><path d="M942.18 540.22h-1v-7.24h1zm0-39.5h-1v-23.13h1z" stroke="#333" stroke-width=".05" fill="#333"/><path d="M941.68 477.1l.5-.05v.55h-1v-.55z" fill="#333"/><path d="M941.68 477.07l.53-.05v.6h-1.05v-.6zm-.47.5h.95v-.5l-.47.05-.47-.04z" stroke="#333" stroke-width=".05" fill="#333"/><path d="M941.68 554.98l-4.64-14.26h9.28z" fill="#333"/><path d="M941.68 556.6l-5.32-16.38H947zm-3.95-15.38l3.95 12.14 3.95-12.14z" stroke="#333" stroke-width=".05" fill="#333"/><use xlink:href="#g" transform="matrix(1,0,0,1,932.007018433165,500.71206653173476) translate(0.005000000000000782 21.511111111111102)"/><path d="M1275.13 534.6a11.42 11.42 0 0 1 13.1 0l126.9 88.86a5.6 5.6 0 0 1 0 9.18l-126.9 88.87a11.42 11.42 0 0 1-13.1 0l-126.9-88.86a5.6 5.6 0 0 1 0-9.18z" stroke="#333" fill="#fff"/><use xlink:href="#n" transform="matrix(1,0,0,1,1173.1795492973624,561.5) translate(20.476234567901287 56.244444444444454)"/><use xlink:href="#s" transform="matrix(1,0,0,1,1173.1795492973624,561.5) translate(107.04351851851851 56.244444444444454)"/><use xlink:href="#t" transform="matrix(1,0,0,1,1173.1795492973624,561.5) translate(129.4509259259259 56.244444444444454)"/><use xlink:href="#u" transform="matrix(1,0,0,1,1173.1795492973624,561.5) translate(5.015123456790178 88.5111111111111)"/><use xlink:href="#v" transform="matrix(1,0,0,1,1173.1795492973624,561.5) translate(49.829938271604966 88.5111111111111)"/><use xlink:href="#w" transform="matrix(1,0,0,1,1173.1795492973624,561.5) translate(85.60709876543211 88.5111111111111)"/><use xlink:href="#x" transform="matrix(1,0,0,1,1173.1795492973624,561.5) translate(116.90277777777777 88.5111111111111)"/><path d="M1520 576.05a8 8 0 0 1 8-8h154.55a8 8 0 0 1 8 8v104a8 8 0 0 1-8 8H1528a8 8 0 0 1-8-8z" stroke="#333" fill="#c7e8ac"/><use xlink:href="#l" transform="matrix(1,0,0,1,1532,580.047951114509) translate(36.22901234567903 37.244444444444454)"/><use xlink:href="#m" transform="matrix(1,0,0,1,1532,580.047951114509) translate(33.24135802469138 69.5111111111111)"/><path d="M1458.7 628.55h-42.4v-1h42.4zm44.42 0h-26.5v-1h26.5zM1416.3 628.55h-3.5v-1h3.5z" stroke="#333" stroke-width=".05" fill="#333"/><path d="M1517.88 628.05l-14.26 4.63v-9.27z" fill="#333"/><path d="M1519.5 628.05l-16.38 5.32v-10.65zm-15.38 3.95l12.14-3.95-12.14-3.95z" stroke="#333" stroke-width=".05" fill="#333"/><use xlink:href="#e" transform="matrix(1,0,0,1,1458.6876254153337,611.9146177811757) translate(0.005000000000000782 21.511111111111102)"/><path d="M1201.68 804.1a8 8 0 0 1 8-8h144a8 8 0 0 1 8 8v104a8 8 0 0 1-8 8h-144a8 8 0 0 1-8-8z" stroke="#333" fill="#ffbbb1"/><use xlink:href="#f" transform="matrix(1,0,0,1,1213.6795492973624,808.0959022290182) translate(29.98209876543212 53.37777777777778)"/><path d="M1282.18 779.2h-1V775h1zm0-36.46h-1v-20.1h1z" stroke="#333" stroke-width=".05" fill="#333"/><path d="M1282.18 722.66h-1v-3.5h1z" stroke="#333" stroke-width=".05" fill="#333"/><path d="M1281.68 793.98l-4.64-14.27h9.28z" fill="#333"/><path d="M1281.68 795.6l-5.32-16.4H1287zm-3.95-15.4l3.95 12.16 3.95-12.15z" stroke="#333" stroke-width=".05" fill="#333"/><use xlink:href="#g" transform="matrix(1,0,0,1,1272.0070184331648,742.7404402306123) translate(0.005000000000000782 21.511111111111102)"/><path d="M861.68 804.1a8 8 0 0 1 8-8h144a8 8 0 0 1 8 8v104a8 8 0 0 1-8 8h-144a8 8 0 0 1-8-8z" stroke="#333" fill="#ffbbb1"/><use xlink:href="#f" transform="matrix(1,0,0,1,873.6795492973624,808.0959022290182) translate(29.98209876543212 53.37777777777778)"/><path d="M942.18 779.2h-1v-9.34h1zm0-41.6h-1v-25.23h1z" stroke="#333" stroke-width=".05" fill="#333"/><path d="M941.68 711.87l.5-.03v.54h-1v-.54z" fill="#333"/><path d="M941.68 711.84l.53-.03v.6h-1.05v-.6zm-.47.52h.95v-.5l-.47.03-.47-.04z" stroke="#333" stroke-width=".05" fill="#333"/><path d="M941.68 793.98l-4.64-14.27h9.28z" fill="#333"/><path d="M941.68 795.6l-5.32-16.4H947zm-3.95-15.4l3.95 12.16 3.95-12.15z" stroke="#333" stroke-width=".05" fill="#333"/><use xlink:href="#g" transform="matrix(1,0,0,1,932.007018433165,737.5986163219944) translate(0.005000000000000782 21.511111111111102)"/><path d="M633.6 569.36a10.67 10.67 0 0 1 12.8 0l67.2 50.4a6 6 0 0 1 0 9.6l-67.2 50.4a10.67 10.67 0 0 1-12.8 0l-67.2-50.4a6 6 0 0 1 0-9.6z" stroke="#333" fill="#fff"/><use xlink:href="#y" transform="matrix(1,0,0,1,565,569.563913817557) translate(7.964506172839549 60.37777777777778)"/><path d="M640.5 550.35h-1V528.4h1zm0-54.2h-1v-37.82h1z" stroke="#333" stroke-width=".05" fill="#333"/><path d="M640 457.83l.5-.03v.55h-1v-.55z" fill="#333"/><path d="M640 457.8l.52-.03v.6h-1.04v-.6zm-.48.52h.96v-.5l-.48.04-.48-.03z" stroke="#333" stroke-width=".05" fill="#333"/><path d="M640 565.1l-4.63-14.25h9.26z" fill="#333"/><path d="M640 566.73l-5.32-16.38h10.64zm-3.95-15.38L640 563.5l3.95-12.15z" stroke="#333" stroke-width=".05" fill="#333"/><use xlink:href="#g" transform="matrix(1,0,0,1,630.3274691358025,496.1486235754452) translate(0.005000000000000782 21.511111111111102)"/><path d="M394.34 550.32a8 8 0 0 1 11.32 0l68.68 68.6a8 8 0 0 1 0 11.3l-68.68 68.6a8 8 0 0 1-11.32 0l-68.68-68.6a8 8 0 0 1 0-11.3z" stroke="#333" fill="#fff"/><use xlink:href="#i" transform="matrix(1,0,0,1,351.5,576.163913817557) translate(20.86419753086421 21.611111111111125)"/><use xlink:href="#j" transform="matrix(1,0,0,1,351.5,576.163913817557) translate(3.7225308641975587 53.87777777777778)"/><use xlink:href="#x" transform="matrix(1,0,0,1,351.5,576.163913817557) translate(0.9589506172839748 86.14444444444443)"/><path d="M511.38 625.06h-17.8v-1h17.8zm51.62 0h-33.7v-1H563z" stroke="#333" stroke-width=".05" fill="#333"/><path d="M563.5 624.56l.04.5H563v-1h.54z" fill="#333"/><path d="M563.52 624.56l.05.53h-.6v-1.06h.6zm-.5-.47v.94h.5l-.05-.48.05-.47z" stroke="#333" stroke-width=".05" fill="#333"/><path d="M493.07 629.2l-14.27-4.64 14.27-4.63z" fill="#333"/><path d="M493.57 629.9l-16.38-5.34 16.37-5.32zm-13.15-5.34l12.15 3.95v-7.88z" stroke="#333" stroke-width=".05" fill="#333"/><use xlink:href="#e" transform="matrix(1,0,0,1,511.3784187012184,608.4305804842237) translate(0.005000000000000782 21.511111111111102)"/><path d="M40 572.56a8 8 0 0 1 8-8h144a8 8 0 0 1 8 8v104a8 8 0 0 1-8 8H48a8 8 0 0 1-8-8z" stroke="#333" fill="#c7e8ac"/><use xlink:href="#l" transform="matrix(1,0,0,1,52,576.563913817557) translate(30.72901234567903 37.244444444444454)"/><use xlink:href="#m" transform="matrix(1,0,0,1,52,576.563913817557) translate(27.74135802469138 69.5111111111111)"/><path d="M252.7 625.06h-35.82v-1h35.81zm69.62 0h-51.7v-1h51.7z" stroke="#333" stroke-width=".05" fill="#333"/><path d="M322.8 624.56l.05.5h-.55v-1h.56z" fill="#333"/><path d="M322.84 624.56l.04.53h-.6v-1.06h.6zm-.5-.47v.94h.5l-.05-.48.03-.47z" stroke="#333" stroke-width=".05" fill="#333"/><path d="M216.38 629.2l-14.26-4.64 14.26-4.63z" fill="#333"/><path d="M216.88 629.9l-16.38-5.34 16.38-5.32zm-13.14-5.34l12.14 3.95v-7.88z" stroke="#333" stroke-width=".05" fill="#333"/><use xlink:href="#e" transform="matrix(1,0,0,1,252.6945729392767,608.4305804842237) translate(0.005000000000000782 21.511111111111102)"/><path d="M320 768a8 8 0 0 1 8-8h144a8 8 0 0 1 8 8v104a8 8 0 0 1-8 8H328a8 8 0 0 1-8-8z" stroke="#333" fill="#ffbbb1"/><use xlink:href="#f" transform="matrix(1,0,0,1,332,772) translate(29.98209876543212 53.37777777777778)"/><path d="M400.5 711.02h-1v-8.87h1z" stroke="#333" stroke-width=".05" fill="#333"/><path d="M400 701.65l.5-.03v.55h-1v-.55z" fill="#333"/><path d="M400 701.63l.52-.04v.6h-1.04v-.6zm-.48.5h.96v-.5l-.48.05-.48-.04z" stroke="#333" stroke-width=".05" fill="#333"/><path d="M400 757.88l-4.63-14.26h9.26z" fill="#333"/><path d="M400 759.5l-5.27-16.2h10.54zm-3.95-15.38l3.95 12.14 3.95-12.14z" stroke="#333" stroke-width=".05" fill="#333"/><use xlink:href="#g" transform="matrix(1,0,0,1,390.32746913580246,711.0210733718797) translate(0.005000000000000782 21.511111111111102)"/><path d="M633.6 984.8a10.67 10.67 0 0 1 12.8 0l67.2 50.4a6 6 0 0 1 0 9.6l-67.2 50.4a10.67 10.67 0 0 1-12.8 0l-67.2-50.4a6 6 0 0 1 0-9.6z" stroke="#333" fill="#fff"/><use xlink:href="#z" transform="matrix(1,0,0,1,565,985) translate(19.09351851851855 60.37777777777778)"/><path d="M640.5 965.78h-1V848.4h1zm0-149.63h-1V682.9h1z" stroke="#333" stroke-width=".05" fill="#333"/><path d="M640 682.4l.5-.03v.54h-1v-.53z" fill="#333"/><path d="M640 682.37l.52-.03v.6h-1.04v-.6zm-.48.52h.96v-.5l-.48.02-.48-.03z" stroke="#333" stroke-width=".05" fill="#333"/><path d="M640 980.55l-4.63-14.27h9.26z" fill="#333"/><path d="M640 982.17l-5.32-16.4h10.64zm-3.95-15.4l3.95 12.16 3.95-12.15z" stroke="#333" stroke-width=".05" fill="#333"/><use xlink:href="#g" transform="matrix(1,0,0,1,630.3274691358025,816.1486235754452) translate(0.005000000000000782 21.511111111111102)"/><path d="M393.92 957.18a9.36 9.36 0 0 1 12.16 0l90.8 77.62a6.84 6.84 0 0 1 0 10.4l-90.8 77.62a9.36 9.36 0 0 1-12.16 0l-90.8-77.62a6.84 6.84 0 0 1 0-10.4z" stroke="#333" fill="#fff"/><use xlink:href="#A" transform="matrix(1,0,0,1,328.53869993145844,983.4833333333333) translate(22.241049382716078 21.511111111111102)"/><use xlink:href="#B" transform="matrix(1,0,0,1,328.53869993145844,983.4833333333333) translate(75.94413580246913 21.511111111111102)"/><use xlink:href="#C" transform="matrix(1,0,0,1,328.53869993145844,983.4833333333333) translate(30.49444444444447 53.77777777777776)"/><use xlink:href="#b" transform="matrix(1,0,0,1,328.53869993145844,983.4833333333333) translate(3.605555555555611 86.04444444444441)"/><use xlink:href="#c" transform="matrix(1,0,0,1,328.53869993145844,983.4833333333333) translate(87.18518518518518 86.04444444444441)"/><use xlink:href="#d" transform="matrix(1,0,0,1,328.53869993145844,983.4833333333333) translate(55.85216049382717 118.31111111111106)"/><path d="M522.1 1040.5h-7.08v-1h7.1zm40.9 0h-22.97v-1H563z" stroke="#333" stroke-width=".05" fill="#333"/><path d="M563.5 1040l.04.5H563v-1h.54z" fill="#333"/><path d="M563.52 1040l.05.53h-.6v-1.06h.6zm-.5-.47v.94h.5l-.05-.47.05-.47z" stroke="#333" stroke-width=".05" fill="#333"/><path d="M514.52 1044.63l-14.26-4.63 14.26-4.63z" fill="#333"/><path d="M515.02 1045.32l-16.38-5.32 16.38-5.32zm-13.15-5.32l12.15 3.95v-7.9z" stroke="#333" stroke-width=".05" fill="#333"/><use xlink:href="#e" transform="matrix(1,0,0,1,522.1050223979082,1023.8666666666667) translate(0.005000000000000782 21.511111111111102)"/><path d="M560 1208a8 8 0 0 1 8-8h144a8 8 0 0 1 8 8v104a8 8 0 0 1-8 8H568a8 8 0 0 1-8-8z" stroke="#333" fill="#ffbbb1"/><use xlink:href="#f" transform="matrix(1,0,0,1,572,1212) translate(29.98209876543212 53.37777777777778)"/><path d="M640.5 1183.12h-1v-24.33h1zm0-56.6h-1v-28.2h1z" stroke="#333" stroke-width=".05" fill="#333"/><path d="M640 1097.83l.5-.03v.55h-1v-.55z" fill="#333"/><path d="M640 1097.8l.52-.02v.6h-1.04v-.6zm-.48.52h.96v-.5l-.48.04-.48-.03z" stroke="#333" stroke-width=".05" fill="#333"/><path d="M640 1197.88l-4.63-14.26h9.26z" fill="#333"/><path d="M640 1199.5l-5.32-16.38h10.64zm-3.95-15.38l3.95 12.14 3.95-12.14z" stroke="#333" stroke-width=".05" fill="#333"/><g><use xlink:href="#g" transform="matrix(1,0,0,1,630.3274691358025,1126.5179018235435) translate(0.005000000000000782 21.511111111111102)"/></g><path d="M52.93 988a8 8 0 0 1 8-8h144a8 8 0 0 1 8 8v104a8 8 0 0 1-8 8h-144a8 8 0 0 1-8-8z" stroke="#333" fill="#c7e8ac"/><g><use xlink:href="#l" transform="matrix(1,0,0,1,64.93090696116337,992) translate(30.72901234567903 37.244444444444454)"/><use xlink:href="#m" transform="matrix(1,0,0,1,64.93090696116337,992) translate(27.74135802469138 69.5111111111111)"/></g><path d="M248.43 1040.5H229.8v-1h18.63zm52.43 0h-34.5v-1h34.5zM304.36 1040.5h-3.5v-1h3.5z" stroke="#333" stroke-width=".05" fill="#333"/><path d="M229.3 1044.63l-14.25-4.63 14.26-4.63z" fill="#333"/><path d="M229.8 1045.32l-16.37-5.32 16.38-5.32zM216.7 1040l12.15 3.95v-7.9z" stroke="#333" stroke-width=".05" fill="#333"/><g><use xlink:href="#e" transform="matrix(1,0,0,1,248.4334227231686,1023.8666666666667) translate(0.005000000000000782 21.511111111111102)"/></g><path d="M320 1208a8 8 0 0 1 8-8h144a8 8 0 0 1 8 8v104a8 8 0 0 1-8 8H328a8 8 0 0 1-8-8z" stroke="#333" fill="#ffbbb1"/><g><use xlink:href="#f" transform="matrix(1,0,0,1,332,1212) translate(29.98209876543212 53.37777777777778)"/></g><path d="M400.5 1183.12h-1v-9.44h1zm0-41.7h-1v-16.44h1z" stroke="#333" stroke-width=".05" fill="#333"/><path d="M400.5 1125h-1v-3.52h1z" stroke="#333" stroke-width=".05" fill="#333"/><path d="M400 1197.88l-4.63-14.26h9.26z" fill="#333"/><path d="M400 1199.5l-5.32-16.38h10.64zm-3.95-15.38l3.95 12.14 3.95-12.14z" stroke="#333" stroke-width=".05" fill="#333"/><g><use xlink:href="#g" transform="matrix(1,0,0,1,390.32746913580246,1141.415164577193) translate(0.005000000000000782 21.511111111111102)"/></g><path d="M1085.84 634.73h-45.37v-1h45.37zm47.42 0h-29.5v-1h29.5z" stroke="#333" stroke-width=".05" fill="#333"/><path d="M1040.5 634.73h-.57l.04-.5-.04-.5h.56z" fill="#333"/><path d="M1040.5 634.76h-.6l.05-.53-.05-.52h.6zm-.55-1l.05.47-.05.48h.5v-.94z" stroke="#333" stroke-width=".05" fill="#333"/><path d="M1148.02 634.23l-14.26 4.64v-9.27z" fill="#333"/><path d="M1149.64 634.23l-16.38 5.33V628.9zm-15.38 3.95l12.14-3.95-12.14-3.94z" stroke="#333" stroke-width=".05" fill="#333"/><g><use xlink:href="#D" transform="matrix(1,0,0,1,1085.8440058919152,618.1006724609362) translate(0.005000000000000782 21.511111111111106)"/></g><defs><path fill="#333" d="M30 0v-248h187v28H63v79h144v27H63v87h162V0H30" id="E"/><path fill="#333" d="M24-231v-30h32v30H24zM24 0v-190h32V0H24" id="F"/><path fill="#333" d="M59-47c-2 24 18 29 38 22v24C64 9 27 4 27-40v-127H5v-23h24l9-43h21v43h35v23H59v120" id="G"/><path fill="#333" d="M106-169C34-169 62-67 57 0H25v-261h32l-1 103c12-21 28-36 61-36 89 0 53 116 60 194h-32v-121c2-32-8-49-39-48" id="H"/><path fill="#333" d="M100-194c63 0 86 42 84 106H49c0 40 14 67 53 68 26 1 43-12 49-29l28 8c-11 28-37 45-77 45C44 4 14-33 15-96c1-61 26-98 85-98zm52 81c6-60-76-77-97-28-3 7-6 17-6 28h103" id="I"/><path fill="#333" d="M114-163C36-179 61-72 57 0H25l-1-190h30c1 12-1 29 2 39 6-27 23-49 58-41v29" id="J"/><g id="a"><use transform="matrix(0.07469135802469132,0,0,0.07469135802469132,0,0)" xlink:href="#E"/><use transform="matrix(0.07469135802469132,0,0,0.07469135802469132,17.925925925925917,0)" xlink:href="#F"/><use transform="matrix(0.07469135802469132,0,0,0.07469135802469132,23.82654320987653,0)" xlink:href="#G"/><use transform="matrix(0.07469135802469132,0,0,0.07469135802469132,31.295679012345662,0)" xlink:href="#H"/><use transform="matrix(0.07469135802469132,0,0,0.07469135802469132,46.233950617283924,0)" xlink:href="#I"/><use transform="matrix(0.07469135802469132,0,0,0.07469135802469132,61.17222222222219,0)" xlink:href="#J"/></g><path fill="#333" d="M115-194c55 1 70 41 70 98S169 2 115 4C84 4 66-9 55-30l1 105H24l-1-265h31l2 30c10-21 28-34 59-34zm-8 174c40 0 45-34 45-75s-6-73-45-74c-42 0-51 32-51 76 0 43 10 73 51 73" id="K"/><path fill="#333" d="M141-36C126-15 110 5 73 4 37 3 15-17 15-53c-1-64 63-63 125-63 3-35-9-54-41-54-24 1-41 7-42 31l-33-3c5-37 33-52 76-52 45 0 72 20 72 64v82c-1 20 7 32 28 27v20c-31 9-61-2-59-35zM48-53c0 20 12 33 32 33 41-3 63-29 60-74-43 2-92-5-92 41" id="L"/><path fill="#333" d="M117-194c89-4 53 116 60 194h-32v-121c0-31-8-49-39-48C34-167 62-67 57 0H25l-1-190h30c1 10-1 24 2 32 11-22 29-35 61-36" id="M"/><g id="b"><use transform="matrix(0.07469135802469132,0,0,0.07469135802469132,0,0)" xlink:href="#K"/><use transform="matrix(0.07469135802469132,0,0,0.07469135802469132,14.938271604938263,0)" xlink:href="#L"/><use transform="matrix(0.07469135802469132,0,0,0.07469135802469132,29.876543209876527,0)" xlink:href="#J"/><use transform="matrix(0.07469135802469132,0,0,0.07469135802469132,38.76481481481479,0)" xlink:href="#I"/><use transform="matrix(0.07469135802469132,0,0,0.07469135802469132,53.703086419753056,0)" xlink:href="#M"/><use transform="matrix(0.07469135802469132,0,0,0.07469135802469132,68.64135802469131,0)" xlink:href="#G"/></g><path fill="#333" d="M100-194c62-1 85 37 85 99 1 63-27 99-86 99S16-35 15-95c0-66 28-99 85-99zM99-20c44 1 53-31 53-75 0-43-8-75-51-75s-53 32-53 75 10 74 51 75" id="N"/><path fill="#333" d="M210-169c-67 3-38 105-44 169h-31v-121c0-29-5-50-35-48C34-165 62-65 56 0H25l-1-190h30c1 10-1 24 2 32 10-44 99-50 107 0 11-21 27-35 58-36 85-2 47 119 55 194h-31v-121c0-29-5-49-35-48" id="O"/><g id="c"><use transform="matrix(0.07469135802469132,0,0,0.07469135802469132,0,0)" xlink:href="#H"/><use transform="matrix(0.07469135802469132,0,0,0.07469135802469132,14.938271604938263,0)" xlink:href="#N"/><use transform="matrix(0.07469135802469132,0,0,0.07469135802469132,29.876543209876527,0)" xlink:href="#O"/></g><path fill="#333" d="M101-234c-31-9-42 10-38 44h38v23H63V0H32v-167H5v-23h27c-7-52 17-82 69-68v24" id="P"/><g id="d"><use transform="matrix(0.07469135802469132,0,0,0.07469135802469132,0,0)" xlink:href="#J"/><use transform="matrix(0.07469135802469132,0,0,0.07469135802469132,8.888271604938266,0)" xlink:href="#I"/><use transform="matrix(0.07469135802469132,0,0,0.07469135802469132,23.82654320987653,0)" xlink:href="#P"/></g><path fill="#333" d="M137-103V0h-34v-103L8-248h37l75 118 75-118h37" id="Q"/><use transform="matrix(0.07469135802469132,0,0,0.07469135802469132,0,0)" xlink:href="#Q" id="e"/><path fill="#333" d="M233-177c-1 41-23 64-60 70L243 0h-38l-65-103H63V0H30v-248c88 3 205-21 203 71zM63-129c60-2 137 13 137-47 0-61-80-42-137-45v92" id="R"/><path fill="#333" d="M24-231v-30h32v30H24zM-9 49c24 4 33-6 33-30v-209h32V24c2 40-23 58-65 49V49" id="S"/><path fill="#333" d="M96-169c-40 0-48 33-48 73s9 75 48 75c24 0 41-14 43-38l32 2c-6 37-31 61-74 61-59 0-76-41-82-99-10-93 101-131 147-64 4 7 5 14 7 22l-32 3c-4-21-16-35-41-35" id="T"/><g id="f"><use transform="matrix(0.07469135802469132,0,0,0.07469135802469132,0,0)" xlink:href="#R"/><use transform="matrix(0.07469135802469132,0,0,0.07469135802469132,19.345061728395052,0)" xlink:href="#I"/><use transform="matrix(0.07469135802469132,0,0,0.07469135802469132,34.28333333333332,0)" xlink:href="#S"/><use transform="matrix(0.07469135802469132,0,0,0.07469135802469132,40.18395061728394,0)" xlink:href="#I"/><use transform="matrix(0.07469135802469132,0,0,0.07469135802469132,55.1222222222222,0)" xlink:href="#T"/><use transform="matrix(0.07469135802469132,0,0,0.07469135802469132,68.56666666666663,0)" xlink:href="#G"/></g><path fill="#333" d="M190 0L58-211 59 0H30v-248h39L202-35l-2-213h31V0h-41" id="U"/><use transform="matrix(0.07469135802469132,0,0,0.07469135802469132,0,0)" xlink:href="#U" id="g"/><path fill="#333" d="M160-131c35 5 61 23 61 61C221 17 115-2 30 0v-248c76 3 177-17 177 60 0 33-19 50-47 57zm-97-11c50-1 110 9 110-42 0-47-63-36-110-37v79zm0 115c55-2 124 14 124-45 0-56-70-42-124-44v89" id="V"/><path fill="#333" d="M24 0v-261h32V0H24" id="W"/><g id="h"><use transform="matrix(0.07469135802469132,0,0,0.07469135802469132,0,0)" xlink:href="#V"/><use transform="matrix(0.07469135802469132,0,0,0.07469135802469132,17.925925925925917,0)" xlink:href="#F"/><use transform="matrix(0.07469135802469132,0,0,0.07469135802469132,23.82654320987653,0)" xlink:href="#L"/><use transform="matrix(0.07469135802469132,0,0,0.07469135802469132,38.76481481481479,0)" xlink:href="#W"/><use transform="matrix(0.07469135802469132,0,0,0.07469135802469132,44.66543209876541,0)" xlink:href="#W"/><use transform="matrix(0.07469135802469132,0,0,0.07469135802469132,50.566049382716024,0)" xlink:href="#I"/><use transform="matrix(0.07469135802469132,0,0,0.07469135802469132,65.50432098765428,0)" xlink:href="#W"/><use transform="matrix(0.07469135802469132,0,0,0.07469135802469132,71.40493827160489,0)" xlink:href="#F"/><use transform="matrix(0.07469135802469132,0,0,0.07469135802469132,77.3055555555555,0)" xlink:href="#T"/></g><g id="i"><use transform="matrix(0.07469135802469132,0,0,0.07469135802469132,0,0)" xlink:href="#V"/><use transform="matrix(0.07469135802469132,0,0,0.07469135802469132,17.925925925925917,0)" xlink:href="#N"/><use transform="matrix(0.07469135802469132,0,0,0.07469135802469132,32.86419753086418,0)" xlink:href="#G"/><use transform="matrix(0.07469135802469132,0,0,0.07469135802469132,40.333333333333314,0)" xlink:href="#H"/></g><path fill="#333" d="M135-143c-3-34-86-38-87 0 15 53 115 12 119 90S17 21 10-45l28-5c4 36 97 45 98 0-10-56-113-15-118-90-4-57 82-63 122-42 12 7 21 19 24 35" id="X"/><g id="j"><use transform="matrix(0.07469135802469132,0,0,0.07469135802469132,0,0)" xlink:href="#K"/><use transform="matrix(0.07469135802469132,0,0,0.07469135802469132,14.938271604938263,0)" xlink:href="#L"/><use transform="matrix(0.07469135802469132,0,0,0.07469135802469132,29.876543209876527,0)" xlink:href="#J"/><use transform="matrix(0.07469135802469132,0,0,0.07469135802469132,38.76481481481479,0)" xlink:href="#I"/><use transform="matrix(0.07469135802469132,0,0,0.07469135802469132,53.703086419753056,0)" xlink:href="#M"/><use transform="matrix(0.07469135802469132,0,0,0.07469135802469132,68.64135802469131,0)" xlink:href="#G"/><use transform="matrix(0.07469135802469132,0,0,0.07469135802469132,76.11049382716044,0)" xlink:href="#X"/></g><g id="k"><use transform="matrix(0.07469135802469132,0,0,0.07469135802469132,0,0)" xlink:href="#H"/><use transform="matrix(0.07469135802469132,0,0,0.07469135802469132,14.938271604938263,0)" xlink:href="#I"/><use transform="matrix(0.07469135802469132,0,0,0.07469135802469132,29.876543209876527,0)" xlink:href="#G"/></g><path fill="#333" d="M185-189c-5-48-123-54-124 2 14 75 158 14 163 119 3 78-121 87-175 55-17-10-28-26-33-46l33-7c5 56 141 63 141-1 0-78-155-14-162-118-5-82 145-84 179-34 5 7 8 16 11 25" id="Y"/><path fill="#333" d="M177-190C167-65 218 103 67 71c-23-6-38-20-44-43l32-5c15 47 100 32 89-28v-30C133-14 115 1 83 1 29 1 15-40 15-95c0-56 16-97 71-98 29-1 48 16 59 35 1-10 0-23 2-32h30zM94-22c36 0 50-32 50-73 0-42-14-75-50-75-39 0-46 34-46 75s6 73 46 73" id="Z"/><g id="l"><use transform="matrix(0.07469135802469132,0,0,0.07469135802469132,0,0)" xlink:href="#Y"/><use transform="matrix(0.07469135802469132,0,0,0.07469135802469132,17.925925925925917,0)" xlink:href="#F"/><use transform="matrix(0.07469135802469132,0,0,0.07469135802469132,23.82654320987653,0)" xlink:href="#M"/><use transform="matrix(0.07469135802469132,0,0,0.07469135802469132,38.76481481481479,0)" xlink:href="#Z"/><use transform="matrix(0.07469135802469132,0,0,0.07469135802469132,53.703086419753056,0)" xlink:href="#W"/><use transform="matrix(0.07469135802469132,0,0,0.07469135802469132,59.60370370370367,0)" xlink:href="#I"/></g><path fill="#333" d="M108 0H70L1-190h34L89-25l56-165h34" id="aa"/><g id="m"><use transform="matrix(0.07469135802469132,0,0,0.07469135802469132,0,0)" xlink:href="#aa"/><use transform="matrix(0.07469135802469132,0,0,0.07469135802469132,13.444444444444438,0)" xlink:href="#L"/><use transform="matrix(0.07469135802469132,0,0,0.07469135802469132,28.3827160493827,0)" xlink:href="#J"/><use transform="matrix(0.07469135802469132,0,0,0.07469135802469132,37.27098765432097,0)" xlink:href="#F"/><use transform="matrix(0.07469135802469132,0,0,0.07469135802469132,43.171604938271585,0)" xlink:href="#L"/><use transform="matrix(0.07469135802469132,0,0,0.07469135802469132,58.10987654320985,0)" xlink:href="#M"/><use transform="matrix(0.07469135802469132,0,0,0.07469135802469132,73.04814814814812,0)" xlink:href="#G"/></g><path fill="#333" d="M30-248c87 1 191-15 191 75 0 78-77 80-158 76V0H30v-248zm33 125c57 0 124 11 124-50 0-59-68-47-124-48v98" id="ab"/><g id="n"><use transform="matrix(0.07469135802469132,0,0,0.07469135802469132,0,0)" xlink:href="#ab"/><use transform="matrix(0.07469135802469132,0,0,0.07469135802469132,17.925925925925917,0)" xlink:href="#L"/><use transform="matrix(0.07469135802469132,0,0,0.07469135802469132,32.86419753086418,0)" xlink:href="#J"/><use transform="matrix(0.07469135802469132,0,0,0.07469135802469132,41.75246913580245,0)" xlink:href="#I"/><use transform="matrix(0.07469135802469132,0,0,0.07469135802469132,56.69074074074072,0)" xlink:href="#M"/><use transform="matrix(0.07469135802469132,0,0,0.07469135802469132,71.62901234567897,0)" xlink:href="#G"/></g><path fill="#333" d="M27 0v-27h64v-190l-56 39v-29l58-41h29v221h61V0H27" id="ac"/><use transform="matrix(0.07469135802469132,0,0,0.07469135802469132,0,0)" xlink:href="#ac" id="o"/><g id="p"><use transform="matrix(0.07469135802469132,0,0,0.07469135802469132,0,0)" xlink:href="#H"/><use transform="matrix(0.07469135802469132,0,0,0.07469135802469132,14.938271604938263,0)" xlink:href="#N"/><use transform="matrix(0.07469135802469132,0,0,0.07469135802469132,29.876543209876527,0)" xlink:href="#O"/></g><g id="q"><use transform="matrix(0.07469135802469132,0,0,0.07469135802469132,0,0)" xlink:href="#L"/><use transform="matrix(0.07469135802469132,0,0,0.07469135802469132,14.938271604938263,0)" xlink:href="#W"/><use transform="matrix(0.07469135802469132,0,0,0.07469135802469132,20.838888888888878,0)" xlink:href="#G"/></g><path fill="#333" d="M85-194c31 0 48 13 60 33l-1-100h32l1 261h-30c-2-10 0-23-3-31C134-8 116 4 85 4 32 4 16-35 15-94c0-66 23-100 70-100zm9 24c-40 0-46 34-46 75 0 40 6 74 45 74 42 0 51-32 51-76 0-42-9-74-50-73" id="ad"/><g id="r"><use transform="matrix(0.07469135802469132,0,0,0.07469135802469132,0,0)" xlink:href="#L"/><use transform="matrix(0.07469135802469132,0,0,0.07469135802469132,14.938271604938263,0)" xlink:href="#P"/><use transform="matrix(0.07469135802469132,0,0,0.07469135802469132,21.884567901234558,0)" xlink:href="#P"/><use transform="matrix(0.07469135802469132,0,0,0.07469135802469132,29.353703703703687,0)" xlink:href="#I"/><use transform="matrix(0.07469135802469132,0,0,0.07469135802469132,44.29197530864195,0)" xlink:href="#T"/><use transform="matrix(0.07469135802469132,0,0,0.07469135802469132,57.73641975308639,0)" xlink:href="#G"/><use transform="matrix(0.07469135802469132,0,0,0.07469135802469132,65.20555555555552,0)" xlink:href="#I"/><use transform="matrix(0.07469135802469132,0,0,0.07469135802469132,80.14382716049379,0)" xlink:href="#ad"/></g><path fill="#333" d="M101-251c82-7 93 87 43 132L82-64C71-53 59-42 53-27h129V0H18c2-99 128-94 128-182 0-28-16-43-45-43s-46 15-49 41l-32-3c6-41 34-60 81-64" id="ae"/><use transform="matrix(0.07469135802469132,0,0,0.07469135802469132,0,0)" xlink:href="#ae" id="s"/><g id="t"><use transform="matrix(0.07469135802469132,0,0,0.07469135802469132,0,0)" xlink:href="#I"/><use transform="matrix(0.07469135802469132,0,0,0.07469135802469132,14.938271604938263,0)" xlink:href="#F"/><use transform="matrix(0.07469135802469132,0,0,0.07469135802469132,20.838888888888878,0)" xlink:href="#G"/><use transform="matrix(0.07469135802469132,0,0,0.07469135802469132,28.30802469135801,0)" xlink:href="#H"/><use transform="matrix(0.07469135802469132,0,0,0.07469135802469132,43.24629629629627,0)" xlink:href="#I"/><use transform="matrix(0.07469135802469132,0,0,0.07469135802469132,58.18456790123454,0)" xlink:href="#J"/></g><g id="u"><use transform="matrix(0.07469135802469132,0,0,0.07469135802469132,0,0)" xlink:href="#M"/><use transform="matrix(0.07469135802469132,0,0,0.07469135802469132,14.938271604938263,0)" xlink:href="#N"/><use transform="matrix(0.07469135802469132,0,0,0.07469135802469132,29.876543209876527,0)" xlink:href="#G"/></g><g id="v"><use transform="matrix(0.07469135802469132,0,0,0.07469135802469132,0,0)" xlink:href="#L"/><use transform="matrix(0.07469135802469132,0,0,0.07469135802469132,14.938271604938263,0)" xlink:href="#W"/><use transform="matrix(0.07469135802469132,0,0,0.07469135802469132,20.838888888888878,0)" xlink:href="#G"/></g><g id="w"><use transform="matrix(0.07469135802469132,0,0,0.07469135802469132,0,0)" xlink:href="#N"/><use transform="matrix(0.07469135802469132,0,0,0.07469135802469132,14.938271604938263,0)" xlink:href="#J"/></g><g id="x"><use transform="matrix(0.07469135802469132,0,0,0.07469135802469132,0,0)" xlink:href="#L"/><use transform="matrix(0.07469135802469132,0,0,0.07469135802469132,14.938271604938263,0)" xlink:href="#P"/><use transform="matrix(0.07469135802469132,0,0,0.07469135802469132,21.884567901234558,0)" xlink:href="#P"/><use transform="matrix(0.07469135802469132,0,0,0.07469135802469132,29.353703703703687,0)" xlink:href="#I"/><use transform="matrix(0.07469135802469132,0,0,0.07469135802469132,44.29197530864195,0)" xlink:href="#T"/><use transform="matrix(0.07469135802469132,0,0,0.07469135802469132,57.73641975308639,0)" xlink:href="#G"/><use transform="matrix(0.07469135802469132,0,0,0.07469135802469132,65.20555555555552,0)" xlink:href="#I"/><use transform="matrix(0.07469135802469132,0,0,0.07469135802469132,80.14382716049379,0)" xlink:href="#ad"/></g><path fill="#333" d="M240 0l2-218c-23 76-54 145-80 218h-23L58-218 59 0H30v-248h44l77 211c21-75 51-140 76-211h43V0h-30" id="af"/><g id="y"><use transform="matrix(0.07469135802469132,0,0,0.07469135802469132,0,0)" xlink:href="#af"/><use transform="matrix(0.07469135802469132,0,0,0.07469135802469132,22.332716049382704,0)" xlink:href="#N"/><use transform="matrix(0.07469135802469132,0,0,0.07469135802469132,37.27098765432097,0)" xlink:href="#M"/><use transform="matrix(0.07469135802469132,0,0,0.07469135802469132,52.209259259259234,0)" xlink:href="#N"/><use transform="matrix(0.07469135802469132,0,0,0.07469135802469132,67.14753086419749,0)" xlink:href="#L"/><use transform="matrix(0.07469135802469132,0,0,0.07469135802469132,82.08580246913576,0)" xlink:href="#W"/><use transform="matrix(0.07469135802469132,0,0,0.07469135802469132,87.98641975308637,0)" xlink:href="#W"/><use transform="matrix(0.07469135802469132,0,0,0.07469135802469132,93.88703703703698,0)" xlink:href="#I"/><use transform="matrix(0.07469135802469132,0,0,0.07469135802469132,108.82530864197523,0)" xlink:href="#W"/><use transform="matrix(0.07469135802469132,0,0,0.07469135802469132,114.72592592592585,0)" xlink:href="#F"/><use transform="matrix(0.07469135802469132,0,0,0.07469135802469132,120.62654320987646,0)" xlink:href="#T"/></g><path fill="#333" d="M33 0v-248h34V0H33" id="ag"/><g id="z"><use transform="matrix(0.07469135802469132,0,0,0.07469135802469132,0,0)" xlink:href="#ag"/><use transform="matrix(0.07469135802469132,0,0,0.07469135802469132,7.469135802469132,0)" xlink:href="#O"/><use transform="matrix(0.07469135802469132,0,0,0.07469135802469132,29.801851851851836,0)" xlink:href="#K"/><use transform="matrix(0.07469135802469132,0,0,0.07469135802469132,44.7401234567901,0)" xlink:href="#J"/><use transform="matrix(0.07469135802469132,0,0,0.07469135802469132,53.62839506172837,0)" xlink:href="#F"/><use transform="matrix(0.07469135802469132,0,0,0.07469135802469132,59.529012345678986,0)" xlink:href="#M"/><use transform="matrix(0.07469135802469132,0,0,0.07469135802469132,74.46728395061724,0)" xlink:href="#G"/><use transform="matrix(0.07469135802469132,0,0,0.07469135802469132,81.93641975308637,0)" xlink:href="#I"/><use transform="matrix(0.07469135802469132,0,0,0.07469135802469132,96.87469135802463,0)" xlink:href="#ad"/></g><path fill="#333" d="M30 0v-248h33v221h125V0H30" id="ah"/><path fill="#333" d="M63-220v92h138v28H63V0H30v-248h175v28H63" id="ai"/><g id="A"><use transform="matrix(0.07469135802469132,0,0,0.07469135802469132,0,0)" xlink:href="#ah"/><use transform="matrix(0.07469135802469132,0,0,0.07469135802469132,14.938271604938263,0)" xlink:href="#N"/><use transform="matrix(0.07469135802469132,0,0,0.07469135802469132,29.876543209876527,0)" xlink:href="#ai"/></g><g id="B"><use transform="matrix(0.07469135802469132,0,0,0.07469135802469132,0,0)" xlink:href="#L"/><use transform="matrix(0.07469135802469132,0,0,0.07469135802469132,14.938271604938263,0)" xlink:href="#M"/><use transform="matrix(0.07469135802469132,0,0,0.07469135802469132,29.876543209876527,0)" xlink:href="#ad"/></g><g id="C"><use transform="matrix(0.07469135802469132,0,0,0.07469135802469132,0,0)" xlink:href="#M"/><use transform="matrix(0.07469135802469132,0,0,0.07469135802469132,14.938271604938263,0)" xlink:href="#I"/><use transform="matrix(0.07469135802469132,0,0,0.07469135802469132,29.876543209876527,0)" xlink:href="#F"/><use transform="matrix(0.07469135802469132,0,0,0.07469135802469132,35.77716049382714,0)" xlink:href="#G"/><use transform="matrix(0.07469135802469132,0,0,0.07469135802469132,43.24629629629627,0)" xlink:href="#H"/><use transform="matrix(0.07469135802469132,0,0,0.07469135802469132,58.18456790123454,0)" xlink:href="#I"/><use transform="matrix(0.07469135802469132,0,0,0.07469135802469132,73.1228395061728,0)" xlink:href="#J"/></g><use transform="matrix(0.07469135802469135,0,0,0.07469135802469135,0,0)" xlink:href="#Q" id="D"/></defs></g></svg>