<svg xmlns="http://www.w3.org/2000/svg" xmlns:xlink="http://www.w3.org/1999/xlink" xmlns:lucid="lucid" width="1760" height="1360"><g transform="translate(0 0)" lucid:page-tab-id="0_0"><path d="M674.3 185.62a8.1 8.1 0 0 1 11.4 0l68.6 67.65a7.9 7.9 0 0 1 0 11.23l-68.6 67.65a8.1 8.1 0 0 1-11.4 0l-68.6-67.65a7.9 7.9 0 0 1 0-11.23z" stroke="#333" fill="#fff"/><use xlink:href="#a" transform="matrix(1,0,0,1,631.5,211.5) translate(0.7722222222222399 36.74444444444445)"/><use xlink:href="#b" transform="matrix(1,0,0,1,631.5,211.5) translate(26.167283950617296 36.74444444444445)"/><use xlink:href="#c" transform="matrix(1,0,0,1,631.5,211.5) translate(-6.6969135802469 69.0111111111111)"/><path d="M880 203.6a8 8 0 0 1 8-8h144a8 8 0 0 1 8 8v104a8 8 0 0 1-8 8H888a8 8 0 0 1-8-8z" stroke="#333" fill="#c7e8ac"/><use xlink:href="#d" transform="matrix(1,0,0,1,892,207.59150335150525) translate(29.94475308641976 37.24444444444445)"/><use xlink:href="#e" transform="matrix(1,0,0,1,892,207.59150335150525) translate(27.741358024691365 69.5111111111111)"/><path d="M791.53 259.38h-33.88v-1h33.88zm71.6 0H809.45v-1h53.65z" stroke="#333" stroke-width=".05" fill="#333"/><path d="M757.67 259.38h-.55l.03-.5-.03-.5h.55z" fill="#333"/><path d="M757.7 259.4h-.6l.03-.52-.04-.52h.6zm-.56-1l.04.48-.04.48h.5v-.95z" stroke="#333" stroke-width=".05" fill="#333"/><path d="M877.88 258.88l-14.26 4.64v-9.27z" fill="#333"/><path d="M879.5 258.88l-16.38 5.33v-10.64zm-15.38 3.95l12.14-3.95-12.14-3.94z" stroke="#333" stroke-width=".05" fill="#333"/><use xlink:href="#f" transform="matrix(1,0,0,1,791.5299330898548,242.75) translate(0.005000000000000782 21.511111111111106)"/><path d="M673.4 440.62a11.62 11.62 0 0 1 13.2 0l76.8 52.9a5.5 5.5 0 0 1 0 9.06l-76.8 52.88a11.62 11.62 0 0 1-13.2 0l-76.8-52.88a5.5 5.5 0 0 1 0-9.07z" stroke="#333" fill="#fff"/><use xlink:href="#g" transform="matrix(1,0,0,1,595,441.0857435197818) translate(11.167592592592598 62.37777777777778)"/><path d="M680.5 421.7h-1v-19.04h1zm0-51.3h-1v-34.9h1z" stroke="#333" stroke-width=".05" fill="#333"/><path d="M680 335l.5-.05v.55h-1v-.55z" fill="#333"/><path d="M680 334.96l.52-.04v.6h-1.04v-.6zm-.48.52h.96v-.5l-.48.03-.48-.02z" stroke="#333" stroke-width=".05" fill="#333"/><path d="M680 436.45l-4.63-14.26h9.26z" fill="#333"/><path d="M680 438.07l-5.32-16.38h10.64zm-3.95-15.38l3.95 12.14 3.95-12.15z" stroke="#333" stroke-width=".05" fill="#333"/><use xlink:href="#h" transform="matrix(1,0,0,1,670.3274691358025,370.39647718884754) translate(0.005000000000000782 21.511111111111106)"/><path d="M953.6 442.84a10.67 10.67 0 0 1 12.8 0l67.2 50.4a6 6 0 0 1 0 9.6l-67.2 50.4a10.67 10.67 0 0 1-12.8 0l-67.2-50.4a6 6 0 0 1 0-9.6z" stroke="#333" fill="#fff"/><use xlink:href="#i" transform="matrix(1,0,0,1,885,443.0428717598909) translate(22.08117283950618 60.37777777777778)"/><use xlink:href="#j" transform="matrix(1,0,0,1,885,443.0428717598909) translate(90.57314814814815 60.37777777777778)"/><path d="M803.1 498.54h-36.3v-1h36.3zm64 0h-46.07v-1h46.08z" stroke="#333" stroke-width=".05" fill="#333"/><path d="M766.8 498.54h-.55l.05-.5-.05-.5h.56z" fill="#333"/><path d="M766.84 498.57h-.62l.05-.53-.05-.52h.62zm-.56-1l.04.47-.04.48h.5v-.95z" stroke="#333" stroke-width=".05" fill="#333"/><path d="M881.88 498.04l-14.27 4.64v-9.27z" fill="#333"/><path d="M883.5 498.04l-16.4 5.33v-10.65zM868.1 502l12.16-3.96-12.15-3.94z" stroke="#333" stroke-width=".05" fill="#333"/><use xlink:href="#f" transform="matrix(1,0,0,1,803.10849519361,481.90953842655756) translate(0.005000000000000782 21.511111111111106)"/><path d="M1160 446.04a8 8 0 0 1 8-8h144a8 8 0 0 1 8 8v104a8 8 0 0 1-8 8h-144a8 8 0 0 1-8-8z" stroke="#333" fill="#c7e8ac"/><use xlink:href="#d" transform="matrix(1,0,0,1,1172,450.0428717598909) translate(29.94475308641976 37.24444444444445)"/><use xlink:href="#e" transform="matrix(1,0,0,1,1172,450.0428717598909) translate(27.741358024691365 69.5111111111111)"/><path d="M1143.12 500.83v1h-54.67v-1h9.1zm-107.03 1v-1h34.42v1z" stroke="#333" stroke-width=".05" fill="#333"/><path d="M1036.1 501.83h-.85l.27-.35.32-.65h.27z" fill="#333"/><path d="M1036.13 501.86h-.93l.3-.4.33-.65h.3zm-.27-1l-.32.63-.24.3h.78v-.94z" stroke="#333" stroke-width=".05" fill="#333"/><path d="M1157.88 501.33l-14.26 4.64v-9.27z" fill="#333"/><path d="M1159.5 501.33l-16.38 5.33V496zm-15.38 3.95l12.14-3.94-12.14-3.95z" stroke="#333" stroke-width=".05" fill="#333"/><use xlink:href="#f" transform="matrix(1,0,0,1,1070.522885077726,485.1984899583847) translate(0.005000000000000782 21.511111111111106)"/><path d="M600 668a8 8 0 0 1 8-8h144a8 8 0 0 1 8 8v104a8 8 0 0 1-8 8H608a8 8 0 0 1-8-8z" stroke="#333" fill="#ffbbb1"/><use xlink:href="#k" transform="matrix(1,0,0,1,612,672) translate(29.9820987654321 53.37777777777778)"/><path d="M680.5 643.12h-1V624.9h1zm0-50.5h-1v-34.1h1z" stroke="#333" stroke-width=".05" fill="#333"/><path d="M680 558l.5-.02v.55h-1v-.55z" fill="#333"/><path d="M680 558l.52-.04v.6h-1.04v-.6zm-.48.5h.96v-.5l-.48.04-.48-.03z" stroke="#333" stroke-width=".05" fill="#333"/><path d="M680 657.88l-4.63-14.26h9.26z" fill="#333"/><path d="M680 659.5l-5.32-16.38h10.64zm-3.95-15.38l3.95 12.14 3.95-12.14z" stroke="#333" stroke-width=".05" fill="#333"/><use xlink:href="#h" transform="matrix(1,0,0,1,670.3274691358025,592.62342026098) translate(0.005000000000000782 21.511111111111106)"/><path d="M880 668a8 8 0 0 1 8-8h144a8 8 0 0 1 8 8v104a8 8 0 0 1-8 8H888a8 8 0 0 1-8-8z" stroke="#333" fill="#ffbbb1"/><use xlink:href="#k" transform="matrix(1,0,0,1,892,672) translate(29.9820987654321 53.37777777777778)"/><path d="M960.5 643.12h-1v-19.3h1zm0-51.57h-1V556.4h1z" stroke="#333" stroke-width=".05" fill="#333"/><path d="M960 555.88l.5-.03v.54h-1v-.55z" fill="#333"/><path d="M960 555.85l.52-.03v.6h-1.04v-.6zm-.48.5h.96v-.48l-.48.03-.48-.03z" stroke="#333" stroke-width=".05" fill="#333"/><path d="M960 657.88l-4.63-14.26h9.26z" fill="#333"/><path d="M960 659.5l-5.32-16.38h10.64zm-3.95-15.38l3.95 12.14 3.95-12.14z" stroke="#333" stroke-width=".05" fill="#333"/><g><use xlink:href="#h" transform="matrix(1,0,0,1,950.3274691358025,591.555302243564) translate(0.005000000000000782 21.511111111111106)"/></g><defs><path fill="#333" d="M195 0l-74-108L45 0H8l94-129-87-119h37l69 98 67-98h37l-84 118L233 0h-38" id="l"/><use transform="matrix(0.07469135802469135,0,0,0.07469135802469135,0,0)" xlink:href="#l" id="a"/><path fill="#333" d="M24 0v-261h32V0H24" id="m"/><path fill="#333" d="M24-231v-30h32v30H24zM24 0v-190h32V0H24" id="n"/><path fill="#333" d="M117-194c89-4 53 116 60 194h-32v-121c0-31-8-49-39-48C34-167 62-67 57 0H25l-1-190h30c1 10-1 24 2 32 11-22 29-35 61-36" id="o"/><path fill="#333" d="M143 0L79-87 56-68V0H24v-261h32v163l83-92h37l-77 82L181 0h-38" id="p"/><path fill="#333" d="M100-194c63 0 86 42 84 106H49c0 40 14 67 53 68 26 1 43-12 49-29l28 8c-11 28-37 45-77 45C44 4 14-33 15-96c1-61 26-98 85-98zm52 81c6-60-76-77-97-28-3 7-6 17-6 28h103" id="q"/><path fill="#333" d="M85-194c31 0 48 13 60 33l-1-100h32l1 261h-30c-2-10 0-23-3-31C134-8 116 4 85 4 32 4 16-35 15-94c0-66 23-100 70-100zm9 24c-40 0-46 34-46 75 0 40 6 74 45 74 42 0 51-32 51-76 0-42-9-74-50-73" id="r"/><g id="b"><use transform="matrix(0.07469135802469135,0,0,0.07469135802469135,0,0)" xlink:href="#m"/><use transform="matrix(0.07469135802469135,0,0,0.07469135802469135,5.900617283950616,0)" xlink:href="#n"/><use transform="matrix(0.07469135802469135,0,0,0.07469135802469135,11.801234567901233,0)" xlink:href="#o"/><use transform="matrix(0.07469135802469135,0,0,0.07469135802469135,26.7395061728395,0)" xlink:href="#p"/><use transform="matrix(0.07469135802469135,0,0,0.07469135802469135,40.18395061728394,0)" xlink:href="#q"/><use transform="matrix(0.07469135802469135,0,0,0.07469135802469135,55.122222222222206,0)" xlink:href="#r"/></g><path fill="#333" d="M100-194c62-1 85 37 85 99 1 63-27 99-86 99S16-35 15-95c0-66 28-99 85-99zM99-20c44 1 53-31 53-75 0-43-8-75-51-75s-53 32-53 75 10 74 51 75" id="s"/><path fill="#333" d="M210-169c-67 3-38 105-44 169h-31v-121c0-29-5-50-35-48C34-165 62-65 56 0H25l-1-190h30c1 10-1 24 2 32 10-44 99-50 107 0 11-21 27-35 58-36 85-2 47 119 55 194h-31v-121c0-29-5-49-35-48" id="t"/><path fill="#333" d="M141-36C126-15 110 5 73 4 37 3 15-17 15-53c-1-64 63-63 125-63 3-35-9-54-41-54-24 1-41 7-42 31l-33-3c5-37 33-52 76-52 45 0 72 20 72 64v82c-1 20 7 32 28 27v20c-31 9-61-2-59-35zM48-53c0 20 12 33 32 33 41-3 63-29 60-74-43 2-92-5-92 41" id="u"/><path fill="#333" d="M59-47c-2 24 18 29 38 22v24C64 9 27 4 27-40v-127H5v-23h24l9-43h21v43h35v23H59v120" id="v"/><g id="c"><use transform="matrix(0.07469135802469135,0,0,0.07469135802469135,0,0)" xlink:href="#r"/><use transform="matrix(0.07469135802469135,0,0,0.07469135802469135,14.938271604938269,0)" xlink:href="#s"/><use transform="matrix(0.07469135802469135,0,0,0.07469135802469135,29.876543209876537,0)" xlink:href="#t"/><use transform="matrix(0.07469135802469135,0,0,0.07469135802469135,52.20925925925925,0)" xlink:href="#n"/><use transform="matrix(0.07469135802469135,0,0,0.07469135802469135,58.109876543209865,0)" xlink:href="#o"/><use transform="matrix(0.07469135802469135,0,0,0.07469135802469135,73.04814814814813,0)" xlink:href="#u"/><use transform="matrix(0.07469135802469135,0,0,0.07469135802469135,87.9864197530864,0)" xlink:href="#o"/><use transform="matrix(0.07469135802469135,0,0,0.07469135802469135,102.92469135802466,0)" xlink:href="#v"/></g><path fill="#333" d="M185-189c-5-48-123-54-124 2 14 75 158 14 163 119 3 78-121 87-175 55-17-10-28-26-33-46l33-7c5 56 141 63 141-1 0-78-155-14-162-118-5-82 145-84 179-34 5 7 8 16 11 25" id="w"/><path fill="#333" d="M33 0v-248h34V0H33" id="x"/><path fill="#333" d="M177-190C167-65 218 103 67 71c-23-6-38-20-44-43l32-5c15 47 100 32 89-28v-30C133-14 115 1 83 1 29 1 15-40 15-95c0-56 16-97 71-98 29-1 48 16 59 35 1-10 0-23 2-32h30zM94-22c36 0 50-32 50-73 0-42-14-75-50-75-39 0-46 34-46 75s6 73 46 73" id="y"/><g id="d"><use transform="matrix(0.07469135802469135,0,0,0.07469135802469135,0,0)" xlink:href="#w"/><use transform="matrix(0.07469135802469135,0,0,0.07469135802469135,17.925925925925924,0)" xlink:href="#x"/><use transform="matrix(0.07469135802469135,0,0,0.07469135802469135,25.395061728395056,0)" xlink:href="#o"/><use transform="matrix(0.07469135802469135,0,0,0.07469135802469135,40.33333333333333,0)" xlink:href="#y"/><use transform="matrix(0.07469135802469135,0,0,0.07469135802469135,55.271604938271594,0)" xlink:href="#m"/><use transform="matrix(0.07469135802469135,0,0,0.07469135802469135,61.17222222222221,0)" xlink:href="#q"/></g><path fill="#333" d="M108 0H70L1-190h34L89-25l56-165h34" id="z"/><path fill="#333" d="M114-163C36-179 61-72 57 0H25l-1-190h30c1 12-1 29 2 39 6-27 23-49 58-41v29" id="A"/><g id="e"><use transform="matrix(0.07469135802469135,0,0,0.07469135802469135,0,0)" xlink:href="#z"/><use transform="matrix(0.07469135802469135,0,0,0.07469135802469135,13.444444444444443,0)" xlink:href="#u"/><use transform="matrix(0.07469135802469135,0,0,0.07469135802469135,28.38271604938271,0)" xlink:href="#A"/><use transform="matrix(0.07469135802469135,0,0,0.07469135802469135,37.27098765432098,0)" xlink:href="#n"/><use transform="matrix(0.07469135802469135,0,0,0.07469135802469135,43.1716049382716,0)" xlink:href="#u"/><use transform="matrix(0.07469135802469135,0,0,0.07469135802469135,58.109876543209865,0)" xlink:href="#o"/><use transform="matrix(0.07469135802469135,0,0,0.07469135802469135,73.04814814814813,0)" xlink:href="#v"/></g><path fill="#333" d="M137-103V0h-34v-103L8-248h37l75 118 75-118h37" id="B"/><use transform="matrix(0.07469135802469135,0,0,0.07469135802469135,0,0)" xlink:href="#B" id="f"/><path fill="#333" d="M197 0v-115H63V0H30v-248h33v105h134v-105h34V0h-34" id="C"/><path fill="#333" d="M9 0v-24l116-142H16v-24h144v24L44-24h123V0H9" id="D"/><path fill="#333" d="M179-190L93 31C79 59 56 82 12 73V49c39 6 53-20 64-50L1-190h34L92-34l54-156h33" id="E"/><path fill="#333" d="M84 4C-5 8 30-112 23-190h32v120c0 31 7 50 39 49 72-2 45-101 50-169h31l1 190h-30c-1-10 1-25-2-33-11 22-28 36-60 37" id="F"/><path fill="#333" d="M135-143c-3-34-86-38-87 0 15 53 115 12 119 90S17 21 10-45l28-5c4 36 97 45 98 0-10-56-113-15-118-90-4-57 82-63 122-42 12 7 21 19 24 35" id="G"/><g id="g"><use transform="matrix(0.07469135802469135,0,0,0.07469135802469135,0,0)" xlink:href="#C"/><use transform="matrix(0.07469135802469135,0,0,0.07469135802469135,19.34506172839506,0)" xlink:href="#q"/><use transform="matrix(0.07469135802469135,0,0,0.07469135802469135,34.28333333333333,0)" xlink:href="#t"/><use transform="matrix(0.07469135802469135,0,0,0.07469135802469135,56.61604938271604,0)" xlink:href="#n"/><use transform="matrix(0.07469135802469135,0,0,0.07469135802469135,62.51666666666666,0)" xlink:href="#D"/><use transform="matrix(0.07469135802469135,0,0,0.07469135802469135,75.96111111111111,0)" xlink:href="#E"/><use transform="matrix(0.07469135802469135,0,0,0.07469135802469135,89.40555555555555,0)" xlink:href="#y"/><use transform="matrix(0.07469135802469135,0,0,0.07469135802469135,104.34382716049382,0)" xlink:href="#s"/><use transform="matrix(0.07469135802469135,0,0,0.07469135802469135,119.28209876543208,0)" xlink:href="#F"/><use transform="matrix(0.07469135802469135,0,0,0.07469135802469135,134.22037037037035,0)" xlink:href="#G"/></g><path fill="#333" d="M190 0L58-211 59 0H30v-248h39L202-35l-2-213h31V0h-41" id="H"/><use transform="matrix(0.07469135802469135,0,0,0.07469135802469135,0,0)" xlink:href="#H" id="h"/><path fill="#333" d="M212-179c-10-28-35-45-73-45-59 0-87 40-87 99 0 60 29 101 89 101 43 0 62-24 78-52l27 14C228-24 195 4 139 4 59 4 22-46 18-125c-6-104 99-153 187-111 19 9 31 26 39 46" id="I"/><path fill="#333" d="M106-169C34-169 62-67 57 0H25v-261h32l-1 103c12-21 28-36 61-36 89 0 53 116 60 194h-32v-121c2-32-8-49-39-48" id="J"/><g id="i"><use transform="matrix(0.07469135802469135,0,0,0.07469135802469135,0,0)" xlink:href="#I"/><use transform="matrix(0.07469135802469135,0,0,0.07469135802469135,19.34506172839506,0)" xlink:href="#J"/><use transform="matrix(0.07469135802469135,0,0,0.07469135802469135,34.28333333333333,0)" xlink:href="#n"/><use transform="matrix(0.07469135802469135,0,0,0.07469135802469135,40.18395061728394,0)" xlink:href="#m"/><use transform="matrix(0.07469135802469135,0,0,0.07469135802469135,46.08456790123456,0)" xlink:href="#r"/></g><g id="j"><use transform="matrix(0.07469135802469135,0,0,0.07469135802469135,0,0)" xlink:href="#J"/><use transform="matrix(0.07469135802469135,0,0,0.07469135802469135,14.938271604938269,0)" xlink:href="#q"/><use transform="matrix(0.07469135802469135,0,0,0.07469135802469135,29.876543209876537,0)" xlink:href="#v"/></g><path fill="#333" d="M233-177c-1 41-23 64-60 70L243 0h-38l-65-103H63V0H30v-248c88 3 205-21 203 71zM63-129c60-2 137 13 137-47 0-61-80-42-137-45v92" id="K"/><path fill="#333" d="M24-231v-30h32v30H24zM-9 49c24 4 33-6 33-30v-209h32V24c2 40-23 58-65 49V49" id="L"/><path fill="#333" d="M96-169c-40 0-48 33-48 73s9 75 48 75c24 0 41-14 43-38l32 2c-6 37-31 61-74 61-59 0-76-41-82-99-10-93 101-131 147-64 4 7 5 14 7 22l-32 3c-4-21-16-35-41-35" id="M"/><g id="k"><use transform="matrix(0.07469135802469135,0,0,0.07469135802469135,0,0)" xlink:href="#K"/><use transform="matrix(0.07469135802469135,0,0,0.07469135802469135,19.34506172839506,0)" xlink:href="#q"/><use transform="matrix(0.07469135802469135,0,0,0.07469135802469135,34.28333333333333,0)" xlink:href="#L"/><use transform="matrix(0.07469135802469135,0,0,0.07469135802469135,40.18395061728394,0)" xlink:href="#q"/><use transform="matrix(0.07469135802469135,0,0,0.07469135802469135,55.12222222222222,0)" xlink:href="#M"/><use transform="matrix(0.07469135802469135,0,0,0.07469135802469135,68.56666666666666,0)" xlink:href="#v"/></g></defs></g></svg>