<svg xmlns="http://www.w3.org/2000/svg" xmlns:xlink="http://www.w3.org/1999/xlink" xmlns:lucid="lucid" width="1760" height="1360"><g transform="translate(0 0)" lucid:page-tab-id="0_0"><path d="M154.05 77.35a8.9 8.9 0 0 1 11.9 0l68.1 61.2a7.2 7.2 0 0 1 0 10.7l-68.1 61.2a8.9 8.9 0 0 1-11.9 0l-68.1-61.2a7.2 7.2 0 0 1 0-10.7z" stroke="#333" fill="#fff"/><use xlink:href="#a" transform="matrix(1,0,0,1,111.5,103.50000000000001) translate(25.432098765432105 18.05555555555556)"/><use xlink:href="#b" transform="matrix(1,0,0,1,111.5,103.50000000000001) translate(11.123765432098779 44.988888888888894)"/><use xlink:href="#c" transform="matrix(1,0,0,1,111.5,103.50000000000001) translate(10.531481481481485 71.92222222222222)"/><use xlink:href="#d" transform="matrix(1,0,0,1,111.5,103.50000000000001) translate(60.34567901234568 71.92222222222222)"/><path d="M571.9 322.3a10.1 10.1 0 0 1 12.54 0l77.46 61.4a6.34 6.34 0 0 1 0 9.93l-77.46 61.4a10.1 10.1 0 0 1-12.54 0l-77.46-61.4a6.34 6.34 0 0 1 0-9.94z" stroke="#333" fill="#fff"/><use xlink:href="#e" transform="matrix(1,0,0,1,493.1676846905211,322.3242553724749) translate(22.810185185185198 57.522222222222226)"/><use xlink:href="#f" transform="matrix(1,0,0,1,493.1676846905211,322.3242553724749) translate(140.95524691358023 57.522222222222226)"/><use xlink:href="#g" transform="matrix(1,0,0,1,493.1676846905211,322.3242553724749) translate(49.52530864197532 84.45555555555555)"/><path d="M780 336.66a8 8 0 0 1 8-8h144a8 8 0 0 1 8 8v104a8 8 0 0 1-8 8H788a8 8 0 0 1-8-8z" stroke="#333" fill="#c7e8ac"/><use xlink:href="#h" transform="matrix(1,0,0,1,792,340.66212768623745) translate(0.16790123456792116 52.48888888888888)"/><use xlink:href="#i" transform="matrix(1,0,0,1,792,340.66212768623745) translate(68.62345679012346 52.48888888888888)"/><path d="M714.67 389.16H665.3v-1h49.37zm48.45 0h-33.5v-1h33.5z" stroke="#333" stroke-width=".05" fill="#333"/><path d="M665.32 389.16h-.56l.04-.5-.04-.5h.56z" fill="#333"/><path d="M665.34 389.2h-.6l.04-.54-.05-.52h.6zm-.56-1l.05.46-.05.48h.5v-.95z" stroke="#333" stroke-width=".05" fill="#333"/><path d="M777.88 388.66l-14.26 4.64v-9.27z" fill="#333"/><path d="M779.5 388.66L763.12 394v-10.66zm-15.38 3.95l12.14-3.94-12.14-3.95z" stroke="#333" stroke-width=".05" fill="#333"/><use xlink:href="#j" transform="matrix(1,0,0,1,714.6697874259794,375.1954610195708) translate(0.004999999999999893 17.955555555555552)"/><path d="M571.77 513.46a10.67 10.67 0 0 1 12.8 0l67.2 50.4a6 6 0 0 1 0 9.6l-67.2 50.4a10.67 10.67 0 0 1-12.8 0l-67.2-50.4a6 6 0 0 1 0-9.6z" stroke="#333" fill="#fff"/><use xlink:href="#k" transform="matrix(1,0,0,1,503.1676846905211,513.6621276862375) translate(37.125000000000014 59.48888888888888)"/><path d="M780 516.66a8 8 0 0 1 8-8h144a8 8 0 0 1 8 8v104a8 8 0 0 1-8 8H788a8 8 0 0 1-8-8z" stroke="#333" fill="#ffeca9"/><use xlink:href="#l" transform="matrix(1,0,0,1,792,520.6621276862375) translate(13.19814814814815 39.022222222222226)"/><use xlink:href="#m" transform="matrix(1,0,0,1,792,520.6621276862375) translate(15.660802469135817 65.95555555555555)"/><use xlink:href="#n" transform="matrix(1,0,0,1,792,520.6621276862375) translate(53.068209876543214 65.95555555555555)"/><path d="M578.67 470.8h-1v-12.6h1z" stroke="#333" stroke-width=".05" fill="#333"/><path d="M578.17 457.7l.5-.02v.55h-1v-.55z" fill="#333"/><path d="M578.17 457.7l.52-.05v.6h-1.06v-.6zm-.48.5h.94v-.5l-.47.04-.48-.03z" stroke="#333" stroke-width=".05" fill="#333"/><path d="M578.17 509.2l-3.73-11.46h7.45z" fill="#333"/><path d="M578.17 510.83l-4.25-13.1h1.05l3.2 9.86 3.2-9.86h1.05z" stroke="#333" stroke-width=".05" fill="#333"/><use xlink:href="#o" transform="matrix(1,0,0,1,570.0939192584224,470.80475389532563) translate(0.005000000000000782 17.955555555555552)"/><path d="M709.6 569.16h-54.43v-1h54.43zm53.52 0h-38.55v-1h38.55z" stroke="#333" stroke-width=".05" fill="#333"/><path d="M655.18 569.16h-.56l.05-.5-.05-.5h.56z" fill="#333"/><path d="M655.2 569.2h-.6l.04-.54-.04-.52h.6zm-.55-1l.05.46-.05.48h.5v-.95z" stroke="#333" stroke-width=".05" fill="#333"/><path d="M777.88 568.66l-14.26 4.64v-9.27z" fill="#333"/><path d="M779.5 568.66L763.12 574v-10.66zm-15.38 3.95l12.14-3.94-12.14-3.94z" stroke="#333" stroke-width=".05" fill="#333"/><use xlink:href="#j" transform="matrix(1,0,0,1,709.6034432973581,555.1954610195708) translate(0.004999999999999893 17.955555555555552)"/><path d="M572.1 688.2a9.29 9.29 0 0 1 12.13 0l96.96 83.56a6.9 6.9 0 0 1 0 10.44l-96.97 83.55a9.29 9.29 0 0 1-12.12 0l-96.96-83.55a6.9 6.9 0 0 1 0-10.44z" stroke="#333" fill="#fff"/><use xlink:href="#p" transform="matrix(1,0,0,1,500.58384234526056,714.4931915293563) translate(9.513271604938282 40.05555555555556)"/><use xlink:href="#q" transform="matrix(1,0,0,1,500.58384234526056,714.4931915293563) translate(109.07932098765431 40.05555555555556)"/><use xlink:href="#r" transform="matrix(1,0,0,1,500.58384234526056,714.4931915293563) translate(0.1302469135802653 66.9888888888889)"/><use xlink:href="#s" transform="matrix(1,0,0,1,500.58384234526056,714.4931915293563) translate(48.697530864197546 66.9888888888889)"/><use xlink:href="#t" transform="matrix(1,0,0,1,500.58384234526056,714.4931915293563) translate(92.3395061728395 66.9888888888889)"/><use xlink:href="#u" transform="matrix(1,0,0,1,500.58384234526056,714.4931915293563) translate(21.32777777777779 93.92222222222222)"/><use xlink:href="#c" transform="matrix(1,0,0,1,500.58384234526056,714.4931915293563) translate(58.73518518518519 93.92222222222222)"/><use xlink:href="#d" transform="matrix(1,0,0,1,500.58384234526056,714.4931915293563) translate(108.54938271604937 93.92222222222222)"/><path d="M578.67 642.5h-1V627h1z" stroke="#333" stroke-width=".05" fill="#333"/><path d="M578.17 626.5l.5-.04v.55h-1v-.54z" fill="#333"/><path d="M578.17 626.47l.52-.03v.6h-1.06v-.6zm-.48.5h.94v-.48l-.47.02-.48-.03z" stroke="#333" stroke-width=".05" fill="#333"/><path d="M578.17 683.85l-4.64-14.27h9.27z" fill="#333"/><path d="M578.17 685.46l-5.2-16h10.4zm-3.95-15.38l3.95 12.15 3.95-12.15z" stroke="#333" stroke-width=".05" fill="#333"/><use xlink:href="#o" transform="matrix(1,0,0,1,570.0939192584224,642.5130894885342) translate(0.005000000000000782 17.955555555555552)"/><path d="M780 724.98a8 8 0 0 1 8-8h144a8 8 0 0 1 8 8v104a8 8 0 0 1-8 8H788a8 8 0 0 1-8-8z" stroke="#333" fill="#c7e8ac"/><use xlink:href="#h" transform="matrix(1,0,0,1,792,728.9810638431187) translate(0.16790123456792116 52.48888888888888)"/><use xlink:href="#i" transform="matrix(1,0,0,1,792,728.9810638431187) translate(68.62345679012346 52.48888888888888)"/><path d="M724.3 777.48h-39.7v-1h39.7zm38.82 0h-23.85v-1h23.85z" stroke="#333" stroke-width=".05" fill="#333"/><path d="M684.6 777.48h-.56l.05-.5-.06-.5h.56z" fill="#333"/><path d="M684.62 777.5h-.6l.04-.52-.04-.52h.6zm-.55-1l.04.48-.03.48h.5v-.95z" stroke="#333" stroke-width=".05" fill="#333"/><path d="M777.88 776.98l-14.26 4.64v-9.27z" fill="#333"/><path d="M779.5 776.98l-16.38 5.32v-10.64zm-15.38 3.95l12.14-3.95-12.14-3.95z" stroke="#333" stroke-width=".05" fill="#333"/><use xlink:href="#j" transform="matrix(1,0,0,1,724.3116997244715,763.514397176452) translate(0.004999999999999893 17.955555555555552)"/><path d="M571.84 936.4a10.35 10.35 0 0 1 12.66 0l108.92 84.2a6.18 6.18 0 0 1 0 9.78l-108.92 84.2a10.35 10.35 0 0 1-12.66 0l-108.93-84.2a6.18 6.18 0 0 1 0-9.8z" stroke="#333" fill="#fff"/><use xlink:href="#p" transform="matrix(1,0,0,1,488.08384234526056,962.9965957646781) translate(22.013271604938282 40.05555555555556)"/><use xlink:href="#q" transform="matrix(1,0,0,1,488.08384234526056,962.9965957646781) translate(121.57932098765431 40.05555555555556)"/><use xlink:href="#r" transform="matrix(1,0,0,1,488.08384234526056,962.9965957646781) translate(12.630246913580265 66.9888888888889)"/><use xlink:href="#s" transform="matrix(1,0,0,1,488.08384234526056,962.9965957646781) translate(61.197530864197546 66.9888888888889)"/><use xlink:href="#t" transform="matrix(1,0,0,1,488.08384234526056,962.9965957646781) translate(104.8395061728395 66.9888888888889)"/><use xlink:href="#c" transform="matrix(1,0,0,1,488.08384234526056,962.9965957646781) translate(52.531481481481485 93.92222222222222)"/><use xlink:href="#d" transform="matrix(1,0,0,1,488.08384234526056,962.9965957646781) translate(102.34567901234567 93.92222222222222)"/><path d="M578.67 917.34h-1v-2.76h1zm0-29.7h-1V869h1z" stroke="#333" stroke-width=".05" fill="#333"/><path d="M578.17 868.5l.5-.04v.55h-1v-.54z" fill="#333"/><path d="M578.17 868.47l.52-.03v.6h-1.06v-.6zm-.48.52h.94v-.5l-.47.02-.48-.03z" stroke="#333" stroke-width=".05" fill="#333"/><path d="M578.17 932.1l-4.64-14.26h9.27z" fill="#333"/><path d="M578.17 933.73l-5.33-16.4h10.65zm-3.95-15.4l3.95 12.16 3.95-12.16z" stroke="#333" stroke-width=".05" fill="#333"/><use xlink:href="#o" transform="matrix(1,0,0,1,570.0939192584224,887.6464506105503) translate(0.005000000000000782 17.955555555555552)"/><path d="M780 973.48a8 8 0 0 1 8-8h144a8 8 0 0 1 8 8v104a8 8 0 0 1-8 8H788a8 8 0 0 1-8-8z" stroke="#333" fill="#c7e8ac"/><use xlink:href="#h" transform="matrix(1,0,0,1,792,977.4844680784406) translate(0.16790123456792116 52.48888888888888)"/><use xlink:href="#i" transform="matrix(1,0,0,1,792,977.4844680784406) translate(68.62345679012346 52.48888888888888)"/><path d="M730.43 1025.98h-33.6v-1h33.6zm32.7 0h-17.74v-1h17.72z" stroke="#333" stroke-width=".05" fill="#333"/><path d="M696.84 1025.98h-.56l.05-.5-.05-.5h.56z" fill="#333"/><path d="M696.86 1026h-.6l.04-.52-.05-.52h.6zm-.55-1l.05.48-.04.48h.5v-.95z" stroke="#333" stroke-width=".05" fill="#333"/><path d="M777.88 1025.48l-14.26 4.64v-9.27z" fill="#333"/><path d="M779.5 1025.48l-16.38 5.33v-10.64zm-15.38 3.95l12.14-3.95-12.14-3.94z" stroke="#333" stroke-width=".05" fill="#333"/><use xlink:href="#j" transform="matrix(1,0,0,1,730.4316409432579,1012.0178014117739) translate(0.004999999999999893 17.955555555555552)"/><path d="M493.66 4.88a10.38 10.38 0 0 1 12.68 0l127.32 98.14a6.17 6.17 0 0 1 0 9.76l-127.32 98.14a10.38 10.38 0 0 1-12.68 0l-127.32-98.14a6.17 6.17 0 0 1 0-9.76z" stroke="#333" fill="#fff"/><use xlink:href="#v" transform="matrix(1,0,0,1,391.5,31.5) translate(24.302160493827174 40.5888888888889)"/><use xlink:href="#w" transform="matrix(1,0,0,1,391.5,31.5) translate(147.93364197530863 40.5888888888889)"/><use xlink:href="#x" transform="matrix(1,0,0,1,391.5,31.5) translate(2.1694444444444656 67.52222222222223)"/><use xlink:href="#y" transform="matrix(1,0,0,1,391.5,31.5) translate(87.77006172839506 67.52222222222223)"/><use xlink:href="#z" transform="matrix(1,0,0,1,391.5,31.5) translate(163.76944444444445 67.52222222222223)"/><use xlink:href="#A" transform="matrix(1,0,0,1,391.5,31.5) translate(20.873148148148175 94.45555555555555)"/><use xlink:href="#x" transform="matrix(1,0,0,1,391.5,31.5) translate(90.63796296296297 94.45555555555555)"/><use xlink:href="#B" transform="matrix(1,0,0,1,391.5,31.5) translate(176.23858024691356 94.45555555555555)"/><use xlink:href="#c" transform="matrix(1,0,0,1,391.5,31.5) translate(70.53148148148148 121.38888888888889)"/><use xlink:href="#d" transform="matrix(1,0,0,1,391.5,31.5) translate(120.34567901234567 121.38888888888889)"/><path d="M883.2 31.88a12.96 12.96 0 0 1 13.6 0l116.4 71.82a4.94 4.94 0 0 1 0 8.4l-116.4 71.82a12.96 12.96 0 0 1-13.6 0L766.8 112.1a4.94 4.94 0 0 1 0-8.4z" stroke="#333" fill="#fff"/><use xlink:href="#C" transform="matrix(1,0,0,1,791.5,59.17499999999998) translate(38.80401234567903 26.55555555555556)"/><use xlink:href="#q" transform="matrix(1,0,0,1,791.5,59.17499999999998) translate(120.78858024691357 26.55555555555556)"/><use xlink:href="#D" transform="matrix(1,0,0,1,791.5,59.17499999999998) translate(5.854320987654347 53.488888888888894)"/><use xlink:href="#b" transform="matrix(1,0,0,1,791.5,59.17499999999998) translate(116.39320987654322 53.488888888888894)"/><use xlink:href="#u" transform="matrix(1,0,0,1,791.5,59.17499999999998) translate(43.07469135802471 80.42222222222222)"/><use xlink:href="#c" transform="matrix(1,0,0,1,791.5,59.17499999999998) translate(80.48209876543211 80.42222222222222)"/><use xlink:href="#E" transform="matrix(1,0,0,1,791.5,59.17499999999998) translate(130.2962962962963 80.42222222222222)"/><path d="M1100 55.9a8 8 0 0 1 8-8h144a8 8 0 0 1 8 8v104a8 8 0 0 1-8 8h-144a8 8 0 0 1-8-8z" stroke="#333" fill="#ffbbb1"/><use xlink:href="#F" transform="matrix(1,0,0,1,1112,59.900000000000006) translate(36.266049382716055 52.48888888888888)"/><path d="M498.17 1188a8 8 0 0 1 8-8h144a8 8 0 0 1 8 8v104a8 8 0 0 1-8 8h-144a8 8 0 0 1-8-8z" stroke="#333" fill="#ffbbb1"/><use xlink:href="#F" transform="matrix(1,0,0,1,510.1676846905211,1192) translate(36.266049382716055 52.48888888888888)"/><path d="M578.67 1163.12h-1v-1.28h1zm0-28.22h-1v-17.16h1z" stroke="#333" stroke-width=".05" fill="#333"/><path d="M578.17 1117.24l.5-.03v.56h-1v-.55z" fill="#333"/><path d="M578.17 1117.22l.52-.04v.6h-1.06v-.6zm-.48.5h.94v-.48l-.47.03-.48-.03z" stroke="#333" stroke-width=".05" fill="#333"/><path d="M578.17 1177.88l-4.64-14.26h9.27z" fill="#333"/><path d="M578.17 1179.5l-5.33-16.38h10.65zm-3.95-15.38l3.95 12.14 3.95-12.14z" stroke="#333" stroke-width=".05" fill="#333"/><g><use xlink:href="#o" transform="matrix(1,0,0,1,570.0939192584224,1134.9042546882042) translate(0.005000000000000782 17.955555555555552)"/></g><path d="M297.02 140.74l-1.5 1.27-1.66 1.04-1.8.75-1.92.45-1.94.15h-50.76v-1h50.72l1.82-.14 1.76-.42 1.66-.7 1.54-.94 1.38-1.17.56-.66h1.32zm50.03-32.34H312.2l-1.8.14-1.77.42-1.67.7-1.53.94-1.38 1.17-.56.66h-1.33l1.17-1.37 1.5-1.27 1.67-1.04 1.82-.75 1.9-.45 1.94-.15h34.9z" stroke="#333" stroke-width=".05" fill="#333"/><path d="M237.45 144.4h-.56l.04-.5-.05-.5h.55z" fill="#333"/><path d="M237.47 144.43h-.6l.04-.53-.03-.53h.6zm-.55-1l.04.47-.04.47h.5v-.94z" stroke="#333" stroke-width=".05" fill="#333"/><path d="M361.8 107.9l-14.25 4.63v-9.27z" fill="#333"/><path d="M363.43 107.9l-16.38 5.32v-10.64zm-15.38 3.95l12.15-3.95-12.15-3.95z" stroke="#333" stroke-width=".05" fill="#333"/><g><use xlink:href="#o" transform="matrix(1,0,0,1,292.11025741774466,112.43333333333334) translate(0.005000000000000782 17.955555555555552)"/></g><path d="M502.18 289.83l1.94.15 1.9.46 1.82.75 1.67 1 1.5 1.3 1.28 1.48 1.02 1.67.75 1.8.46 1.92.16 1.94v48.73h-1v-48.68l-.14-1.82-.42-1.76-.7-1.66-.93-1.53-1.18-1.37-1.38-1.18-1.54-.94-1.66-.7-1.76-.4-1.8-.15h-157.6v-1zm-341.54-9.7l.42 1.75.7 1.67.94 1.53 1.17 1.38 1.37 1.17 1.54.94 1.67.7 1.75.4 1.82.16H329.6v1H171.98l-1.94-.16-1.9-.45-1.82-.76-1.67-1.02-1.5-1.27-1.26-1.5-1.04-1.67-.75-1.8-.45-1.92-.15-1.93v-64.62h1v64.58z" stroke="#333" stroke-width=".05" fill="#333"/><path d="M160 213.24l.5-.04v.55h-1v-.55z" fill="#333"/><path d="M160 213.2l.53-.03v.6h-1.06v-.6zm-.47.52h.94v-.5l-.47.04-.47-.03z" stroke="#333" stroke-width=".05" fill="#333"/><path d="M514.16 365.8l-4.63-14.27h9.27z" fill="#333"/><path d="M514.16 367.42l-5.32-16.4h10.65zm-3.94-15.4l3.94 12.16 3.95-12.15z" stroke="#333" stroke-width=".05" fill="#333"/><g><use xlink:href="#j" transform="matrix(1,0,0,1,329.6006937909163,276.8597063961533) translate(0.004999999999999893 17.955555555555552)"/></g><path d="M566.2 266.1l1.92.14 1.9.46 1.82.75 1.68 1.03 1.5 1.27 1.26 1.5 1.03 1.67.76 1.8.46 1.92.15 1.93v24.66h-1V278.6l-.14-1.8-.43-1.76-.7-1.67-.93-1.54-1.17-1.37-1.37-1.17-1.54-.95-1.68-.7-1.75-.4-1.82-.16h-19.58v-1zm-65.56-9.7l.42 1.75.7 1.66.94 1.55 1.17 1.37 1.37 1.17 1.54.94 1.67.7 1.75.4 1.82.15h19.58v1h-19.62l-1.94-.16-1.9-.46-1.82-.75-1.67-1.02-1.5-1.27-1.26-1.5-1.04-1.66-.75-1.8-.45-1.92-.15-1.94V214.1h1v40.5z" stroke="#333" stroke-width=".05" fill="#333"/><path d="M500 213.58l.5-.04v.55h-1v-.56z" fill="#333"/><path d="M500 213.55l.52-.03v.6h-1.04v-.6zm-.48.5h.96v-.48l-.48.03-.48-.03z" stroke="#333" stroke-width=".05" fill="#333"/><path d="M578.17 318l-4.64-14.27h9.27z" fill="#333"/><path d="M578.17 319.6l-5.33-16.38h10.65zm-3.95-15.38l3.95 12.15 3.95-12.14z" stroke="#333" stroke-width=".05" fill="#333"/><g><use xlink:href="#j" transform="matrix(1,0,0,1,531.602360863779,253.12589286974915) translate(0.004999999999999893 17.955555555555552)"/></g><path d="M750.02 270.6h-113l-1.8.13-1.76.42-1.67.7-1.54.94-1.38 1.16-1.17 1.37-.93 1.54-.7 1.66-.4 1.76-.16 1.8v55.33h-1v-55.36l.17-1.94.45-1.9.75-1.82 1.03-1.66 1.27-1.5 1.5-1.27 1.67-1.02 1.8-.75 1.92-.46 1.93-.15H750zm140.48-12.5l-.15 1.94-.46 1.9-.76 1.82-1.03 1.68-1.26 1.5-1.5 1.26-1.66 1.03-1.82.75-1.9.45-1.94.16H765v-1h112.98l1.82-.16 1.75-.42 1.67-.7 1.54-.93 1.37-1.18 1.17-1.37.95-1.54.7-1.66.4-1.75.15-1.83v-71.2h1z" stroke="#333" stroke-width=".05" fill="#333"/><path d="M890 186.36l.5-.03v.54h-1v-.54z" fill="#333"/><path d="M890 186.33l.52-.03v.6h-1.04v-.6zm-.48.5h.96v-.48l-.48.03-.48-.03z" stroke="#333" stroke-width=".05" fill="#333"/><path d="M625 352.2l-4.62-14.27h9.27z" fill="#333"/><path d="M625 353.82l-5.3-16.4h10.64zm-3.93-15.4L625 350.6l3.96-12.15z" stroke="#333" stroke-width=".05" fill="#333"/><g><use xlink:href="#j" transform="matrix(1,0,0,1,750.0252965288711,256.6204968090102) translate(0.004999999999999893 17.955555555555552)"/></g><path d="M1049.7 108.4h-33.16v-1h33.16zm33.42 0h-17.28v-1h17.28z" stroke="#333" stroke-width=".05" fill="#333"/><path d="M1016.55 108.4h-.56l.04-.5-.05-.5h.55z" fill="#333"/><path d="M1016.58 108.42h-.62l.05-.52-.04-.53h.62zm-.57-1l.06.48-.04.47h.5v-.95z" stroke="#333" stroke-width=".05" fill="#333"/><path d="M1097.88 107.9l-14.26 4.63v-9.27z" fill="#333"/><path d="M1099.5 107.9l-16.38 5.32v-10.64zm-15.38 3.95l12.14-3.95-12.14-3.95z" stroke="#333" stroke-width=".05" fill="#333"/><g><use xlink:href="#o" transform="matrix(1,0,0,1,1049.6956450078476,94.43333333333334) translate(0.005000000000000782 17.955555555555552)"/></g><path d="M692.2 108.4h-55.13v-1h55.12zm55.38 0h-39.24v-1h39.24z" stroke="#333" stroke-width=".05" fill="#333"/><path d="M637.08 108.4h-.56l.05-.5-.05-.5h.56z" fill="#333"/><path d="M637.1 108.42h-.6l.04-.52-.05-.53h.6zm-.55-1l.04.48-.05.47h.5v-.95z" stroke="#333" stroke-width=".05" fill="#333"/><path d="M762.34 107.9l-14.26 4.63v-9.27z" fill="#333"/><path d="M763.96 107.9l-16.38 5.32v-10.64zm-15.38 3.95l12.14-3.95-12.14-3.95z" stroke="#333" stroke-width=".05" fill="#333"/><g><use xlink:href="#o" transform="matrix(1,0,0,1,692.190584695853,94.43333333333334) translate(0.005000000000000782 17.955555555555552)"/></g><defs><path fill="#333" d="M160-131c35 5 61 23 61 61C221 17 115-2 30 0v-248c76 3 177-17 177 60 0 33-19 50-47 57zm-97-11c50-1 110 9 110-42 0-47-63-36-110-37v79zm0 115c55-2 124 14 124-45 0-56-70-42-124-44v89" id="G"/><path fill="#333" d="M100-194c62-1 85 37 85 99 1 63-27 99-86 99S16-35 15-95c0-66 28-99 85-99zM99-20c44 1 53-31 53-75 0-43-8-75-51-75s-53 32-53 75 10 74 51 75" id="H"/><path fill="#333" d="M59-47c-2 24 18 29 38 22v24C64 9 27 4 27-40v-127H5v-23h24l9-43h21v43h35v23H59v120" id="I"/><path fill="#333" d="M106-169C34-169 62-67 57 0H25v-261h32l-1 103c12-21 28-36 61-36 89 0 53 116 60 194h-32v-121c2-32-8-49-39-48" id="J"/><g id="a"><use transform="matrix(0.06234567901234567,0,0,0.06234567901234567,0,0)" xlink:href="#G"/><use transform="matrix(0.06234567901234567,0,0,0.06234567901234567,14.96296296296296,0)" xlink:href="#H"/><use transform="matrix(0.06234567901234567,0,0,0.06234567901234567,27.432098765432094,0)" xlink:href="#I"/><use transform="matrix(0.06234567901234567,0,0,0.06234567901234567,33.66666666666666,0)" xlink:href="#J"/></g><path fill="#333" d="M115-194c55 1 70 41 70 98S169 2 115 4C84 4 66-9 55-30l1 105H24l-1-265h31l2 30c10-21 28-34 59-34zm-8 174c40 0 45-34 45-75s-6-73-45-74c-42 0-51 32-51 76 0 43 10 73 51 73" id="K"/><path fill="#333" d="M141-36C126-15 110 5 73 4 37 3 15-17 15-53c-1-64 63-63 125-63 3-35-9-54-41-54-24 1-41 7-42 31l-33-3c5-37 33-52 76-52 45 0 72 20 72 64v82c-1 20 7 32 28 27v20c-31 9-61-2-59-35zM48-53c0 20 12 33 32 33 41-3 63-29 60-74-43 2-92-5-92 41" id="L"/><path fill="#333" d="M114-163C36-179 61-72 57 0H25l-1-190h30c1 12-1 29 2 39 6-27 23-49 58-41v29" id="M"/><path fill="#333" d="M100-194c63 0 86 42 84 106H49c0 40 14 67 53 68 26 1 43-12 49-29l28 8c-11 28-37 45-77 45C44 4 14-33 15-96c1-61 26-98 85-98zm52 81c6-60-76-77-97-28-3 7-6 17-6 28h103" id="N"/><path fill="#333" d="M117-194c89-4 53 116 60 194h-32v-121c0-31-8-49-39-48C34-167 62-67 57 0H25l-1-190h30c1 10-1 24 2 32 11-22 29-35 61-36" id="O"/><path fill="#333" d="M135-143c-3-34-86-38-87 0 15 53 115 12 119 90S17 21 10-45l28-5c4 36 97 45 98 0-10-56-113-15-118-90-4-57 82-63 122-42 12 7 21 19 24 35" id="P"/><g id="b"><use transform="matrix(0.06234567901234567,0,0,0.06234567901234567,0,0)" xlink:href="#K"/><use transform="matrix(0.06234567901234567,0,0,0.06234567901234567,12.469135802469133,0)" xlink:href="#L"/><use transform="matrix(0.06234567901234567,0,0,0.06234567901234567,24.938271604938265,0)" xlink:href="#M"/><use transform="matrix(0.06234567901234567,0,0,0.06234567901234567,32.3574074074074,0)" xlink:href="#N"/><use transform="matrix(0.06234567901234567,0,0,0.06234567901234567,44.82654320987653,0)" xlink:href="#O"/><use transform="matrix(0.06234567901234567,0,0,0.06234567901234567,57.295679012345666,0)" xlink:href="#I"/><use transform="matrix(0.06234567901234567,0,0,0.06234567901234567,63.53024691358023,0)" xlink:href="#P"/></g><path fill="#333" d="M210-169c-67 3-38 105-44 169h-31v-121c0-29-5-50-35-48C34-165 62-65 56 0H25l-1-190h30c1 10-1 24 2 32 10-44 99-50 107 0 11-21 27-35 58-36 85-2 47 119 55 194h-31v-121c0-29-5-49-35-48" id="Q"/><g id="c"><use transform="matrix(0.06234567901234567,0,0,0.06234567901234567,0,0)" xlink:href="#J"/><use transform="matrix(0.06234567901234567,0,0,0.06234567901234567,12.469135802469133,0)" xlink:href="#H"/><use transform="matrix(0.06234567901234567,0,0,0.06234567901234567,24.938271604938265,0)" xlink:href="#Q"/></g><path fill="#333" d="M101-234c-31-9-42 10-38 44h38v23H63V0H32v-167H5v-23h27c-7-52 17-82 69-68v24" id="R"/><g id="d"><use transform="matrix(0.06234567901234567,0,0,0.06234567901234567,0,0)" xlink:href="#M"/><use transform="matrix(0.06234567901234567,0,0,0.06234567901234567,7.4191358024691345,0)" xlink:href="#N"/><use transform="matrix(0.06234567901234567,0,0,0.06234567901234567,19.888271604938268,0)" xlink:href="#R"/></g><path fill="#333" d="M240 0l2-218c-23 76-54 145-80 218h-23L58-218 59 0H30v-248h44l77 211c21-75 51-140 76-211h43V0h-30" id="S"/><path fill="#333" d="M24 0v-261h32V0H24" id="T"/><path fill="#333" d="M24-231v-30h32v30H24zM24 0v-190h32V0H24" id="U"/><path fill="#333" d="M96-169c-40 0-48 33-48 73s9 75 48 75c24 0 41-14 43-38l32 2c-6 37-31 61-74 61-59 0-76-41-82-99-10-93 101-131 147-64 4 7 5 14 7 22l-32 3c-4-21-16-35-41-35" id="V"/><g id="e"><use transform="matrix(0.06234567901234567,0,0,0.06234567901234567,0,0)" xlink:href="#S"/><use transform="matrix(0.06234567901234567,0,0,0.06234567901234567,18.641358024691353,0)" xlink:href="#H"/><use transform="matrix(0.06234567901234567,0,0,0.06234567901234567,31.110493827160486,0)" xlink:href="#O"/><use transform="matrix(0.06234567901234567,0,0,0.06234567901234567,43.57962962962962,0)" xlink:href="#H"/><use transform="matrix(0.06234567901234567,0,0,0.06234567901234567,56.048765432098755,0)" xlink:href="#L"/><use transform="matrix(0.06234567901234567,0,0,0.06234567901234567,68.51790123456789,0)" xlink:href="#T"/><use transform="matrix(0.06234567901234567,0,0,0.06234567901234567,73.4432098765432,0)" xlink:href="#T"/><use transform="matrix(0.06234567901234567,0,0,0.06234567901234567,78.3685185185185,0)" xlink:href="#N"/><use transform="matrix(0.06234567901234567,0,0,0.06234567901234567,90.83765432098764,0)" xlink:href="#T"/><use transform="matrix(0.06234567901234567,0,0,0.06234567901234567,95.76296296296294,0)" xlink:href="#U"/><use transform="matrix(0.06234567901234567,0,0,0.06234567901234567,100.68827160493825,0)" xlink:href="#V"/></g><path fill="#333" d="M0 4l72-265h28L28 4H0" id="W"/><use transform="matrix(0.06234567901234567,0,0,0.06234567901234567,0,0)" xlink:href="#W" id="f"/><g id="g"><use transform="matrix(0.06234567901234567,0,0,0.06234567901234567,0,0)" xlink:href="#Q"/><use transform="matrix(0.06234567901234567,0,0,0.06234567901234567,18.641358024691353,0)" xlink:href="#H"/><use transform="matrix(0.06234567901234567,0,0,0.06234567901234567,31.110493827160486,0)" xlink:href="#P"/><use transform="matrix(0.06234567901234567,0,0,0.06234567901234567,42.332716049382704,0)" xlink:href="#L"/><use transform="matrix(0.06234567901234567,0,0,0.06234567901234567,54.801851851851836,0)" xlink:href="#U"/><use transform="matrix(0.06234567901234567,0,0,0.06234567901234567,59.72716049382714,0)" xlink:href="#V"/></g><path fill="#333" d="M185-189c-5-48-123-54-124 2 14 75 158 14 163 119 3 78-121 87-175 55-17-10-28-26-33-46l33-7c5 56 141 63 141-1 0-78-155-14-162-118-5-82 145-84 179-34 5 7 8 16 11 25" id="X"/><path fill="#333" d="M177-190C167-65 218 103 67 71c-23-6-38-20-44-43l32-5c15 47 100 32 89-28v-30C133-14 115 1 83 1 29 1 15-40 15-95c0-56 16-97 71-98 29-1 48 16 59 35 1-10 0-23 2-32h30zM94-22c36 0 50-32 50-73 0-42-14-75-50-75-39 0-46 34-46 75s6 73 46 73" id="Y"/><g id="h"><use transform="matrix(0.06234567901234567,0,0,0.06234567901234567,0,0)" xlink:href="#X"/><use transform="matrix(0.06234567901234567,0,0,0.06234567901234567,14.96296296296296,0)" xlink:href="#U"/><use transform="matrix(0.06234567901234567,0,0,0.06234567901234567,19.888271604938268,0)" xlink:href="#O"/><use transform="matrix(0.06234567901234567,0,0,0.06234567901234567,32.3574074074074,0)" xlink:href="#Y"/><use transform="matrix(0.06234567901234567,0,0,0.06234567901234567,44.82654320987653,0)" xlink:href="#T"/><use transform="matrix(0.06234567901234567,0,0,0.06234567901234567,49.75185185185184,0)" xlink:href="#N"/></g><path fill="#333" d="M108 0H70L1-190h34L89-25l56-165h34" id="Z"/><g id="i"><use transform="matrix(0.06234567901234567,0,0,0.06234567901234567,0,0)" xlink:href="#Z"/><use transform="matrix(0.06234567901234567,0,0,0.06234567901234567,11.22222222222222,0)" xlink:href="#L"/><use transform="matrix(0.06234567901234567,0,0,0.06234567901234567,23.691358024691354,0)" xlink:href="#M"/><use transform="matrix(0.06234567901234567,0,0,0.06234567901234567,31.11049382716049,0)" xlink:href="#U"/><use transform="matrix(0.06234567901234567,0,0,0.06234567901234567,36.035802469135795,0)" xlink:href="#L"/><use transform="matrix(0.06234567901234567,0,0,0.06234567901234567,48.50493827160493,0)" xlink:href="#O"/><use transform="matrix(0.06234567901234567,0,0,0.06234567901234567,60.97407407407406,0)" xlink:href="#I"/></g><path fill="#333" d="M137-103V0h-34v-103L8-248h37l75 118 75-118h37" id="aa"/><use transform="matrix(0.06234567901234567,0,0,0.06234567901234567,0,0)" xlink:href="#aa" id="j"/><g id="k"><use transform="matrix(0.06234567901234567,0,0,0.06234567901234567,0,0)" xlink:href="#G"/><use transform="matrix(0.06234567901234567,0,0,0.06234567901234567,14.96296296296296,0)" xlink:href="#U"/><use transform="matrix(0.06234567901234567,0,0,0.06234567901234567,19.888271604938268,0)" xlink:href="#L"/><use transform="matrix(0.06234567901234567,0,0,0.06234567901234567,32.3574074074074,0)" xlink:href="#T"/><use transform="matrix(0.06234567901234567,0,0,0.06234567901234567,37.28271604938271,0)" xlink:href="#T"/><use transform="matrix(0.06234567901234567,0,0,0.06234567901234567,42.20802469135801,0)" xlink:href="#N"/><use transform="matrix(0.06234567901234567,0,0,0.06234567901234567,54.677160493827145,0)" xlink:href="#T"/><use transform="matrix(0.06234567901234567,0,0,0.06234567901234567,59.60246913580245,0)" xlink:href="#U"/><use transform="matrix(0.06234567901234567,0,0,0.06234567901234567,64.52777777777776,0)" xlink:href="#V"/></g><path fill="#333" d="M212-179c-10-28-35-45-73-45-59 0-87 40-87 99 0 60 29 101 89 101 43 0 62-24 78-52l27 14C228-24 195 4 139 4 59 4 22-46 18-125c-6-104 99-153 187-111 19 9 31 26 39 46" id="ab"/><path fill="#333" d="M84 4C-5 8 30-112 23-190h32v120c0 31 7 50 39 49 72-2 45-101 50-169h31l1 190h-30c-1-10 1-25-2-33-11 22-28 36-60 37" id="ac"/><path fill="#333" d="M85-194c31 0 48 13 60 33l-1-100h32l1 261h-30c-2-10 0-23-3-31C134-8 116 4 85 4 32 4 16-35 15-94c0-66 23-100 70-100zm9 24c-40 0-46 34-46 75 0 40 6 74 45 74 42 0 51-32 51-76 0-42-9-74-50-73" id="ad"/><g id="l"><use transform="matrix(0.06234567901234567,0,0,0.06234567901234567,0,0)" xlink:href="#ab"/><use transform="matrix(0.06234567901234567,0,0,0.06234567901234567,16.147530864197527,0)" xlink:href="#H"/><use transform="matrix(0.06234567901234567,0,0,0.06234567901234567,28.61666666666666,0)" xlink:href="#Q"/><use transform="matrix(0.06234567901234567,0,0,0.06234567901234567,47.25802469135802,0)" xlink:href="#K"/><use transform="matrix(0.06234567901234567,0,0,0.06234567901234567,59.72716049382715,0)" xlink:href="#H"/><use transform="matrix(0.06234567901234567,0,0,0.06234567901234567,72.19629629629628,0)" xlink:href="#ac"/><use transform="matrix(0.06234567901234567,0,0,0.06234567901234567,84.66543209876542,0)" xlink:href="#O"/><use transform="matrix(0.06234567901234567,0,0,0.06234567901234567,97.13456790123456,0)" xlink:href="#ad"/></g><g id="m"><use transform="matrix(0.06234567901234567,0,0,0.06234567901234567,0,0)" xlink:href="#J"/><use transform="matrix(0.06234567901234567,0,0,0.06234567901234567,12.469135802469133,0)" xlink:href="#N"/><use transform="matrix(0.06234567901234567,0,0,0.06234567901234567,24.938271604938265,0)" xlink:href="#I"/></g><g id="n"><use transform="matrix(0.06234567901234567,0,0,0.06234567901234567,0,0)" xlink:href="#P"/><use transform="matrix(0.06234567901234567,0,0,0.06234567901234567,11.22222222222222,0)" xlink:href="#V"/><use transform="matrix(0.06234567901234567,0,0,0.06234567901234567,22.44444444444444,0)" xlink:href="#M"/><use transform="matrix(0.06234567901234567,0,0,0.06234567901234567,29.863580246913575,0)" xlink:href="#N"/><use transform="matrix(0.06234567901234567,0,0,0.06234567901234567,42.33271604938271,0)" xlink:href="#N"/><use transform="matrix(0.06234567901234567,0,0,0.06234567901234567,54.80185185185184,0)" xlink:href="#O"/></g><path fill="#333" d="M190 0L58-211 59 0H30v-248h39L202-35l-2-213h31V0h-41" id="ae"/><use transform="matrix(0.06234567901234567,0,0,0.06234567901234567,0,0)" xlink:href="#ae" id="o"/><path fill="#333" d="M33 0v-248h34V0H33" id="af"/><g id="p"><use transform="matrix(0.06234567901234567,0,0,0.06234567901234567,0,0)" xlink:href="#af"/><use transform="matrix(0.06234567901234567,0,0,0.06234567901234567,6.234567901234566,0)" xlink:href="#Q"/><use transform="matrix(0.06234567901234567,0,0,0.06234567901234567,24.87592592592592,0)" xlink:href="#K"/><use transform="matrix(0.06234567901234567,0,0,0.06234567901234567,37.34506172839505,0)" xlink:href="#M"/><use transform="matrix(0.06234567901234567,0,0,0.06234567901234567,44.76419753086419,0)" xlink:href="#U"/><use transform="matrix(0.06234567901234567,0,0,0.06234567901234567,49.689506172839494,0)" xlink:href="#O"/><use transform="matrix(0.06234567901234567,0,0,0.06234567901234567,62.158641975308626,0)" xlink:href="#I"/><use transform="matrix(0.06234567901234567,0,0,0.06234567901234567,68.3932098765432,0)" xlink:href="#N"/><use transform="matrix(0.06234567901234567,0,0,0.06234567901234567,80.86234567901232,0)" xlink:href="#ad"/></g><g id="q"><use transform="matrix(0.06234567901234567,0,0,0.06234567901234567,0,0)" xlink:href="#L"/><use transform="matrix(0.06234567901234567,0,0,0.06234567901234567,12.469135802469133,0)" xlink:href="#O"/><use transform="matrix(0.06234567901234567,0,0,0.06234567901234567,24.938271604938265,0)" xlink:href="#ad"/></g><path fill="#333" d="M30 0v-248h33v221h125V0H30" id="ag"/><path fill="#333" d="M63-220v92h138v28H63V0H30v-248h175v28H63" id="ah"/><path fill="#333" d="M68-38c1 34 0 65-14 84H32c9-13 17-26 17-46H33v-38h35" id="ai"/><g id="r"><use transform="matrix(0.06234567901234567,0,0,0.06234567901234567,0,0)" xlink:href="#ag"/><use transform="matrix(0.06234567901234567,0,0,0.06234567901234567,12.469135802469133,0)" xlink:href="#H"/><use transform="matrix(0.06234567901234567,0,0,0.06234567901234567,24.938271604938265,0)" xlink:href="#ah"/><use transform="matrix(0.06234567901234567,0,0,0.06234567901234567,36.09814814814814,0)" xlink:href="#ai"/></g><g id="s"><use transform="matrix(0.06234567901234567,0,0,0.06234567901234567,0,0)" xlink:href="#H"/><use transform="matrix(0.06234567901234567,0,0,0.06234567901234567,12.469135802469133,0)" xlink:href="#O"/><use transform="matrix(0.06234567901234567,0,0,0.06234567901234567,24.938271604938265,0)" xlink:href="#N"/></g><g id="t"><use transform="matrix(0.06234567901234567,0,0,0.06234567901234567,0,0)" xlink:href="#K"/><use transform="matrix(0.06234567901234567,0,0,0.06234567901234567,12.469135802469133,0)" xlink:href="#L"/><use transform="matrix(0.06234567901234567,0,0,0.06234567901234567,24.938271604938265,0)" xlink:href="#M"/><use transform="matrix(0.06234567901234567,0,0,0.06234567901234567,32.3574074074074,0)" xlink:href="#N"/><use transform="matrix(0.06234567901234567,0,0,0.06234567901234567,44.82654320987653,0)" xlink:href="#O"/><use transform="matrix(0.06234567901234567,0,0,0.06234567901234567,57.295679012345666,0)" xlink:href="#I"/></g><g id="u"><use transform="matrix(0.06234567901234567,0,0,0.06234567901234567,0,0)" xlink:href="#O"/><use transform="matrix(0.06234567901234567,0,0,0.06234567901234567,12.469135802469133,0)" xlink:href="#H"/><use transform="matrix(0.06234567901234567,0,0,0.06234567901234567,24.938271604938265,0)" xlink:href="#I"/></g><path fill="#333" d="M127-220V0H93v-220H8v-28h204v28h-85" id="aj"/><g id="v"><use transform="matrix(0.06234567901234567,0,0,0.06234567901234567,0,0)" xlink:href="#aj"/><use transform="matrix(0.06234567901234567,0,0,0.06234567901234567,12.843209876543208,0)" xlink:href="#M"/><use transform="matrix(0.06234567901234567,0,0,0.06234567901234567,20.26234567901234,0)" xlink:href="#L"/><use transform="matrix(0.06234567901234567,0,0,0.06234567901234567,32.731481481481474,0)" xlink:href="#O"/><use transform="matrix(0.06234567901234567,0,0,0.06234567901234567,45.200617283950606,0)" xlink:href="#P"/><use transform="matrix(0.06234567901234567,0,0,0.06234567901234567,56.42283950617283,0)" xlink:href="#Q"/><use transform="matrix(0.06234567901234567,0,0,0.06234567901234567,75.06419753086418,0)" xlink:href="#U"/><use transform="matrix(0.06234567901234567,0,0,0.06234567901234567,79.98950617283948,0)" xlink:href="#I"/><use transform="matrix(0.06234567901234567,0,0,0.06234567901234567,86.22407407407405,0)" xlink:href="#I"/><use transform="matrix(0.06234567901234567,0,0,0.06234567901234567,92.45864197530862,0)" xlink:href="#N"/><use transform="matrix(0.06234567901234567,0,0,0.06234567901234567,104.92777777777775,0)" xlink:href="#ad"/></g><g id="w"><use transform="matrix(0.06234567901234567,0,0,0.06234567901234567,0,0)" xlink:href="#R"/><use transform="matrix(0.06234567901234567,0,0,0.06234567901234567,6.234567901234566,0)" xlink:href="#M"/><use transform="matrix(0.06234567901234567,0,0,0.06234567901234567,13.653703703703702,0)" xlink:href="#H"/><use transform="matrix(0.06234567901234567,0,0,0.06234567901234567,26.122839506172834,0)" xlink:href="#Q"/></g><g id="x"><use transform="matrix(0.06234567901234567,0,0,0.06234567901234567,0,0)" xlink:href="#L"/><use transform="matrix(0.06234567901234567,0,0,0.06234567901234567,12.469135802469133,0)" xlink:href="#R"/><use transform="matrix(0.06234567901234567,0,0,0.06234567901234567,18.26728395061728,0)" xlink:href="#R"/><use transform="matrix(0.06234567901234567,0,0,0.06234567901234567,24.501851851851846,0)" xlink:href="#N"/><use transform="matrix(0.06234567901234567,0,0,0.06234567901234567,36.97098765432098,0)" xlink:href="#V"/><use transform="matrix(0.06234567901234567,0,0,0.06234567901234567,48.1932098765432,0)" xlink:href="#I"/><use transform="matrix(0.06234567901234567,0,0,0.06234567901234567,54.42777777777776,0)" xlink:href="#N"/><use transform="matrix(0.06234567901234567,0,0,0.06234567901234567,66.89691358024689,0)" xlink:href="#ad"/></g><g id="y"><use transform="matrix(0.06234567901234567,0,0,0.06234567901234567,0,0)" xlink:href="#K"/><use transform="matrix(0.06234567901234567,0,0,0.06234567901234567,12.469135802469133,0)" xlink:href="#L"/><use transform="matrix(0.06234567901234567,0,0,0.06234567901234567,24.938271604938265,0)" xlink:href="#M"/><use transform="matrix(0.06234567901234567,0,0,0.06234567901234567,32.3574074074074,0)" xlink:href="#N"/><use transform="matrix(0.06234567901234567,0,0,0.06234567901234567,44.82654320987653,0)" xlink:href="#O"/><use transform="matrix(0.06234567901234567,0,0,0.06234567901234567,57.295679012345666,0)" xlink:href="#I"/><use transform="matrix(0.06234567901234567,0,0,0.06234567901234567,63.53024691358023,0)" xlink:href="#ai"/></g><g id="z"><use transform="matrix(0.06234567901234567,0,0,0.06234567901234567,0,0)" xlink:href="#H"/><use transform="matrix(0.06234567901234567,0,0,0.06234567901234567,12.469135802469133,0)" xlink:href="#I"/><use transform="matrix(0.06234567901234567,0,0,0.06234567901234567,18.7037037037037,0)" xlink:href="#J"/><use transform="matrix(0.06234567901234567,0,0,0.06234567901234567,31.17283950617283,0)" xlink:href="#N"/><use transform="matrix(0.06234567901234567,0,0,0.06234567901234567,43.64197530864196,0)" xlink:href="#M"/></g><g id="A"><use transform="matrix(0.06234567901234567,0,0,0.06234567901234567,0,0)" xlink:href="#K"/><use transform="matrix(0.06234567901234567,0,0,0.06234567901234567,12.469135802469133,0)" xlink:href="#L"/><use transform="matrix(0.06234567901234567,0,0,0.06234567901234567,24.938271604938265,0)" xlink:href="#M"/><use transform="matrix(0.06234567901234567,0,0,0.06234567901234567,32.3574074074074,0)" xlink:href="#N"/><use transform="matrix(0.06234567901234567,0,0,0.06234567901234567,44.82654320987653,0)" xlink:href="#O"/><use transform="matrix(0.06234567901234567,0,0,0.06234567901234567,57.295679012345666,0)" xlink:href="#I"/></g><g id="B"><use transform="matrix(0.06234567901234567,0,0,0.06234567901234567,0,0)" xlink:href="#H"/><use transform="matrix(0.06234567901234567,0,0,0.06234567901234567,12.469135802469133,0)" xlink:href="#M"/></g><g id="C"><use transform="matrix(0.06234567901234567,0,0,0.06234567901234567,0,0)" xlink:href="#G"/><use transform="matrix(0.06234567901234567,0,0,0.06234567901234567,14.96296296296296,0)" xlink:href="#U"/><use transform="matrix(0.06234567901234567,0,0,0.06234567901234567,19.888271604938268,0)" xlink:href="#L"/><use transform="matrix(0.06234567901234567,0,0,0.06234567901234567,32.3574074074074,0)" xlink:href="#T"/><use transform="matrix(0.06234567901234567,0,0,0.06234567901234567,37.28271604938271,0)" xlink:href="#T"/><use transform="matrix(0.06234567901234567,0,0,0.06234567901234567,42.20802469135801,0)" xlink:href="#N"/><use transform="matrix(0.06234567901234567,0,0,0.06234567901234567,54.677160493827145,0)" xlink:href="#T"/><use transform="matrix(0.06234567901234567,0,0,0.06234567901234567,59.60246913580245,0)" xlink:href="#U"/><use transform="matrix(0.06234567901234567,0,0,0.06234567901234567,64.52777777777776,0)" xlink:href="#V"/></g><g id="D"><use transform="matrix(0.06234567901234567,0,0,0.06234567901234567,0,0)" xlink:href="#ac"/><use transform="matrix(0.06234567901234567,0,0,0.06234567901234567,12.469135802469133,0)" xlink:href="#O"/><use transform="matrix(0.06234567901234567,0,0,0.06234567901234567,24.938271604938265,0)" xlink:href="#L"/><use transform="matrix(0.06234567901234567,0,0,0.06234567901234567,37.4074074074074,0)" xlink:href="#R"/><use transform="matrix(0.06234567901234567,0,0,0.06234567901234567,43.20555555555555,0)" xlink:href="#R"/><use transform="matrix(0.06234567901234567,0,0,0.06234567901234567,49.44012345679012,0)" xlink:href="#N"/><use transform="matrix(0.06234567901234567,0,0,0.06234567901234567,61.90925925925925,0)" xlink:href="#V"/><use transform="matrix(0.06234567901234567,0,0,0.06234567901234567,73.13148148148147,0)" xlink:href="#I"/><use transform="matrix(0.06234567901234567,0,0,0.06234567901234567,79.36604938271604,0)" xlink:href="#N"/><use transform="matrix(0.06234567901234567,0,0,0.06234567901234567,91.83518518518517,0)" xlink:href="#ad"/></g><g id="E"><use transform="matrix(0.06234567901234567,0,0,0.06234567901234567,0,0)" xlink:href="#L"/><use transform="matrix(0.06234567901234567,0,0,0.06234567901234567,12.469135802469133,0)" xlink:href="#T"/><use transform="matrix(0.06234567901234567,0,0,0.06234567901234567,17.39444444444444,0)" xlink:href="#I"/></g><path fill="#333" d="M233-177c-1 41-23 64-60 70L243 0h-38l-65-103H63V0H30v-248c88 3 205-21 203 71zM63-129c60-2 137 13 137-47 0-61-80-42-137-45v92" id="ak"/><path fill="#333" d="M24-231v-30h32v30H24zM-9 49c24 4 33-6 33-30v-209h32V24c2 40-23 58-65 49V49" id="al"/><g id="F"><use transform="matrix(0.06234567901234567,0,0,0.06234567901234567,0,0)" xlink:href="#ak"/><use transform="matrix(0.06234567901234567,0,0,0.06234567901234567,16.147530864197527,0)" xlink:href="#N"/><use transform="matrix(0.06234567901234567,0,0,0.06234567901234567,28.61666666666666,0)" xlink:href="#al"/><use transform="matrix(0.06234567901234567,0,0,0.06234567901234567,33.541975308641966,0)" xlink:href="#N"/><use transform="matrix(0.06234567901234567,0,0,0.06234567901234567,46.0111111111111,0)" xlink:href="#V"/><use transform="matrix(0.06234567901234567,0,0,0.06234567901234567,57.23333333333332,0)" xlink:href="#I"/></g></defs></g></svg>