<svg xmlns="http://www.w3.org/2000/svg" xmlns:xlink="http://www.w3.org/1999/xlink" xmlns:lucid="lucid" width="1760" height="1360"><g transform="translate(0 0)" lucid:page-tab-id="0_0"><path d="M274.34 80.56a8 8 0 0 1 11.32 0l68.68 68.6a8 8 0 0 1 0 11.3l-68.68 68.6a8 8 0 0 1-11.32 0l-68.68-68.6a8 8 0 0 1 0-11.3z" stroke="#333" fill="#fff"/><use xlink:href="#a" transform="matrix(1,0,0,1,231.5,106.40817001814564) translate(20.864197530864203 21.611111111111114)"/><use xlink:href="#b" transform="matrix(1,0,0,1,231.5,106.40817001814564) translate(3.7225308641975374 53.87777777777777)"/><use xlink:href="#c" transform="matrix(1,0,0,1,231.5,106.40817001814564) translate(3.0129629629629733 86.14444444444443)"/><use xlink:href="#d" transform="matrix(1,0,0,1,231.5,106.40817001814564) translate(62.691358024691354 86.14444444444443)"/><path d="M555 102.8a8 8 0 0 1 8-8h144a8 8 0 0 1 8 8v104a8 8 0 0 1-8 8H563a8 8 0 0 1-8-8z" stroke="#333" fill="#c7e8ac"/><use xlink:href="#e" transform="matrix(1,0,0,1,567,106.80817001814563) translate(30.729012345679017 37.24444444444445)"/><use xlink:href="#f" transform="matrix(1,0,0,1,567,106.80817001814563) translate(27.741358024691365 69.5111111111111)"/><path d="M538.12 158.2v1H464.8v-1zm-180.44-2.9v-1h89.2v1z" stroke="#333" stroke-width=".05" fill="#333"/><path d="M357.7 155.3h-.56l.05-.5-.05-.5h.55z" fill="#333"/><path d="M357.72 155.33h-.6l.04-.52-.04-.52h.6zm-.55-1l.04.48-.03.48h.5v-.95z" stroke="#333" stroke-width=".05" fill="#333"/><path d="M552.88 158.7l-14.26 4.64v-9.27z" fill="#333"/><path d="M554.5 158.7l-16.38 5.33v-10.65zm-15.38 3.96l12.14-3.95-12.14-3.94z" stroke="#333" stroke-width=".05" fill="#333"/><use xlink:href="#g" transform="matrix(1,0,0,1,446.87950300979617,140.62483538279375) translate(0.005000000000000782 21.511111111111106)"/><path d="M274.06 287.06a8.85 8.85 0 0 1 11.88 0L439.06 425.5a7.23 7.23 0 0 1 0 10.7L285.94 574.65a8.85 8.85 0 0 1-11.88 0L120.94 436.2a7.23 7.23 0 0 1 0-10.7z" stroke="#333" fill="#fff"/><use xlink:href="#h" transform="matrix(1,0,0,1,146.5,313.20000000000005) translate(50.741975308642 74.97777777777779)"/><use xlink:href="#i" transform="matrix(1,0,0,1,146.5,313.20000000000005) translate(162.62962962962962 74.97777777777779)"/><use xlink:href="#j" transform="matrix(1,0,0,1,146.5,313.20000000000005) translate(6.1138888888889085 107.24444444444445)"/><use xlink:href="#k" transform="matrix(1,0,0,1,146.5,313.20000000000005) translate(108.66512345679013 107.24444444444445)"/><use xlink:href="#l" transform="matrix(1,0,0,1,146.5,313.20000000000005) translate(199.71388888888887 107.24444444444445)"/><use xlink:href="#m" transform="matrix(1,0,0,1,146.5,313.20000000000005) translate(28.5212962962963 139.51111111111112)"/><use xlink:href="#j" transform="matrix(1,0,0,1,146.5,313.20000000000005) translate(112.10092592592592 139.51111111111112)"/><use xlink:href="#n" transform="matrix(1,0,0,1,146.5,313.20000000000005) translate(214.65216049382715 139.51111111111112)"/><use xlink:href="#c" transform="matrix(1,0,0,1,146.5,313.20000000000005) translate(88.01296296296297 171.77777777777777)"/><use xlink:href="#d" transform="matrix(1,0,0,1,146.5,313.20000000000005) translate(147.69135802469134 171.77777777777777)"/><path d="M280.5 242.78h-1V232.4h1z" stroke="#333" stroke-width=".05" fill="#333"/><path d="M280 231.9l.5-.04v.55h-1v-.54z" fill="#333"/><path d="M280 231.87l.52-.04v.6h-1.04v-.6zm-.48.52h.96v-.5l-.48.02-.48-.03z" stroke="#333" stroke-width=".05" fill="#333"/><path d="M280 284.3l-3-9.25h6z" fill="#333"/><path d="M280 285.93l-3.54-10.88h1.06l2.48 7.65 2.5-7.65h1.04z" stroke="#333" stroke-width=".05" fill="#333"/><use xlink:href="#o" transform="matrix(1,0,0,1,270.32746913580246,242.7820080957465) translate(0.005000000000000782 21.511111111111106)"/><path d="M698.62 322.1a10.56 10.56 0 0 1 12.76 0L848.62 426a6.06 6.06 0 0 1 0 9.66L711.38 539.6a10.56 10.56 0 0 1-12.76 0L561.38 435.7a6.06 6.06 0 0 1 0-9.66z" stroke="#333" fill="#fff"/><use xlink:href="#p" transform="matrix(1,0,0,1,586.5,348.76156051669557) translate(8.1061728395062 71.74444444444444)"/><use xlink:href="#q" transform="matrix(1,0,0,1,586.5,348.76156051669557) translate(33.50123456790126 71.74444444444444)"/><use xlink:href="#r" transform="matrix(1,0,0,1,586.5,348.76156051669557) translate(111.03086419753086 71.74444444444444)"/><use xlink:href="#s" transform="matrix(1,0,0,1,586.5,348.76156051669557) translate(32.754320987654324 104.0111111111111)"/><path d="M491 431.35h-50.26v-1H491zm52.3 0H508.9v-1h34.37z" stroke="#333" stroke-width=".05" fill="#333"/><path d="M440.75 431.35h-3.5v-1h3.5z" stroke="#333" stroke-width=".05" fill="#333"/><path d="M558.06 430.85l-14.27 4.63v-9.27z" fill="#333"/><path d="M559.67 430.85l-16.38 5.32v-10.64zm-15.38 3.95l12.14-3.95-12.15-3.95z" stroke="#333" stroke-width=".05" fill="#333"/><use xlink:href="#g" transform="matrix(1,0,0,1,490.99315565815994,414.7166666666667) translate(0.005000000000000782 21.511111111111106)"/><path d="M698.35 623.7a11.98 11.98 0 0 1 13.3 0l76.58 51.1a5.34 5.34 0 0 1 0 8.9l-76.58 51.1a11.98 11.98 0 0 1-13.3 0l-76.58-51.1a5.34 5.34 0 0 1 0-8.9z" stroke="#333" fill="#fff"/><use xlink:href="#t" transform="matrix(1,0,0,1,646.619109590273,650.7518789666088) translate(-15.332407407407402 33.87777777777778)"/><path d="M705.5 604.8h-1v-7.6h1zm0-39.87h-1v-23.48h1z" stroke="#333" stroke-width=".05" fill="#333"/><path d="M705.5 541.47h-1v-3.52h1z" stroke="#333" stroke-width=".05" fill="#333"/><path d="M705 619.56l-4.63-14.27h9.26z" fill="#333"/><path d="M705 621.18l-5.32-16.4h10.64zm-3.95-15.4l3.95 12.16 3.95-12.15z" stroke="#333" stroke-width=".05" fill="#333"/><use xlink:href="#o" transform="matrix(1,0,0,1,695.3274691358025,564.9308442315249) translate(0.005000000000000782 21.511111111111106)"/><path d="M945.6 374.95a8 8 0 0 1 8-8h154.54a8 8 0 0 1 8 8v104a8 8 0 0 1-8 8H953.6a8 8 0 0 1-8-8z" stroke="#333" fill="#c7e8ac"/><use xlink:href="#e" transform="matrix(1,0,0,1,957.5894977142016,378.95149868171814) translate(36.22901234567902 37.24444444444445)"/><use xlink:href="#f" transform="matrix(1,0,0,1,957.5894977142016,378.95149868171814) translate(33.241358024691365 69.5111111111111)"/><path d="M888.75 431.35h-37.92v-1h37.9zm39.96 0h-22.03v-1h22.04z" stroke="#333" stroke-width=".05" fill="#333"/><path d="M850.84 431.35h-3.5v-1h3.5z" stroke="#333" stroke-width=".05" fill="#333"/><path d="M943.47 430.85l-14.26 4.63v-9.27z" fill="#333"/><path d="M945.1 430.85l-16.4 5.32v-10.64zm-15.4 3.95l12.15-3.95-12.14-3.95z" stroke="#333" stroke-width=".05" fill="#333"/><use xlink:href="#g" transform="matrix(1,0,0,1,888.7448037375661,414.71666666368293) translate(0.005000000000000782 21.511111111111106)"/><path d="M945.6 627.25a8 8 0 0 1 8-8h144a8 8 0 0 1 8 8v104a8 8 0 0 1-8 8h-144a8 8 0 0 1-8-8z" stroke="#333" fill="#ffeca9"/><use xlink:href="#u" transform="matrix(1,0,0,1,957.5894977142016,631.2518789666088) translate(2.346296296296316 37.24444444444445)"/><use xlink:href="#v" transform="matrix(1,0,0,1,957.5894977142016,631.2518789666088) translate(5.296604938271628 69.5111111111111)"/><use xlink:href="#w" transform="matrix(1,0,0,1,957.5894977142016,631.2518789666088) translate(50.11141975308643 69.5111111111111)"/><path d="M859.13 679.75H791.6v-1h67.53zm69.58 0h-51.64v-1h51.65z" stroke="#333" stroke-width=".05" fill="#333"/><path d="M791.62 679.75h-.56l.05-.5-.04-.5h.56z" fill="#333"/><path d="M791.64 679.78h-.6l.04-.53-.05-.52h.6zm-.56-1l.05.47-.05.48h.5v-.95z" stroke="#333" stroke-width=".05" fill="#333"/><path d="M943.47 679.25l-14.26 4.64v-9.28z" fill="#333"/><path d="M945.1 679.25l-16.4 5.33v-10.65zm-15.4 3.95l12.15-3.95-12.14-3.95z" stroke="#333" stroke-width=".05" fill="#333"/><use xlink:href="#g" transform="matrix(1,0,0,1,859.134280824251,663.1185456332755) translate(0.005000000000000782 21.511111111111106)"/><path d="M625 828a8 8 0 0 1 8-8h144a8 8 0 0 1 8 8v104a8 8 0 0 1-8 8H633a8 8 0 0 1-8-8z" stroke="#333" fill="#ffbbb1"/><use xlink:href="#x" transform="matrix(1,0,0,1,637,832.0000000000001) translate(29.9820987654321 53.37777777777778)"/><path d="M705.5 803.12h-1v-8.57h1zm0-40.84h-1v-24.45h1z" stroke="#333" stroke-width=".05" fill="#333"/><path d="M705 737.33l.5-.03v.54h-1v-.54z" fill="#333"/><path d="M705 737.3l.52-.03v.6h-1.04v-.6zm-.48.52h.96v-.5l-.48.03-.48-.02z" stroke="#333" stroke-width=".05" fill="#333"/><path d="M705 817.88l-4.63-14.26h9.26z" fill="#333"/><path d="M705 819.5l-5.32-16.38h10.64zm-3.95-15.38l3.95 12.14 3.95-12.14z" stroke="#333" stroke-width=".05" fill="#333"/><use xlink:href="#o" transform="matrix(1,0,0,1,695.3274691358025,762.2806186404113) translate(0.005000000000000782 21.511111111111106)"/><path d="M280.5 643.6h-1v-8.76h1zm0-41.03h-1v-24.65h1z" stroke="#333" stroke-width=".05" fill="#333"/><path d="M280 577.42l.5-.03v.53h-1v-.54z" fill="#333"/><path d="M280 577.4l.52-.04v.6h-1.04v-.6zm-.48.5h.96v-.5l-.48.05-.48-.04z" stroke="#333" stroke-width=".05" fill="#333"/><path d="M280 658.37l-4.63-14.26h9.26z" fill="#333"/><path d="M280 660l-5.32-16.4h10.64zm-3.95-15.4l3.95 12.16 3.95-12.15z" stroke="#333" stroke-width=".05" fill="#333"/><g><use xlink:href="#o" transform="matrix(1,0,0,1,270.32746913580246,602.5736429496227) translate(0.005000000000000782 21.511111111111106)"/></g><path d="M273.53 662.6a11 11 0 0 1 12.94 0l167.06 121.64a5.83 5.83 0 0 1 0 9.4L286.47 915.3a11 11 0 0 1-12.94 0L106.47 793.64a5.83 5.83 0 0 1 0-9.4z" stroke="#333" fill="#fff"/><g><use xlink:href="#y" transform="matrix(1,0,0,1,131.50000000000006,689.3896402472385) translate(0.1256172839506462 89.24444444444445)"/><use xlink:href="#z" transform="matrix(1,0,0,1,131.50000000000006,689.3896402472385) translate(53.82870370370372 89.24444444444445)"/><use xlink:href="#A" transform="matrix(1,0,0,1,131.50000000000006,689.3896402472385) translate(79.22376543209877 89.24444444444445)"/><use xlink:href="#B" transform="matrix(1,0,0,1,131.50000000000006,689.3896402472385) translate(183.56759259259258 89.24444444444445)"/><use xlink:href="#z" transform="matrix(1,0,0,1,131.50000000000006,689.3896402472385) translate(41.76604938271609 121.5111111111111)"/><use xlink:href="#C" transform="matrix(1,0,0,1,131.50000000000006,689.3896402472385) translate(67.16111111111115 121.5111111111111)"/><use xlink:href="#D" transform="matrix(1,0,0,1,131.50000000000006,689.3896402472385) translate(119.44506172839509 121.5111111111111)"/><use xlink:href="#c" transform="matrix(1,0,0,1,131.50000000000006,689.3896402472385) translate(164.25987654320988 121.5111111111111)"/><use xlink:href="#d" transform="matrix(1,0,0,1,131.50000000000006,689.3896402472385) translate(223.93827160493825 121.5111111111111)"/></g><path d="M506.25 617.22H404.67l-1.82.15-1.76.42-1.67.68-1.54.94-1.38 1.17-1.18 1.36-.94 1.54-.7 1.67-.4 1.75-.15 1.82V738.8h-1V628.7l.15-1.93.46-1.9.75-1.82 1.03-1.68 1.28-1.5 1.5-1.26 1.67-1.02 1.8-.75 1.92-.46 1.93-.15h101.62zm132.02-12.48l-.15 1.94-.46 1.9-.75 1.82-1 1.67-1.3 1.5-1.48 1.27-1.67 1.02-1.8.75-1.92.47-1.94.15H524.16v-1h101.6l1.8-.14 1.76-.42 1.66-.7 1.53-.94 1.38-1.17 1.18-1.37.94-1.54.7-1.66.4-1.76.15-1.82v-94.16h1z" stroke="#333" stroke-width=".05" fill="#333"/><path d="M393.15 739.65l-1-.73v-.15h1z" fill="#333"/><path d="M393.17 739.7l-1.05-.76v-.2h1.05zm-1-.9v.1l.95.7v-.8z" stroke="#333" stroke-width=".05" fill="#333"/><path d="M642.4 510.04h-9.26l4.63-14.26z" fill="#333"/><path d="M643.1 510.54h-10.65l5.32-16.38zm-9.27-1h7.9l-3.96-12.15z" stroke="#333" stroke-width=".05" fill="#333"/><g><use xlink:href="#g" transform="matrix(1,0,0,1,506.2471558802862,600.5893751422523) translate(0.005000000000000782 21.511111111111106)"/></g><path d="M200 1013.3a8 8 0 0 1 8-8h144a8 8 0 0 1 8 8v104a8 8 0 0 1-8 8H208a8 8 0 0 1-8-8z" stroke="#333" fill="#ffbbb1"/><g><use xlink:href="#x" transform="matrix(1,0,0,1,212,1017.2989681950157) translate(29.9820987654321 53.37777777777778)"/></g><path d="M280.5 988.4h-1V977.5h1zm0-43.18h-1V918.4h1z" stroke="#333" stroke-width=".05" fill="#333"/><path d="M280 917.9l.5-.03v.54h-1v-.53z" fill="#333"/><path d="M280 917.87l.52-.03v.6h-1.04v-.6zm-.48.5h.96v-.48l-.48.02-.48-.03z" stroke="#333" stroke-width=".05" fill="#333"/><path d="M280 1003.18l-4.63-14.26h9.26z" fill="#333"/><path d="M280 1004.8l-5.32-16.38h10.64zm-3.95-15.38l3.95 12.14 3.95-12.14z" stroke="#333" stroke-width=".05" fill="#333"/><g><use xlink:href="#o" transform="matrix(1,0,0,1,270.32746913580246,945.214753001436) translate(0.005000000000000782 21.511111111111106)"/></g><defs><path fill="#333" d="M160-131c35 5 61 23 61 61C221 17 115-2 30 0v-248c76 3 177-17 177 60 0 33-19 50-47 57zm-97-11c50-1 110 9 110-42 0-47-63-36-110-37v79zm0 115c55-2 124 14 124-45 0-56-70-42-124-44v89" id="E"/><path fill="#333" d="M100-194c62-1 85 37 85 99 1 63-27 99-86 99S16-35 15-95c0-66 28-99 85-99zM99-20c44 1 53-31 53-75 0-43-8-75-51-75s-53 32-53 75 10 74 51 75" id="F"/><path fill="#333" d="M59-47c-2 24 18 29 38 22v24C64 9 27 4 27-40v-127H5v-23h24l9-43h21v43h35v23H59v120" id="G"/><path fill="#333" d="M106-169C34-169 62-67 57 0H25v-261h32l-1 103c12-21 28-36 61-36 89 0 53 116 60 194h-32v-121c2-32-8-49-39-48" id="H"/><g id="a"><use transform="matrix(0.07469135802469135,0,0,0.07469135802469135,0,0)" xlink:href="#E"/><use transform="matrix(0.07469135802469135,0,0,0.07469135802469135,17.925925925925924,0)" xlink:href="#F"/><use transform="matrix(0.07469135802469135,0,0,0.07469135802469135,32.86419753086419,0)" xlink:href="#G"/><use transform="matrix(0.07469135802469135,0,0,0.07469135802469135,40.33333333333332,0)" xlink:href="#H"/></g><path fill="#333" d="M115-194c55 1 70 41 70 98S169 2 115 4C84 4 66-9 55-30l1 105H24l-1-265h31l2 30c10-21 28-34 59-34zm-8 174c40 0 45-34 45-75s-6-73-45-74c-42 0-51 32-51 76 0 43 10 73 51 73" id="I"/><path fill="#333" d="M141-36C126-15 110 5 73 4 37 3 15-17 15-53c-1-64 63-63 125-63 3-35-9-54-41-54-24 1-41 7-42 31l-33-3c5-37 33-52 76-52 45 0 72 20 72 64v82c-1 20 7 32 28 27v20c-31 9-61-2-59-35zM48-53c0 20 12 33 32 33 41-3 63-29 60-74-43 2-92-5-92 41" id="J"/><path fill="#333" d="M114-163C36-179 61-72 57 0H25l-1-190h30c1 12-1 29 2 39 6-27 23-49 58-41v29" id="K"/><path fill="#333" d="M100-194c63 0 86 42 84 106H49c0 40 14 67 53 68 26 1 43-12 49-29l28 8c-11 28-37 45-77 45C44 4 14-33 15-96c1-61 26-98 85-98zm52 81c6-60-76-77-97-28-3 7-6 17-6 28h103" id="L"/><path fill="#333" d="M117-194c89-4 53 116 60 194h-32v-121c0-31-8-49-39-48C34-167 62-67 57 0H25l-1-190h30c1 10-1 24 2 32 11-22 29-35 61-36" id="M"/><path fill="#333" d="M135-143c-3-34-86-38-87 0 15 53 115 12 119 90S17 21 10-45l28-5c4 36 97 45 98 0-10-56-113-15-118-90-4-57 82-63 122-42 12 7 21 19 24 35" id="N"/><g id="b"><use transform="matrix(0.07469135802469135,0,0,0.07469135802469135,0,0)" xlink:href="#I"/><use transform="matrix(0.07469135802469135,0,0,0.07469135802469135,14.938271604938269,0)" xlink:href="#J"/><use transform="matrix(0.07469135802469135,0,0,0.07469135802469135,29.876543209876537,0)" xlink:href="#K"/><use transform="matrix(0.07469135802469135,0,0,0.07469135802469135,38.764814814814805,0)" xlink:href="#L"/><use transform="matrix(0.07469135802469135,0,0,0.07469135802469135,53.70308641975308,0)" xlink:href="#M"/><use transform="matrix(0.07469135802469135,0,0,0.07469135802469135,68.64135802469134,0)" xlink:href="#G"/><use transform="matrix(0.07469135802469135,0,0,0.07469135802469135,76.11049382716048,0)" xlink:href="#N"/></g><path fill="#333" d="M210-169c-67 3-38 105-44 169h-31v-121c0-29-5-50-35-48C34-165 62-65 56 0H25l-1-190h30c1 10-1 24 2 32 10-44 99-50 107 0 11-21 27-35 58-36 85-2 47 119 55 194h-31v-121c0-29-5-49-35-48" id="O"/><g id="c"><use transform="matrix(0.07469135802469135,0,0,0.07469135802469135,0,0)" xlink:href="#H"/><use transform="matrix(0.07469135802469135,0,0,0.07469135802469135,14.938271604938269,0)" xlink:href="#F"/><use transform="matrix(0.07469135802469135,0,0,0.07469135802469135,29.876543209876537,0)" xlink:href="#O"/></g><path fill="#333" d="M101-234c-31-9-42 10-38 44h38v23H63V0H32v-167H5v-23h27c-7-52 17-82 69-68v24" id="P"/><g id="d"><use transform="matrix(0.07469135802469135,0,0,0.07469135802469135,0,0)" xlink:href="#K"/><use transform="matrix(0.07469135802469135,0,0,0.07469135802469135,8.88827160493827,0)" xlink:href="#L"/><use transform="matrix(0.07469135802469135,0,0,0.07469135802469135,23.82654320987654,0)" xlink:href="#P"/></g><path fill="#333" d="M185-189c-5-48-123-54-124 2 14 75 158 14 163 119 3 78-121 87-175 55-17-10-28-26-33-46l33-7c5 56 141 63 141-1 0-78-155-14-162-118-5-82 145-84 179-34 5 7 8 16 11 25" id="Q"/><path fill="#333" d="M24-231v-30h32v30H24zM24 0v-190h32V0H24" id="R"/><path fill="#333" d="M177-190C167-65 218 103 67 71c-23-6-38-20-44-43l32-5c15 47 100 32 89-28v-30C133-14 115 1 83 1 29 1 15-40 15-95c0-56 16-97 71-98 29-1 48 16 59 35 1-10 0-23 2-32h30zM94-22c36 0 50-32 50-73 0-42-14-75-50-75-39 0-46 34-46 75s6 73 46 73" id="S"/><path fill="#333" d="M24 0v-261h32V0H24" id="T"/><g id="e"><use transform="matrix(0.07469135802469135,0,0,0.07469135802469135,0,0)" xlink:href="#Q"/><use transform="matrix(0.07469135802469135,0,0,0.07469135802469135,17.925925925925924,0)" xlink:href="#R"/><use transform="matrix(0.07469135802469135,0,0,0.07469135802469135,23.82654320987654,0)" xlink:href="#M"/><use transform="matrix(0.07469135802469135,0,0,0.07469135802469135,38.764814814814805,0)" xlink:href="#S"/><use transform="matrix(0.07469135802469135,0,0,0.07469135802469135,53.70308641975308,0)" xlink:href="#T"/><use transform="matrix(0.07469135802469135,0,0,0.07469135802469135,59.603703703703694,0)" xlink:href="#L"/></g><path fill="#333" d="M108 0H70L1-190h34L89-25l56-165h34" id="U"/><g id="f"><use transform="matrix(0.07469135802469135,0,0,0.07469135802469135,0,0)" xlink:href="#U"/><use transform="matrix(0.07469135802469135,0,0,0.07469135802469135,13.444444444444443,0)" xlink:href="#J"/><use transform="matrix(0.07469135802469135,0,0,0.07469135802469135,28.38271604938271,0)" xlink:href="#K"/><use transform="matrix(0.07469135802469135,0,0,0.07469135802469135,37.27098765432098,0)" xlink:href="#R"/><use transform="matrix(0.07469135802469135,0,0,0.07469135802469135,43.1716049382716,0)" xlink:href="#J"/><use transform="matrix(0.07469135802469135,0,0,0.07469135802469135,58.109876543209865,0)" xlink:href="#M"/><use transform="matrix(0.07469135802469135,0,0,0.07469135802469135,73.04814814814813,0)" xlink:href="#G"/></g><path fill="#333" d="M137-103V0h-34v-103L8-248h37l75 118 75-118h37" id="V"/><use transform="matrix(0.07469135802469135,0,0,0.07469135802469135,0,0)" xlink:href="#V" id="g"/><path fill="#333" d="M33 0v-248h34V0H33" id="W"/><path fill="#333" d="M85-194c31 0 48 13 60 33l-1-100h32l1 261h-30c-2-10 0-23-3-31C134-8 116 4 85 4 32 4 16-35 15-94c0-66 23-100 70-100zm9 24c-40 0-46 34-46 75 0 40 6 74 45 74 42 0 51-32 51-76 0-42-9-74-50-73" id="X"/><g id="h"><use transform="matrix(0.07469135802469135,0,0,0.07469135802469135,0,0)" xlink:href="#W"/><use transform="matrix(0.07469135802469135,0,0,0.07469135802469135,7.469135802469134,0)" xlink:href="#M"/><use transform="matrix(0.07469135802469135,0,0,0.07469135802469135,22.407407407407405,0)" xlink:href="#H"/><use transform="matrix(0.07469135802469135,0,0,0.07469135802469135,37.34567901234567,0)" xlink:href="#L"/><use transform="matrix(0.07469135802469135,0,0,0.07469135802469135,52.283950617283935,0)" xlink:href="#K"/><use transform="matrix(0.07469135802469135,0,0,0.07469135802469135,61.1722222222222,0)" xlink:href="#R"/><use transform="matrix(0.07469135802469135,0,0,0.07469135802469135,67.07283950617281,0)" xlink:href="#G"/><use transform="matrix(0.07469135802469135,0,0,0.07469135802469135,74.54197530864195,0)" xlink:href="#L"/><use transform="matrix(0.07469135802469135,0,0,0.07469135802469135,89.48024691358022,0)" xlink:href="#X"/></g><g id="i"><use transform="matrix(0.07469135802469135,0,0,0.07469135802469135,0,0)" xlink:href="#P"/><use transform="matrix(0.07469135802469135,0,0,0.07469135802469135,7.469135802469134,0)" xlink:href="#K"/><use transform="matrix(0.07469135802469135,0,0,0.07469135802469135,16.357407407407404,0)" xlink:href="#F"/><use transform="matrix(0.07469135802469135,0,0,0.07469135802469135,31.295679012345673,0)" xlink:href="#O"/></g><path fill="#333" d="M96-169c-40 0-48 33-48 73s9 75 48 75c24 0 41-14 43-38l32 2c-6 37-31 61-74 61-59 0-76-41-82-99-10-93 101-131 147-64 4 7 5 14 7 22l-32 3c-4-21-16-35-41-35" id="Y"/><g id="j"><use transform="matrix(0.07469135802469135,0,0,0.07469135802469135,0,0)" xlink:href="#J"/><use transform="matrix(0.07469135802469135,0,0,0.07469135802469135,14.938271604938269,0)" xlink:href="#P"/><use transform="matrix(0.07469135802469135,0,0,0.07469135802469135,21.88456790123456,0)" xlink:href="#P"/><use transform="matrix(0.07469135802469135,0,0,0.07469135802469135,29.353703703703694,0)" xlink:href="#L"/><use transform="matrix(0.07469135802469135,0,0,0.07469135802469135,44.291975308641966,0)" xlink:href="#Y"/><use transform="matrix(0.07469135802469135,0,0,0.07469135802469135,57.73641975308641,0)" xlink:href="#G"/><use transform="matrix(0.07469135802469135,0,0,0.07469135802469135,65.20555555555555,0)" xlink:href="#L"/><use transform="matrix(0.07469135802469135,0,0,0.07469135802469135,80.14382716049381,0)" xlink:href="#X"/></g><path fill="#333" d="M68-38c1 34 0 65-14 84H32c9-13 17-26 17-46H33v-38h35" id="Z"/><g id="k"><use transform="matrix(0.07469135802469135,0,0,0.07469135802469135,0,0)" xlink:href="#I"/><use transform="matrix(0.07469135802469135,0,0,0.07469135802469135,14.938271604938269,0)" xlink:href="#J"/><use transform="matrix(0.07469135802469135,0,0,0.07469135802469135,29.876543209876537,0)" xlink:href="#K"/><use transform="matrix(0.07469135802469135,0,0,0.07469135802469135,38.764814814814805,0)" xlink:href="#L"/><use transform="matrix(0.07469135802469135,0,0,0.07469135802469135,53.70308641975308,0)" xlink:href="#M"/><use transform="matrix(0.07469135802469135,0,0,0.07469135802469135,68.64135802469134,0)" xlink:href="#G"/><use transform="matrix(0.07469135802469135,0,0,0.07469135802469135,76.11049382716048,0)" xlink:href="#Z"/></g><g id="l"><use transform="matrix(0.07469135802469135,0,0,0.07469135802469135,0,0)" xlink:href="#F"/><use transform="matrix(0.07469135802469135,0,0,0.07469135802469135,14.938271604938269,0)" xlink:href="#G"/><use transform="matrix(0.07469135802469135,0,0,0.07469135802469135,22.407407407407405,0)" xlink:href="#H"/><use transform="matrix(0.07469135802469135,0,0,0.07469135802469135,37.34567901234567,0)" xlink:href="#L"/><use transform="matrix(0.07469135802469135,0,0,0.07469135802469135,52.283950617283935,0)" xlink:href="#K"/></g><g id="m"><use transform="matrix(0.07469135802469135,0,0,0.07469135802469135,0,0)" xlink:href="#I"/><use transform="matrix(0.07469135802469135,0,0,0.07469135802469135,14.938271604938269,0)" xlink:href="#J"/><use transform="matrix(0.07469135802469135,0,0,0.07469135802469135,29.876543209876537,0)" xlink:href="#K"/><use transform="matrix(0.07469135802469135,0,0,0.07469135802469135,38.764814814814805,0)" xlink:href="#L"/><use transform="matrix(0.07469135802469135,0,0,0.07469135802469135,53.70308641975308,0)" xlink:href="#M"/><use transform="matrix(0.07469135802469135,0,0,0.07469135802469135,68.64135802469134,0)" xlink:href="#G"/></g><g id="n"><use transform="matrix(0.07469135802469135,0,0,0.07469135802469135,0,0)" xlink:href="#F"/><use transform="matrix(0.07469135802469135,0,0,0.07469135802469135,14.938271604938269,0)" xlink:href="#K"/></g><path fill="#333" d="M190 0L58-211 59 0H30v-248h39L202-35l-2-213h31V0h-41" id="aa"/><use transform="matrix(0.07469135802469135,0,0,0.07469135802469135,0,0)" xlink:href="#aa" id="o"/><path fill="#333" d="M195 0l-74-108L45 0H8l94-129-87-119h37l69 98 67-98h37l-84 118L233 0h-38" id="ab"/><use transform="matrix(0.07469135802469135,0,0,0.07469135802469135,0,0)" xlink:href="#ab" id="p"/><path fill="#333" d="M143 0L79-87 56-68V0H24v-261h32v163l83-92h37l-77 82L181 0h-38" id="ac"/><g id="q"><use transform="matrix(0.07469135802469135,0,0,0.07469135802469135,0,0)" xlink:href="#T"/><use transform="matrix(0.07469135802469135,0,0,0.07469135802469135,5.900617283950616,0)" xlink:href="#R"/><use transform="matrix(0.07469135802469135,0,0,0.07469135802469135,11.801234567901233,0)" xlink:href="#M"/><use transform="matrix(0.07469135802469135,0,0,0.07469135802469135,26.7395061728395,0)" xlink:href="#ac"/><use transform="matrix(0.07469135802469135,0,0,0.07469135802469135,40.18395061728394,0)" xlink:href="#L"/><use transform="matrix(0.07469135802469135,0,0,0.07469135802469135,55.122222222222206,0)" xlink:href="#X"/></g><path fill="#333" d="M0 4l72-265h28L28 4H0" id="ad"/><g id="r"><use transform="matrix(0.07469135802469135,0,0,0.07469135802469135,0,0)" xlink:href="#X"/><use transform="matrix(0.07469135802469135,0,0,0.07469135802469135,14.938271604938269,0)" xlink:href="#F"/><use transform="matrix(0.07469135802469135,0,0,0.07469135802469135,29.876543209876537,0)" xlink:href="#O"/><use transform="matrix(0.07469135802469135,0,0,0.07469135802469135,52.20925925925925,0)" xlink:href="#R"/><use transform="matrix(0.07469135802469135,0,0,0.07469135802469135,58.109876543209865,0)" xlink:href="#M"/><use transform="matrix(0.07469135802469135,0,0,0.07469135802469135,73.04814814814813,0)" xlink:href="#J"/><use transform="matrix(0.07469135802469135,0,0,0.07469135802469135,87.9864197530864,0)" xlink:href="#M"/><use transform="matrix(0.07469135802469135,0,0,0.07469135802469135,102.92469135802466,0)" xlink:href="#G"/><use transform="matrix(0.07469135802469135,0,0,0.07469135802469135,110.39382716049379,0)" xlink:href="#ad"/></g><path fill="#333" d="M16-82v-28h88v28H16" id="ae"/><g id="s"><use transform="matrix(0.07469135802469135,0,0,0.07469135802469135,0,0)" xlink:href="#F"/><use transform="matrix(0.07469135802469135,0,0,0.07469135802469135,14.938271604938269,0)" xlink:href="#U"/><use transform="matrix(0.07469135802469135,0,0,0.07469135802469135,28.38271604938271,0)" xlink:href="#L"/><use transform="matrix(0.07469135802469135,0,0,0.07469135802469135,43.32098765432098,0)" xlink:href="#K"/><use transform="matrix(0.07469135802469135,0,0,0.07469135802469135,52.20925925925925,0)" xlink:href="#ae"/><use transform="matrix(0.07469135802469135,0,0,0.07469135802469135,61.09753086419751,0)" xlink:href="#X"/><use transform="matrix(0.07469135802469135,0,0,0.07469135802469135,76.03580246913579,0)" xlink:href="#F"/><use transform="matrix(0.07469135802469135,0,0,0.07469135802469135,90.97407407407405,0)" xlink:href="#O"/><use transform="matrix(0.07469135802469135,0,0,0.07469135802469135,113.30679012345676,0)" xlink:href="#R"/><use transform="matrix(0.07469135802469135,0,0,0.07469135802469135,119.20740740740737,0)" xlink:href="#M"/><use transform="matrix(0.07469135802469135,0,0,0.07469135802469135,134.14567901234565,0)" xlink:href="#J"/><use transform="matrix(0.07469135802469135,0,0,0.07469135802469135,149.08395061728393,0)" xlink:href="#M"/><use transform="matrix(0.07469135802469135,0,0,0.07469135802469135,164.02222222222218,0)" xlink:href="#G"/></g><path fill="#333" d="M197 0v-115H63V0H30v-248h33v105h134v-105h34V0h-34" id="af"/><path fill="#333" d="M9 0v-24l116-142H16v-24h144v24L44-24h123V0H9" id="ag"/><path fill="#333" d="M179-190L93 31C79 59 56 82 12 73V49c39 6 53-20 64-50L1-190h34L92-34l54-156h33" id="ah"/><path fill="#333" d="M84 4C-5 8 30-112 23-190h32v120c0 31 7 50 39 49 72-2 45-101 50-169h31l1 190h-30c-1-10 1-25-2-33-11 22-28 36-60 37" id="ai"/><g id="t"><use transform="matrix(0.07469135802469135,0,0,0.07469135802469135,0,0)" xlink:href="#af"/><use transform="matrix(0.07469135802469135,0,0,0.07469135802469135,19.34506172839506,0)" xlink:href="#L"/><use transform="matrix(0.07469135802469135,0,0,0.07469135802469135,34.28333333333333,0)" xlink:href="#O"/><use transform="matrix(0.07469135802469135,0,0,0.07469135802469135,56.61604938271604,0)" xlink:href="#R"/><use transform="matrix(0.07469135802469135,0,0,0.07469135802469135,62.51666666666666,0)" xlink:href="#ag"/><use transform="matrix(0.07469135802469135,0,0,0.07469135802469135,75.96111111111111,0)" xlink:href="#ah"/><use transform="matrix(0.07469135802469135,0,0,0.07469135802469135,89.40555555555555,0)" xlink:href="#S"/><use transform="matrix(0.07469135802469135,0,0,0.07469135802469135,104.34382716049382,0)" xlink:href="#F"/><use transform="matrix(0.07469135802469135,0,0,0.07469135802469135,119.28209876543208,0)" xlink:href="#ai"/><use transform="matrix(0.07469135802469135,0,0,0.07469135802469135,134.22037037037035,0)" xlink:href="#N"/></g><path fill="#333" d="M212-179c-10-28-35-45-73-45-59 0-87 40-87 99 0 60 29 101 89 101 43 0 62-24 78-52l27 14C228-24 195 4 139 4 59 4 22-46 18-125c-6-104 99-153 187-111 19 9 31 26 39 46" id="aj"/><g id="u"><use transform="matrix(0.07469135802469135,0,0,0.07469135802469135,0,0)" xlink:href="#aj"/><use transform="matrix(0.07469135802469135,0,0,0.07469135802469135,19.34506172839506,0)" xlink:href="#F"/><use transform="matrix(0.07469135802469135,0,0,0.07469135802469135,34.28333333333333,0)" xlink:href="#O"/><use transform="matrix(0.07469135802469135,0,0,0.07469135802469135,56.61604938271604,0)" xlink:href="#I"/><use transform="matrix(0.07469135802469135,0,0,0.07469135802469135,71.55432098765431,0)" xlink:href="#F"/><use transform="matrix(0.07469135802469135,0,0,0.07469135802469135,86.49259259259257,0)" xlink:href="#ai"/><use transform="matrix(0.07469135802469135,0,0,0.07469135802469135,101.43086419753082,0)" xlink:href="#M"/><use transform="matrix(0.07469135802469135,0,0,0.07469135802469135,116.3691358024691,0)" xlink:href="#X"/></g><g id="v"><use transform="matrix(0.07469135802469135,0,0,0.07469135802469135,0,0)" xlink:href="#H"/><use transform="matrix(0.07469135802469135,0,0,0.07469135802469135,14.938271604938269,0)" xlink:href="#L"/><use transform="matrix(0.07469135802469135,0,0,0.07469135802469135,29.876543209876537,0)" xlink:href="#G"/></g><g id="w"><use transform="matrix(0.07469135802469135,0,0,0.07469135802469135,0,0)" xlink:href="#N"/><use transform="matrix(0.07469135802469135,0,0,0.07469135802469135,13.444444444444443,0)" xlink:href="#Y"/><use transform="matrix(0.07469135802469135,0,0,0.07469135802469135,26.888888888888886,0)" xlink:href="#K"/><use transform="matrix(0.07469135802469135,0,0,0.07469135802469135,35.777160493827154,0)" xlink:href="#L"/><use transform="matrix(0.07469135802469135,0,0,0.07469135802469135,50.71543209876541,0)" xlink:href="#L"/><use transform="matrix(0.07469135802469135,0,0,0.07469135802469135,65.65370370370368,0)" xlink:href="#M"/></g><path fill="#333" d="M233-177c-1 41-23 64-60 70L243 0h-38l-65-103H63V0H30v-248c88 3 205-21 203 71zM63-129c60-2 137 13 137-47 0-61-80-42-137-45v92" id="ak"/><path fill="#333" d="M24-231v-30h32v30H24zM-9 49c24 4 33-6 33-30v-209h32V24c2 40-23 58-65 49V49" id="al"/><g id="x"><use transform="matrix(0.07469135802469135,0,0,0.07469135802469135,0,0)" xlink:href="#ak"/><use transform="matrix(0.07469135802469135,0,0,0.07469135802469135,19.34506172839506,0)" xlink:href="#L"/><use transform="matrix(0.07469135802469135,0,0,0.07469135802469135,34.28333333333333,0)" xlink:href="#al"/><use transform="matrix(0.07469135802469135,0,0,0.07469135802469135,40.18395061728394,0)" xlink:href="#L"/><use transform="matrix(0.07469135802469135,0,0,0.07469135802469135,55.12222222222222,0)" xlink:href="#Y"/><use transform="matrix(0.07469135802469135,0,0,0.07469135802469135,68.56666666666666,0)" xlink:href="#G"/></g><path fill="#333" d="M30 0v-248h33v221h125V0H30" id="am"/><path fill="#333" d="M63-220v92h138v28H63V0H30v-248h175v28H63" id="an"/><g id="y"><use transform="matrix(0.07469135802469135,0,0,0.07469135802469135,0,0)" xlink:href="#am"/><use transform="matrix(0.07469135802469135,0,0,0.07469135802469135,14.938271604938269,0)" xlink:href="#F"/><use transform="matrix(0.07469135802469135,0,0,0.07469135802469135,29.876543209876537,0)" xlink:href="#an"/></g><path fill="#333" d="M234-2c-28 10-62 0-77-18C117 19 8 12 13-65c3-43 29-61 60-76-25-40-17-114 47-108 35 3 59 15 59 50 0 44-40 53-71 69 14 26 32 50 51 72 14-21 24-43 30-72l26 8c-9 33-21 57-38 82 13 13 33 22 57 15v23zM97-151c25-10 52-18 56-48-1-18-13-29-33-29-42 0-39 50-23 77zM42-66c-3 51 71 58 98 28-20-24-41-51-56-80-23 10-40 24-42 52" id="ao"/><use transform="matrix(0.07469135802469135,0,0,0.07469135802469135,0,0)" xlink:href="#ao" id="z"/><g id="A"><use transform="matrix(0.07469135802469135,0,0,0.07469135802469135,0,0)" xlink:href="#ab"/><use transform="matrix(0.07469135802469135,0,0,0.07469135802469135,17.925925925925924,0)" xlink:href="#ae"/><use transform="matrix(0.07469135802469135,0,0,0.07469135802469135,26.81419753086419,0)" xlink:href="#T"/><use transform="matrix(0.07469135802469135,0,0,0.07469135802469135,32.71481481481481,0)" xlink:href="#R"/><use transform="matrix(0.07469135802469135,0,0,0.07469135802469135,38.615432098765424,0)" xlink:href="#M"/><use transform="matrix(0.07469135802469135,0,0,0.07469135802469135,53.55370370370369,0)" xlink:href="#ac"/><use transform="matrix(0.07469135802469135,0,0,0.07469135802469135,66.99814814814813,0)" xlink:href="#L"/><use transform="matrix(0.07469135802469135,0,0,0.07469135802469135,81.93641975308638,0)" xlink:href="#X"/></g><g id="B"><use transform="matrix(0.07469135802469135,0,0,0.07469135802469135,0,0)" xlink:href="#F"/><use transform="matrix(0.07469135802469135,0,0,0.07469135802469135,14.938271604938269,0)" xlink:href="#U"/><use transform="matrix(0.07469135802469135,0,0,0.07469135802469135,28.38271604938271,0)" xlink:href="#L"/><use transform="matrix(0.07469135802469135,0,0,0.07469135802469135,43.32098765432098,0)" xlink:href="#K"/><use transform="matrix(0.07469135802469135,0,0,0.07469135802469135,52.20925925925925,0)" xlink:href="#ae"/><use transform="matrix(0.07469135802469135,0,0,0.07469135802469135,61.09753086419751,0)" xlink:href="#X"/><use transform="matrix(0.07469135802469135,0,0,0.07469135802469135,76.03580246913579,0)" xlink:href="#F"/><use transform="matrix(0.07469135802469135,0,0,0.07469135802469135,90.97407407407405,0)" xlink:href="#O"/></g><g id="C"><use transform="matrix(0.07469135802469135,0,0,0.07469135802469135,0,0)" xlink:href="#X"/><use transform="matrix(0.07469135802469135,0,0,0.07469135802469135,14.938271604938269,0)" xlink:href="#J"/><use transform="matrix(0.07469135802469135,0,0,0.07469135802469135,29.876543209876537,0)" xlink:href="#X"/></g><g id="D"><use transform="matrix(0.07469135802469135,0,0,0.07469135802469135,0,0)" xlink:href="#M"/><use transform="matrix(0.07469135802469135,0,0,0.07469135802469135,14.938271604938269,0)" xlink:href="#F"/><use transform="matrix(0.07469135802469135,0,0,0.07469135802469135,29.876543209876537,0)" xlink:href="#G"/></g></defs></g></svg>